NotoSansSymbols2-Regular.ufo
<glyph name="software-functionsymbol" format="2">
  <advance width="860"/>
  <unicode hex="2394"/>
  <outline>
    <contour>
      <point x="247" y="44" type="line"/>
      <point x="613" y="44" type="line"/>
      <point x="793" y="357" type="line"/>
      <point x="613" y="670" type="line"/>
      <point x="247" y="670" type="line"/>
      <point x="67" y="357" type="line"/>
    </contour>
    <contour>
      <point x="295" y="103" type="line"/>
      <point x="146" y="357" type="line"/>
      <point x="295" y="611" type="line"/>
      <point x="565" y="611" type="line"/>
      <point x="714" y="357" type="line"/>
      <point x="565" y="103" type="line"/>
    </contour>
  </outline>
</glyph>
<glyph name="uni23FD" format="2">
  <advance width="894"/>
  <unicode hex="23FD"/>
  <outline>
    <contour>
      <point x="395" y="24" type="line"/>
      <point x="499" y="24" type="line"/>
      <point x="499" y="700" type="line"/>
      <point x="395" y="700" type="line"/>
    </contour>
  </outline>
</glyph>
<glyph name="blackSmallSquare" format="2">
  <advance width="350"/>
  <unicode hex="25AA"/>
  <note>
uni25AA
</note>
  <outline>
    <contour>
      <point x="51" y="238" type="line"/>
      <point x="299" y="238" type="line"/>
      <point x="299" y="486" type="line"/>
      <point x="51" y="486" type="line"/>
    </contour>
  </outline>
</glyph>
<glyph name="filledRect" format="2">
  <advance width="1000"/>
  <unicode hex="25AC"/>
  <note>
filledrect
</note>
  <outline>
    <contour>
      <point x="0" y="63" type="line"/>
      <point x="1000" y="63" type="line"/>
      <point x="1000" y="364" type="line"/>
      <point x="0" y="364" type="line"/>
    </contour>
  </outline>
</glyph>
<glyph name="whiteVerticalRect" format="2">
  <advance width="1000"/>
  <unicode hex="25AF"/>
  <note>
uni25AF
</note>
  <outline>
    <contour>
      <point x="349" y="-287" type="line"/>
      <point x="650" y="-287" type="line"/>
      <point x="650" y="713" type="line"/>
      <point x="349" y="713" type="line"/>
    </contour>
    <contour>
      <point x="386" y="-250" type="line"/>
      <point x="386" y="676" type="line"/>
      <point x="613" y="676" type="line"/>
      <point x="613" y="-250" type="line"/>
    </contour>
  </outline>
</glyph>
<glyph name="rightBlackTriangle" format="2">
  <advance width="799"/>
  <unicode hex="25B6"/>
  <note>
uni25B6
</note>
  <outline>
    <contour>
      <point x="51" y="-54" type="line"/>
      <point x="748" y="349" type="line"/>
      <point x="51" y="751" type="line"/>
    </contour>
  </outline>
</glyph>
<glyph name="lowerRightBlackTriangle" format="2">
  <advance width="700"/>
  <unicode hex="25E2"/>
  <note>
uni25E2
</note>
  <outline>
    <contour>
      <point x="51" y="0" type="line"/>
      <point x="649" y="0" type="line"/>
      <point x="649" y="598" type="line"/>
    </contour>
  </outline>
</glyph>
<glyph name="upRightHalfBlackTriangle" format="2">
  <advance width="687"/>
  <unicode hex="25EE"/>
  <note>
uni25EE
</note>
  <outline>
    <contour>
      <point x="51" y="0" type="line"/>
      <point x="636" y="0" type="line"/>
      <point x="344" y="585" type="line"/>
    </contour>
    <contour>
      <point x="111" y="37" type="line"/>
      <point x="344" y="503" type="line"/>
      <point x="344" y="37" type="line"/>
    </contour>
  </outline>
</glyph>
<glyph name="blackstar" format="2">
  <advance width="960"/>
  <unicode hex="2605"/>
  <note>
uni2605
</note>
  <outline>
    <contour>
      <point x="202" y="-17" type="line"/>
      <point x="480" y="186" type="line"/>
      <point x="760" y="-17" type="line"/>
      <point x="651" y="301" type="line"/>
      <point x="909" y="474" type="line"/>
      <point x="595" y="474" type="line"/>
      <point x="480" y="815" type="line"/>
      <point x="367" y="474" type="line"/>
      <point x="51" y="474" type="line"/>
      <point x="309" y="301" type="line"/>
    </contour>
  </outline>
</glyph>
<glyph name="kingWhiteChess" format="2">
  <advance width="696"/>
  <unicode hex="2654"/>
  <note>
uni2654
</note>
  <outline>
    <contour>
      <point x="348" y="-34" type="curve" smooth="yes"/>
      <point x="410" y="-34"/>
      <point x="458" y="-29"/>
      <point x="495" y="-19" type="curve" smooth="yes"/>
      <point x="531" y="-9"/>
      <point x="549" y="6"/>
      <point x="549" y="24" type="curve"/>
      <point x="535" y="227" type="line"/>
      <point x="616" y="314"/>
      <point x="645" y="379"/>
      <point x="645" y="436" type="curve" smooth="yes"/>
      <point x="645" y="520"/>
      <point x="599" y="573"/>
      <point x="523" y="573" type="curve" smooth="yes"/>
      <point x="478" y="573"/>
      <point x="440" y="557"/>
      <point x="409" y="525" type="curve"/>
      <point x="413" y="589" type="line"/>
      <point x="413" y="616"/>
      <point x="397" y="631"/>
      <point x="365" y="636" type="curve"/>
      <point x="365" y="696" type="line"/>
      <point x="406" y="696" type="line"/>
      <point x="406" y="716" type="line"/>
      <point x="365" y="716" type="line"/>
      <point x="365" y="753" type="line"/>
      <point x="331" y="753" type="line"/>
      <point x="331" y="716" type="line"/>
      <point x="290" y="716" type="line"/>
      <point x="290" y="696" type="line"/>
      <point x="331" y="696" type="line"/>
      <point x="331" y="636" type="line"/>
      <point x="299" y="631"/>
      <point x="283" y="616"/>
      <point x="283" y="591" type="curve"/>
      <point x="287" y="525" type="line"/>
      <point x="255" y="557"/>
      <point x="217" y="573"/>
      <point x="173" y="573" type="curve" smooth="yes"/>
      <point x="97" y="573"/>
      <point x="51" y="520"/>
      <point x="51" y="436" type="curve" smooth="yes"/>
      <point x="51" y="375"/>
      <point x="87" y="305"/>
      <point x="161" y="227" type="curve"/>
      <point x="147" y="24" type="line"/>
      <point x="147" y="6"/>
      <point x="165" y="-8"/>
      <point x="201" y="-18" type="curve" smooth="yes"/>
      <point x="237" y="-28"/>
      <point x="286" y="-34"/>
    </contour>
    <contour>
      <point x="348" y="-5" type="curve" smooth="yes"/>
      <point x="243" y="-5"/>
      <point x="190" y="5"/>
      <point x="190" y="26" type="curve" smooth="yes"/>
      <point x="190" y="35"/>
      <point x="204" y="43"/>
      <point x="232" y="49" type="curve" smooth="yes"/>
      <point x="260" y="55"/>
      <point x="298" y="57"/>
      <point x="348" y="57" type="curve" smooth="yes"/>
      <point x="398" y="57"/>
      <point x="437" y="54"/>
      <point x="465" y="49" type="curve" smooth="yes"/>
      <point x="492" y="44"/>
      <point x="506" y="35"/>
      <point x="506" y="26" type="curve" smooth="yes"/>
      <point x="506" y="5"/>
      <point x="453" y="-5"/>
    </contour>
    <contour>
      <point x="196" y="68" type="curve"/>
      <point x="199" y="123" type="line"/>
      <point x="236" y="134"/>
      <point x="295" y="143"/>
      <point x="348" y="143" type="curve" smooth="yes"/>
      <point x="401" y="143"/>
      <point x="451" y="136"/>
      <point x="497" y="123" type="curve"/>
      <point x="500" y="68" type="line"/>
      <point x="464" y="80"/>
      <point x="414" y="86"/>
      <point x="348" y="86" type="curve" smooth="yes"/>
      <point x="282" y="86"/>
      <point x="231" y="80"/>
    </contour>
    <contour>
      <point x="201" y="155" type="curve"/>
      <point x="206" y="213" type="line"/>
      <point x="249" y="224"/>
      <point x="296" y="230"/>
      <point x="348" y="230" type="curve" smooth="yes"/>
      <point x="399" y="230"/>
      <point x="446" y="224"/>
      <point x="490" y="213" type="curve"/>
      <point x="495" y="155" type="line"/>
      <point x="473" y="163"/>
      <point x="403" y="172"/>
      <point x="348" y="172" type="curve" smooth="yes"/>
      <point x="289" y="172"/>
      <point x="221" y="163"/>
    </contour>
    <contour>
      <point x="195" y="247" type="curve"/>
      <point x="138" y="306"/>
      <point x="96" y="380"/>
      <point x="96" y="431" type="curve" smooth="yes"/>
      <point x="96" y="494"/>
      <point x="125" y="531"/>
      <point x="175" y="531" type="curve" smooth="yes"/>
      <point x="260" y="531"/>
      <point x="327" y="410"/>
      <point x="327" y="294" type="curve" smooth="yes"/>
      <point x="327" y="262" type="line"/>
      <point x="290" y="262"/>
      <point x="245" y="257"/>
    </contour>
    <contour>
      <point x="348" y="422" type="curve"/>
      <point x="338" y="448"/>
      <point x="329" y="468"/>
      <point x="320" y="483" type="curve"/>
      <point x="320" y="578" type="line" smooth="yes"/>
      <point x="320" y="600"/>
      <point x="329" y="611"/>
      <point x="348" y="611" type="curve" smooth="yes"/>
      <point x="366" y="611"/>
      <point x="376" y="602"/>
      <point x="376" y="578" type="curve" smooth="yes"/>
      <point x="376" y="483" type="line"/>
      <point x="366" y="468"/>
      <point x="356" y="447"/>
    </contour>
    <contour>
      <point x="501" y="247" type="curve"/>
      <point x="458" y="255"/>
      <point x="401" y="262"/>
      <point x="369" y="262" type="curve"/>
      <point x="369" y="298" type="line" smooth="yes"/>
      <point x="369" y="408"/>
      <point x="435" y="531"/>
      <point x="521" y="531" type="curve" smooth="yes"/>
      <point x="573" y="531"/>
      <point x="600" y="491"/>
      <point x="600" y="431" type="curve" smooth="yes"/>
      <point x="600" y="380"/>
      <point x="560" y="308"/>
    </contour>
  </outline>
</glyph>
<glyph name="queenWhiteChess" format="2">
  <advance width="852"/>
  <unicode hex="2655"/>
  <note>
uni2655
</note>
  <outline>
    <contour>
      <point x="426" y="-34" type="curve" smooth="yes"/>
      <point x="488" y="-34"/>
      <point x="537" y="-29"/>
      <point x="573" y="-19" type="curve" smooth="yes"/>
      <point x="609" y="-9"/>
      <point x="627" y="6"/>
      <point x="627" y="24" type="curve"/>
      <point x="624" y="236" type="line"/>
      <point x="716" y="518" type="line"/>
      <point x="720" y="517"/>
      <point x="726" y="516"/>
      <point x="734" y="516" type="curve" smooth="yes"/>
      <point x="771" y="516"/>
      <point x="801" y="544"/>
      <point x="801" y="586" type="curve" smooth="yes"/>
      <point x="801" y="623"/>
      <point x="771" y="652"/>
      <point x="733" y="652" type="curve" smooth="yes"/>
      <point x="694" y="652"/>
      <point x="665" y="623"/>
      <point x="665" y="584" type="curve" smooth="yes"/>
      <point x="665" y="562"/>
      <point x="677" y="538"/>
      <point x="695" y="527" type="curve"/>
      <point x="572" y="328" type="line"/>
      <point x="593" y="598" type="line"/>
      <point x="595" y="598" type="line" smooth="yes"/>
      <point x="630" y="598"/>
      <point x="662" y="629"/>
      <point x="662" y="666" type="curve" smooth="yes"/>
      <point x="662" y="703"/>
      <point x="633" y="735"/>
      <point x="595" y="735" type="curve" smooth="yes"/>
      <point x="558" y="735"/>
      <point x="526" y="706"/>
      <point x="526" y="667" type="curve" smooth="yes"/>
      <point x="526" y="638"/>
      <point x="542" y="613"/>
      <point x="570" y="603" type="curve"/>
      <point x="480" y="349" type="line"/>
      <point x="438" y="632" type="line"/>
      <point x="469" y="637"/>
      <point x="494" y="664"/>
      <point x="494" y="699" type="curve" smooth="yes"/>
      <point x="494" y="738"/>
      <point x="463" y="767"/>
      <point x="426" y="767" type="curve" smooth="yes"/>
      <point x="388" y="767"/>
      <point x="358" y="737"/>
      <point x="358" y="699" type="curve" smooth="yes"/>
      <point x="358" y="664"/>
      <point x="383" y="637"/>
      <point x="414" y="632" type="curve"/>
      <point x="372" y="349" type="line"/>
      <point x="282" y="603" type="line"/>
      <point x="310" y="613"/>
      <point x="326" y="638"/>
      <point x="326" y="667" type="curve" smooth="yes"/>
      <point x="326" y="706"/>
      <point x="294" y="735"/>
      <point x="257" y="735" type="curve" smooth="yes"/>
      <point x="219" y="735"/>
      <point x="190" y="703"/>
      <point x="190" y="666" type="curve" smooth="yes"/>
      <point x="190" y="628"/>
      <point x="222" y="598"/>
      <point x="257" y="598" type="curve" smooth="yes"/>
      <point x="259" y="598" type="line"/>
      <point x="280" y="328" type="line"/>
      <point x="157" y="527" type="line"/>
      <point x="175" y="538"/>
      <point x="187" y="562"/>
      <point x="187" y="584" type="curve" smooth="yes"/>
      <point x="187" y="623"/>
      <point x="158" y="652"/>
      <point x="119" y="652" type="curve" smooth="yes"/>
      <point x="82" y="652"/>
      <point x="51" y="623"/>
      <point x="51" y="586" type="curve" smooth="yes"/>
      <point x="51" y="545"/>
      <point x="80" y="516"/>
      <point x="118" y="516" type="curve" smooth="yes"/>
      <point x="126" y="516"/>
      <point x="132" y="517"/>
      <point x="136" y="518" type="curve"/>
      <point x="228" y="236" type="line"/>
      <point x="225" y="24" type="line" smooth="yes"/>
      <point x="225" y="6"/>
      <point x="243" y="-8"/>
      <point x="279" y="-18" type="curve" smooth="yes"/>
      <point x="315" y="-28"/>
      <point x="364" y="-34"/>
    </contour>
    <contour>
      <point x="426" y="-5" type="curve" smooth="yes"/>
      <point x="322" y="-5"/>
      <point x="270" y="5"/>
      <point x="270" y="26" type="curve" smooth="yes"/>
      <point x="270" y="36"/>
      <point x="284" y="43"/>
      <point x="312" y="49" type="curve" smooth="yes"/>
      <point x="339" y="55"/>
      <point x="377" y="57"/>
      <point x="426" y="57" type="curve" smooth="yes"/>
      <point x="475" y="57"/>
      <point x="513" y="54"/>
      <point x="541" y="49" type="curve" smooth="yes"/>
      <point x="568" y="44"/>
      <point x="582" y="35"/>
      <point x="582" y="26" type="curve" smooth="yes"/>
      <point x="582" y="5"/>
      <point x="530" y="-5"/>
    </contour>
    <contour>
      <point x="272" y="68" type="curve"/>
      <point x="272" y="99" type="line"/>
      <point x="305" y="110"/>
      <point x="371" y="119"/>
      <point x="426" y="119" type="curve" smooth="yes"/>
      <point x="483" y="119"/>
      <point x="547" y="110"/>
      <point x="580" y="99" type="curve"/>
      <point x="580" y="68" type="line"/>
      <point x="544" y="80"/>
      <point x="493" y="86"/>
      <point x="426" y="86" type="curve" smooth="yes"/>
      <point x="359" y="86"/>
      <point x="308" y="80"/>
    </contour>
    <contour>
      <point x="254" y="245" type="line"/>
      <point x="194" y="421" type="line"/>
      <point x="290" y="254" type="line"/>
    </contour>
    <contour>
      <point x="273" y="126" type="curve"/>
      <point x="273" y="159" type="line"/>
      <point x="307" y="170"/>
      <point x="372" y="179"/>
      <point x="426" y="179" type="curve" smooth="yes"/>
      <point x="478" y="179"/>
      <point x="546" y="170"/>
      <point x="579" y="159" type="curve"/>
      <point x="579" y="126" type="line"/>
      <point x="540" y="139"/>
      <point x="489" y="146"/>
      <point x="426" y="146" type="curve" smooth="yes"/>
      <point x="363" y="146"/>
      <point x="313" y="139"/>
    </contour>
    <contour>
      <point x="274" y="186" type="curve"/>
      <point x="274" y="219" type="line"/>
      <point x="305" y="229"/>
      <point x="373" y="239"/>
      <point x="426" y="239" type="curve" smooth="yes"/>
      <point x="481" y="239"/>
      <point x="546" y="229"/>
      <point x="578" y="219" type="curve"/>
      <point x="578" y="186" type="line"/>
      <point x="539" y="199"/>
      <point x="488" y="206"/>
      <point x="426" y="206" type="curve" smooth="yes"/>
      <point x="364" y="206"/>
      <point x="313" y="199"/>
    </contour>
    <contour>
      <point x="119" y="547" type="curve" smooth="yes"/>
      <point x="97" y="547"/>
      <point x="82" y="563"/>
      <point x="82" y="585" type="curve" smooth="yes"/>
      <point x="82" y="605"/>
      <point x="98" y="620"/>
      <point x="117" y="620" type="curve" smooth="yes"/>
      <point x="141" y="620"/>
      <point x="155" y="604"/>
      <point x="155" y="583" type="curve" smooth="yes"/>
      <point x="155" y="563"/>
      <point x="140" y="547"/>
    </contour>
    <contour>
      <point x="319" y="259" type="curve"/>
      <point x="292" y="495" type="line"/>
      <point x="362" y="264" type="line"/>
      <point x="346" y="263"/>
      <point x="332" y="261"/>
    </contour>
    <contour>
      <point x="393" y="266" type="curve"/>
      <point x="426" y="548" type="line"/>
      <point x="459" y="266" type="line"/>
      <point x="448" y="267"/>
      <point x="437" y="267"/>
      <point x="426" y="267" type="curve" smooth="yes"/>
      <point x="415" y="267"/>
      <point x="404" y="267"/>
    </contour>
    <contour>
      <point x="533" y="259" type="line"/>
      <point x="520" y="261"/>
      <point x="506" y="263"/>
      <point x="490" y="264" type="curve"/>
      <point x="560" y="495" type="line"/>
    </contour>
    <contour>
      <point x="259" y="629" type="curve" smooth="yes"/>
      <point x="237" y="629"/>
      <point x="222" y="645"/>
      <point x="222" y="667" type="curve" smooth="yes"/>
      <point x="222" y="687"/>
      <point x="238" y="702"/>
      <point x="257" y="702" type="curve" smooth="yes"/>
      <point x="281" y="702"/>
      <point x="295" y="686"/>
      <point x="295" y="665" type="curve" smooth="yes"/>
      <point x="295" y="645"/>
      <point x="280" y="629"/>
    </contour>
    <contour>
      <point x="598" y="245" type="line"/>
      <point x="562" y="254" type="line"/>
      <point x="658" y="421" type="line"/>
    </contour>
    <contour>
      <point x="427" y="662" type="curve" smooth="yes"/>
      <point x="405" y="662"/>
      <point x="390" y="678"/>
      <point x="390" y="700" type="curve" smooth="yes"/>
      <point x="390" y="720"/>
      <point x="406" y="735"/>
      <point x="425" y="735" type="curve" smooth="yes"/>
      <point x="446" y="735"/>
      <point x="462" y="720"/>
      <point x="462" y="700" type="curve" smooth="yes"/>
      <point x="462" y="678"/>
      <point x="446" y="662"/>
    </contour>
    <contour>
      <point x="593" y="629" type="curve" smooth="yes"/>
      <point x="572" y="629"/>
      <point x="557" y="645"/>
      <point x="557" y="665" type="curve" smooth="yes"/>
      <point x="557" y="686"/>
      <point x="570" y="702"/>
      <point x="595" y="702" type="curve" smooth="yes"/>
      <point x="614" y="702"/>
      <point x="630" y="687"/>
      <point x="630" y="667" type="curve" smooth="yes"/>
      <point x="630" y="645"/>
      <point x="616" y="629"/>
    </contour>
    <contour>
      <point x="733" y="547" type="curve" smooth="yes"/>
      <point x="712" y="547"/>
      <point x="697" y="563"/>
      <point x="697" y="583" type="curve" smooth="yes"/>
      <point x="697" y="604"/>
      <point x="711" y="620"/>
      <point x="735" y="620" type="curve" smooth="yes"/>
      <point x="754" y="620"/>
      <point x="770" y="605"/>
      <point x="770" y="585" type="curve" smooth="yes"/>
      <point x="770" y="563"/>
      <point x="755" y="547"/>
    </contour>
  </outline>
</glyph>
<glyph name="rookWhiteChess" format="2">
  <advance width="751"/>
  <unicode hex="2656"/>
  <note>
uni2656
</note>
  <outline>
    <contour>
      <point x="51" y="0" type="line"/>
      <point x="700" y="0" type="line"/>
      <point x="700" y="91" type="line"/>
      <point x="640" y="91" type="line"/>
      <point x="640" y="159" type="line"/>
      <point x="597" y="159" type="line"/>
      <point x="560" y="227" type="line"/>
      <point x="560" y="531" type="line"/>
      <point x="597" y="599" type="line"/>
      <point x="640" y="599" type="line"/>
      <point x="640" y="719" type="line"/>
      <point x="516" y="719" type="line"/>
      <point x="516" y="690" type="line"/>
      <point x="456" y="690" type="line"/>
      <point x="456" y="715" type="line"/>
      <point x="295" y="715" type="line"/>
      <point x="295" y="690" type="line"/>
      <point x="235" y="690" type="line"/>
      <point x="235" y="719" type="line"/>
      <point x="111" y="719" type="line"/>
      <point x="111" y="599" type="line"/>
      <point x="153" y="599" type="line"/>
      <point x="191" y="531" type="line"/>
      <point x="191" y="227" type="line"/>
      <point x="153" y="159" type="line"/>
      <point x="111" y="159" type="line"/>
      <point x="111" y="91" type="line"/>
      <point x="51" y="91" type="line"/>
    </contour>
    <contour>
      <point x="94" y="28" type="line"/>
      <point x="94" y="63" type="line"/>
      <point x="657" y="63" type="line"/>
      <point x="657" y="28" type="line"/>
    </contour>
    <contour>
      <point x="154" y="96" type="line"/>
      <point x="154" y="131" type="line"/>
      <point x="597" y="131" type="line"/>
      <point x="597" y="96" type="line"/>
    </contour>
    <contour>
      <point x="199" y="164" type="line"/>
      <point x="218" y="199" type="line"/>
      <point x="532" y="199" type="line"/>
      <point x="552" y="164" type="line"/>
    </contour>
    <contour>
      <point x="234" y="232" type="line"/>
      <point x="234" y="526" type="line"/>
      <point x="517" y="526" type="line"/>
      <point x="517" y="232" type="line"/>
    </contour>
    <contour>
      <point x="220" y="559" type="line"/>
      <point x="199" y="594" type="line"/>
      <point x="552" y="594" type="line"/>
      <point x="533" y="559" type="line"/>
    </contour>
    <contour>
      <point x="154" y="627" type="line"/>
      <point x="154" y="686" type="line"/>
      <point x="209" y="686" type="line"/>
      <point x="209" y="657" type="line"/>
      <point x="321" y="657" type="line"/>
      <point x="321" y="682" type="line"/>
      <point x="430" y="682" type="line"/>
      <point x="430" y="657" type="line"/>
      <point x="542" y="657" type="line"/>
      <point x="542" y="686" type="line"/>
      <point x="597" y="686" type="line"/>
      <point x="597" y="627" type="line"/>
    </contour>
  </outline>
</glyph>
<glyph name="bishopWhiteChess" format="2">
  <advance width="796"/>
  <unicode hex="2657"/>
  <note>
uni2657
</note>
  <outline>
    <contour>
      <point x="51" y="-49" type="line"/>
      <point x="76" y="-49" type="line"/>
      <point x="81" y="-20"/>
      <point x="106" y="-6"/>
      <point x="152" y="-6" type="curve" smooth="yes"/>
      <point x="339" y="-6" type="line" smooth="yes"/>
      <point x="368" y="-6"/>
      <point x="388" y="3"/>
      <point x="398" y="21" type="curve"/>
      <point x="407" y="3"/>
      <point x="427" y="-6"/>
      <point x="457" y="-6" type="curve" smooth="yes"/>
      <point x="644" y="-6" type="line" smooth="yes"/>
      <point x="690" y="-6"/>
      <point x="716" y="-20"/>
      <point x="720" y="-49" type="curve"/>
      <point x="745" y="-49" type="line"/>
      <point x="744" y="48" type="line"/>
      <point x="723" y="67"/>
      <point x="683" y="81"/>
      <point x="636" y="81" type="curve" smooth="yes"/>
      <point x="495" y="81" type="line" smooth="yes"/>
      <point x="476" y="81"/>
      <point x="463" y="83"/>
      <point x="456" y="85" type="curve" smooth="yes"/>
      <point x="449" y="87"/>
      <point x="445" y="94"/>
      <point x="445" y="101" type="curve"/>
      <point x="445" y="104" type="line"/>
      <point x="481" y="106"/>
      <point x="510" y="112"/>
      <point x="531" y="120" type="curve" smooth="yes"/>
      <point x="551" y="128"/>
      <point x="561" y="139"/>
      <point x="561" y="153" type="curve"/>
      <point x="558" y="165" type="line"/>
      <point x="522" y="256" type="line"/>
      <point x="567" y="285"/>
      <point x="598" y="339"/>
      <point x="598" y="407" type="curve" smooth="yes"/>
      <point x="598" y="493"/>
      <point x="533" y="576"/>
      <point x="426" y="636" type="curve"/>
      <point x="443" y="646"/>
      <point x="454" y="664"/>
      <point x="454" y="685" type="curve" smooth="yes"/>
      <point x="454" y="715"/>
      <point x="430" y="741"/>
      <point x="398" y="741" type="curve" smooth="yes"/>
      <point x="367" y="741"/>
      <point x="342" y="716"/>
      <point x="342" y="685" type="curve" smooth="yes"/>
      <point x="342" y="664"/>
      <point x="353" y="646"/>
      <point x="370" y="636" type="curve"/>
      <point x="263" y="576"/>
      <point x="198" y="493"/>
      <point x="198" y="407" type="curve" smooth="yes"/>
      <point x="198" y="344"/>
      <point x="227" y="284"/>
      <point x="274" y="255" type="curve"/>
      <point x="239" y="165" type="line"/>
      <point x="237" y="161"/>
      <point x="236" y="157"/>
      <point x="236" y="153" type="curve" smooth="yes"/>
      <point x="236" y="126"/>
      <point x="274" y="109"/>
      <point x="351" y="104" type="curve"/>
      <point x="351" y="101" type="line"/>
      <point x="351" y="94"/>
      <point x="347" y="88"/>
      <point x="340" y="85" type="curve" smooth="yes"/>
      <point x="333" y="82"/>
      <point x="320" y="81"/>
      <point x="301" y="81" type="curve" smooth="yes"/>
      <point x="160" y="81" type="line" smooth="yes"/>
      <point x="113" y="81"/>
      <point x="73" y="67"/>
      <point x="52" y="48" type="curve"/>
    </contour>
    <contour>
      <point x="78" y="-4" type="curve"/>
      <point x="79" y="28" type="line"/>
      <point x="91" y="44"/>
      <point x="120" y="52"/>
      <point x="163" y="52" type="curve" smooth="yes"/>
      <point x="315" y="52" type="line" smooth="yes"/>
      <point x="353" y="52"/>
      <point x="372" y="69"/>
      <point x="372" y="103" type="curve"/>
      <point x="389" y="103" type="line"/>
      <point x="388" y="77"/>
      <point x="387" y="60"/>
      <point x="384" y="50" type="curve" smooth="yes"/>
      <point x="379" y="32"/>
      <point x="367" y="23"/>
      <point x="336" y="23" type="curve" smooth="yes"/>
      <point x="164" y="23" type="line" smooth="yes"/>
      <point x="123" y="23"/>
      <point x="91" y="12"/>
    </contour>
    <contour>
      <point x="398" y="128" type="curve" smooth="yes"/>
      <point x="363" y="128"/>
      <point x="334" y="130"/>
      <point x="312" y="135" type="curve" smooth="yes"/>
      <point x="289" y="140"/>
      <point x="277" y="146"/>
      <point x="277" y="153" type="curve" smooth="yes"/>
      <point x="277" y="160"/>
      <point x="288" y="166"/>
      <point x="311" y="171" type="curve" smooth="yes"/>
      <point x="333" y="176"/>
      <point x="362" y="178"/>
      <point x="398" y="178" type="curve" smooth="yes"/>
      <point x="433" y="178"/>
      <point x="462" y="176"/>
      <point x="485" y="171" type="curve" smooth="yes"/>
      <point x="508" y="166"/>
      <point x="519" y="160"/>
      <point x="519" y="153" type="curve" smooth="yes"/>
      <point x="519" y="146"/>
      <point x="508" y="140"/>
      <point x="485" y="135" type="curve" smooth="yes"/>
      <point x="463" y="130"/>
      <point x="434" y="128"/>
    </contour>
    <contour>
      <point x="718" y="-4" type="line"/>
      <point x="705" y="12"/>
      <point x="673" y="23"/>
      <point x="632" y="23" type="curve" smooth="yes"/>
      <point x="460" y="23" type="line" smooth="yes"/>
      <point x="421" y="23"/>
      <point x="410" y="37"/>
      <point x="408" y="78" type="curve" smooth="yes"/>
      <point x="407" y="103" type="line"/>
      <point x="424" y="103" type="line"/>
      <point x="424" y="69"/>
      <point x="443" y="52"/>
      <point x="481" y="52" type="curve" smooth="yes"/>
      <point x="633" y="52" type="line" smooth="yes"/>
      <point x="676" y="52"/>
      <point x="705" y="44"/>
      <point x="717" y="28" type="curve"/>
    </contour>
    <contour>
      <point x="288" y="193" type="curve"/>
      <point x="308" y="242" type="line"/>
      <point x="332" y="237"/>
      <point x="357" y="234"/>
      <point x="385" y="234" type="curve" smooth="yes"/>
      <point x="423" y="234"/>
      <point x="451" y="236"/>
      <point x="470" y="239" type="curve" smooth="yes"/>
      <point x="489" y="242" type="line"/>
      <point x="507" y="193" type="line"/>
      <point x="477" y="202"/>
      <point x="441" y="207"/>
      <point x="398" y="207" type="curve" smooth="yes"/>
      <point x="354" y="207"/>
      <point x="318" y="202"/>
    </contour>
    <contour>
      <point x="381" y="292" type="line"/>
      <point x="415" y="292" type="line"/>
      <point x="415" y="470" type="line"/>
      <point x="495" y="470" type="line"/>
      <point x="495" y="502" type="line"/>
      <point x="415" y="502" type="line"/>
      <point x="415" y="582" type="line"/>
      <point x="381" y="582" type="line"/>
      <point x="381" y="502" type="line"/>
      <point x="301" y="502" type="line"/>
      <point x="301" y="470" type="line"/>
      <point x="381" y="470" type="line"/>
    </contour>
    <contour>
      <point x="398" y="264" type="curve" smooth="yes"/>
      <point x="304" y="264"/>
      <point x="243" y="319"/>
      <point x="243" y="408" type="curve" smooth="yes"/>
      <point x="243" y="491"/>
      <point x="308" y="573"/>
      <point x="398" y="618" type="curve"/>
      <point x="486" y="574"/>
      <point x="553" y="492"/>
      <point x="553" y="408" type="curve" smooth="yes"/>
      <point x="553" y="318"/>
      <point x="497" y="264"/>
    </contour>
    <contour>
      <point x="398" y="656" type="curve" smooth="yes"/>
      <point x="382" y="656"/>
      <point x="369" y="669"/>
      <point x="369" y="685" type="curve" smooth="yes"/>
      <point x="369" y="700"/>
      <point x="382" y="713"/>
      <point x="398" y="713" type="curve" smooth="yes"/>
      <point x="413" y="713"/>
      <point x="426" y="700"/>
      <point x="426" y="685" type="curve" smooth="yes"/>
      <point x="426" y="669"/>
      <point x="413" y="656"/>
    </contour>
  </outline>
</glyph>
<glyph name="knightWhiteChess" format="2">
  <advance width="783"/>
  <unicode hex="2658"/>
  <note>
uni2658
</note>
  <outline>
    <contour>
      <point x="227" y="0" type="curve"/>
      <point x="731" y="0" type="line"/>
      <point x="731" y="9" type="line" smooth="yes"/>
      <point x="731" y="114"/>
      <point x="722" y="212"/>
      <point x="703" y="304" type="curve" smooth="yes"/>
      <point x="665" y="488"/>
      <point x="551" y="612"/>
      <point x="428" y="647" type="curve"/>
      <point x="428" y="698"/>
      <point x="402" y="745"/>
      <point x="362" y="767" type="curve"/>
      <point x="327" y="767" type="line"/>
      <point x="329" y="764"/>
      <point x="329" y="757"/>
      <point x="329" y="748" type="curve" smooth="yes"/>
      <point x="329" y="706"/>
      <point x="326" y="680"/>
      <point x="321" y="669" type="curve"/>
      <point x="315" y="668" type="line"/>
      <point x="308" y="701"/>
      <point x="286" y="725"/>
      <point x="251" y="738" type="curve"/>
      <point x="227" y="738" type="line"/>
      <point x="238" y="695"/>
      <point x="238" y="651"/>
      <point x="226" y="614" type="curve"/>
      <point x="170" y="583"/>
      <point x="163" y="563"/>
      <point x="147" y="505" type="curve" smooth="yes"/>
      <point x="139" y="476"/>
      <point x="129" y="454"/>
      <point x="118" y="440" type="curve" smooth="yes"/>
      <point x="107" y="426"/>
      <point x="94" y="402"/>
      <point x="82" y="367" type="curve" smooth="yes"/>
      <point x="70" y="333"/>
      <point x="60" y="306"/>
      <point x="51" y="289" type="curve"/>
      <point x="100" y="211" type="line" smooth="yes"/>
      <point x="109" y="197"/>
      <point x="130" y="190"/>
      <point x="165" y="190" type="curve" smooth="yes"/>
      <point x="181" y="190"/>
      <point x="199" y="203"/>
      <point x="219" y="229" type="curve" smooth="yes"/>
      <point x="239" y="256"/>
      <point x="257" y="274"/>
      <point x="273" y="285" type="curve"/>
      <point x="304" y="288"/>
      <point x="326" y="291"/>
      <point x="339" y="295" type="curve" smooth="yes"/>
      <point x="366" y="303"/>
      <point x="385" y="328"/>
      <point x="387" y="339" type="curve"/>
      <point x="391" y="339" type="line"/>
      <point x="391" y="306" type="line"/>
      <point x="388" y="289"/>
      <point x="369" y="262"/>
      <point x="334" y="227" type="curve" smooth="yes"/>
      <point x="298" y="191"/>
      <point x="276" y="166"/>
      <point x="266" y="152" type="curve" smooth="yes"/>
      <point x="246" y="124"/>
      <point x="227" y="65"/>
    </contour>
    <contour>
      <point x="149" y="279" type="curve"/>
      <point x="153" y="297"/>
      <point x="167" y="325"/>
      <point x="194" y="344" type="curve"/>
      <point x="190" y="349" type="line"/>
      <point x="153" y="347"/>
      <point x="129" y="329"/>
      <point x="122" y="301" type="curve"/>
      <point x="127" y="290"/>
      <point x="141" y="280"/>
    </contour>
    <contour>
      <point x="284" y="54" type="line"/>
      <point x="284" y="58" type="line" smooth="yes"/>
      <point x="284" y="114"/>
      <point x="329" y="160"/>
      <point x="370" y="206" type="curve" smooth="yes"/>
      <point x="411" y="252" type="line" smooth="yes"/>
      <point x="425" y="268"/>
      <point x="432" y="291"/>
      <point x="434" y="316" type="curve"/>
      <point x="419" y="370" type="line"/>
      <point x="372" y="370" type="line"/>
      <point x="371" y="360"/>
      <point x="358" y="342"/>
      <point x="339" y="335" type="curve" smooth="yes"/>
      <point x="320" y="328"/>
      <point x="265" y="317"/>
      <point x="260" y="317" type="curve"/>
      <point x="258" y="315"/>
      <point x="253" y="311"/>
      <point x="240" y="298" type="curve" smooth="yes"/>
      <point x="227" y="285"/>
      <point x="216" y="273"/>
      <point x="208" y="261" type="curve" smooth="yes"/>
      <point x="190" y="234"/>
      <point x="178" y="230"/>
      <point x="165" y="230" type="curve" smooth="yes"/>
      <point x="128" y="230"/>
      <point x="127" y="231"/>
      <point x="103" y="282" type="curve"/>
      <point x="94" y="296" type="line"/>
      <point x="101" y="308"/>
      <point x="110" y="332"/>
      <point x="123" y="366" type="curve" smooth="yes"/>
      <point x="136" y="400"/>
      <point x="147" y="422"/>
      <point x="155" y="431" type="curve" smooth="yes"/>
      <point x="164" y="441"/>
      <point x="171" y="453"/>
      <point x="176" y="469" type="curve" smooth="yes"/>
      <point x="193" y="522"/>
      <point x="201" y="545"/>
      <point x="221" y="562" type="curve" smooth="yes"/>
      <point x="233" y="572"/>
      <point x="242" y="579"/>
      <point x="246" y="582" type="curve" smooth="yes"/>
      <point x="255" y="589"/>
      <point x="265" y="623"/>
      <point x="265" y="662" type="curve" smooth="yes"/>
      <point x="265" y="677"/>
      <point x="264" y="689"/>
      <point x="261" y="700" type="curve"/>
      <point x="282" y="683"/>
      <point x="288" y="669"/>
      <point x="288" y="637" type="curve" smooth="yes"/>
      <point x="288" y="627" type="line"/>
      <point x="334" y="628" type="line"/>
      <point x="347" y="643"/>
      <point x="356" y="681"/>
      <point x="356" y="716" type="curve"/>
      <point x="355" y="733" type="line"/>
      <point x="375" y="713"/>
      <point x="385" y="689"/>
      <point x="385" y="662" type="curve" smooth="yes"/>
      <point x="385" y="651"/>
      <point x="384" y="640"/>
      <point x="382" y="627" type="curve"/>
      <point x="533" y="584"/>
      <point x="669" y="434"/>
      <point x="669" y="81" type="curve" smooth="yes"/>
      <point x="669" y="54" type="line"/>
    </contour>
    <contour>
      <point x="249" y="494" type="curve" smooth="yes"/>
      <point x="258" y="494"/>
      <point x="267" y="498"/>
      <point x="274" y="504" type="curve" smooth="yes"/>
      <point x="281" y="510"/>
      <point x="289" y="514"/>
      <point x="299" y="514" type="curve"/>
      <point x="307" y="513" type="line"/>
      <point x="307" y="522" type="line"/>
      <point x="279" y="530" type="line" smooth="yes"/>
      <point x="271" y="532"/>
      <point x="262" y="534"/>
      <point x="254" y="534" type="curve" smooth="yes"/>
      <point x="232" y="534"/>
      <point x="217" y="525"/>
      <point x="217" y="511" type="curve" smooth="yes"/>
      <point x="217" y="505" type="line"/>
      <point x="218" y="500" type="line"/>
      <point x="223" y="496"/>
      <point x="233" y="494"/>
    </contour>
    <contour>
      <point x="577" y="67" type="curve"/>
      <point x="643" y="67" type="line"/>
      <point x="643" y="146"/>
      <point x="637" y="220"/>
      <point x="624" y="291" type="curve" smooth="yes"/>
      <point x="598" y="432"/>
      <point x="530" y="515"/>
      <point x="468" y="554" type="curve"/>
      <point x="459" y="548" type="line"/>
      <point x="542" y="478"/>
      <point x="584" y="403"/>
      <point x="584" y="198" type="curve" smooth="yes"/>
      <point x="584" y="148"/>
      <point x="582" y="104"/>
    </contour>
  </outline>
</glyph>
<glyph name="pawnWhiteChess" format="2">
  <advance width="730"/>
  <unicode hex="2659"/>
  <note>
uni2659
</note>
  <outline>
    <contour>
      <point x="51" y="0" type="line"/>
      <point x="679" y="0" type="line"/>
      <point x="679" y="37" type="line" smooth="yes"/>
      <point x="679" y="192"/>
      <point x="603" y="319"/>
      <point x="479" y="360" type="curve"/>
      <point x="524" y="389"/>
      <point x="547" y="426"/>
      <point x="547" y="473" type="curve" smooth="yes"/>
      <point x="547" y="543"/>
      <point x="500" y="598"/>
      <point x="420" y="623" type="curve"/>
      <point x="447" y="632"/>
      <point x="466" y="657"/>
      <point x="466" y="688" type="curve" smooth="yes"/>
      <point x="466" y="729"/>
      <point x="426" y="755"/>
      <point x="365" y="755" type="curve" smooth="yes"/>
      <point x="303" y="755"/>
      <point x="264" y="729"/>
      <point x="264" y="688" type="curve" smooth="yes"/>
      <point x="264" y="657"/>
      <point x="282" y="633"/>
      <point x="310" y="623" type="curve"/>
      <point x="229" y="598"/>
      <point x="183" y="543"/>
      <point x="183" y="473" type="curve" smooth="yes"/>
      <point x="183" y="426"/>
      <point x="206" y="389"/>
      <point x="251" y="360" type="curve"/>
      <point x="129" y="319"/>
      <point x="51" y="193"/>
      <point x="51" y="37" type="curve" smooth="yes"/>
    </contour>
    <contour>
      <point x="111" y="55" type="line"/>
      <point x="111" y="184"/>
      <point x="190" y="297"/>
      <point x="315" y="338" type="curve"/>
      <point x="315" y="376" type="line"/>
      <point x="262" y="400"/>
      <point x="236" y="433"/>
      <point x="236" y="475" type="curve" smooth="yes"/>
      <point x="236" y="537"/>
      <point x="274" y="580"/>
      <point x="350" y="606" type="curve"/>
      <point x="350" y="637" type="line"/>
      <point x="321" y="649"/>
      <point x="307" y="667"/>
      <point x="307" y="688" type="curve" smooth="yes"/>
      <point x="307" y="709"/>
      <point x="329" y="727"/>
      <point x="365" y="727" type="curve" smooth="yes"/>
      <point x="401" y="727"/>
      <point x="423" y="709"/>
      <point x="423" y="688" type="curve" smooth="yes"/>
      <point x="423" y="667"/>
      <point x="409" y="649"/>
      <point x="380" y="637" type="curve"/>
      <point x="380" y="606" type="line"/>
      <point x="456" y="580"/>
      <point x="494" y="537"/>
      <point x="494" y="475" type="curve" smooth="yes"/>
      <point x="494" y="433"/>
      <point x="468" y="400"/>
      <point x="415" y="376" type="curve"/>
      <point x="415" y="338" type="line"/>
      <point x="540" y="297"/>
      <point x="619" y="184"/>
      <point x="619" y="55" type="curve"/>
    </contour>
  </outline>
</glyph>
<glyph name="kingBlackChess" format="2">
  <advance width="696"/>
  <unicode hex="265A"/>
  <note>
uni265A
</note>
  <outline>
    <contour>
      <point x="348" y="-34" type="curve" smooth="yes"/>
      <point x="410" y="-34"/>
      <point x="458" y="-29"/>
      <point x="495" y="-19" type="curve" smooth="yes"/>
      <point x="531" y="-9"/>
      <point x="549" y="6"/>
      <point x="549" y="24" type="curve"/>
      <point x="535" y="227" type="line"/>
      <point x="616" y="314"/>
      <point x="645" y="379"/>
      <point x="645" y="436" type="curve" smooth="yes"/>
      <point x="645" y="520"/>
      <point x="599" y="573"/>
      <point x="523" y="573" type="curve" smooth="yes"/>
      <point x="478" y="573"/>
      <point x="440" y="557"/>
      <point x="409" y="525" type="curve"/>
      <point x="413" y="589" type="line"/>
      <point x="413" y="616"/>
      <point x="397" y="631"/>
      <point x="365" y="636" type="curve"/>
      <point x="365" y="696" type="line"/>
      <point x="406" y="696" type="line"/>
      <point x="406" y="716" type="line"/>
      <point x="365" y="716" type="line"/>
      <point x="365" y="753" type="line"/>
      <point x="331" y="753" type="line"/>
      <point x="331" y="716" type="line"/>
      <point x="290" y="716" type="line"/>
      <point x="290" y="696" type="line"/>
      <point x="331" y="696" type="line"/>
      <point x="331" y="636" type="line"/>
      <point x="299" y="631"/>
      <point x="283" y="616"/>
      <point x="283" y="591" type="curve"/>
      <point x="287" y="525" type="line"/>
      <point x="255" y="557"/>
      <point x="217" y="573"/>
      <point x="173" y="573" type="curve" smooth="yes"/>
      <point x="97" y="573"/>
      <point x="51" y="520"/>
      <point x="51" y="436" type="curve" smooth="yes"/>
      <point x="51" y="375"/>
      <point x="87" y="305"/>
      <point x="161" y="227" type="curve"/>
      <point x="147" y="24" type="line"/>
      <point x="147" y="6"/>
      <point x="165" y="-8"/>
      <point x="201" y="-18" type="curve" smooth="yes"/>
      <point x="237" y="-28"/>
      <point x="286" y="-34"/>
    </contour>
    <contour>
      <point x="194" y="72" type="curve"/>
      <point x="196" y="98" type="line"/>
      <point x="233" y="108"/>
      <point x="295" y="118"/>
      <point x="348" y="118" type="curve" smooth="yes"/>
      <point x="401" y="118"/>
      <point x="462" y="109"/>
      <point x="500" y="98" type="curve"/>
      <point x="503" y="72" type="line"/>
      <point x="467" y="84"/>
      <point x="416" y="90"/>
      <point x="348" y="90" type="curve" smooth="yes"/>
      <point x="281" y="90"/>
      <point x="229" y="84"/>
    </contour>
    <contour>
      <point x="201" y="149" type="curve"/>
      <point x="203" y="177" type="line"/>
      <point x="246" y="188"/>
      <point x="294" y="194"/>
      <point x="348" y="194" type="curve" smooth="yes"/>
      <point x="401" y="194"/>
      <point x="450" y="188"/>
      <point x="494" y="177" type="curve"/>
      <point x="496" y="149" type="line"/>
      <point x="473" y="157"/>
      <point x="403" y="166"/>
      <point x="348" y="166" type="curve" smooth="yes"/>
      <point x="289" y="166"/>
      <point x="221" y="157"/>
    </contour>
    <contour>
      <point x="195" y="247" type="curve"/>
      <point x="138" y="306"/>
      <point x="96" y="380"/>
      <point x="96" y="431" type="curve" smooth="yes"/>
      <point x="96" y="494"/>
      <point x="125" y="531"/>
      <point x="175" y="531" type="curve" smooth="yes"/>
      <point x="260" y="531"/>
      <point x="327" y="410"/>
      <point x="327" y="294" type="curve" smooth="yes"/>
      <point x="327" y="262" type="line"/>
      <point x="290" y="262"/>
      <point x="245" y="257"/>
    </contour>
    <contour>
      <point x="199" y="279" type="curve"/>
      <point x="244" y="286"/>
      <point x="278" y="290"/>
      <point x="302" y="290" type="curve"/>
      <point x="302" y="295" type="line" smooth="yes"/>
      <point x="302" y="394"/>
      <point x="250" y="499"/>
      <point x="185" y="499" type="curve" smooth="yes"/>
      <point x="146" y="499"/>
      <point x="127" y="469"/>
      <point x="127" y="422" type="curve" smooth="yes"/>
      <point x="127" y="383"/>
      <point x="151" y="335"/>
    </contour>
    <contour>
      <point x="348" y="422" type="curve"/>
      <point x="338" y="448"/>
      <point x="329" y="468"/>
      <point x="320" y="483" type="curve"/>
      <point x="320" y="578" type="line" smooth="yes"/>
      <point x="320" y="600"/>
      <point x="329" y="611"/>
      <point x="348" y="611" type="curve" smooth="yes"/>
      <point x="366" y="611"/>
      <point x="376" y="602"/>
      <point x="376" y="578" type="curve" smooth="yes"/>
      <point x="376" y="483" type="line"/>
      <point x="366" y="468"/>
      <point x="356" y="447"/>
    </contour>
    <contour>
      <point x="348" y="448" type="curve"/>
      <point x="350" y="456"/>
      <point x="352" y="464"/>
      <point x="354" y="472" type="curve" smooth="yes"/>
      <point x="356" y="479"/>
      <point x="357" y="486"/>
      <point x="360" y="491" type="curve"/>
      <point x="360" y="562" type="line" smooth="yes"/>
      <point x="360" y="577"/>
      <point x="356" y="585"/>
      <point x="348" y="585" type="curve" smooth="yes"/>
      <point x="336" y="585"/>
      <point x="335" y="572"/>
      <point x="335" y="562" type="curve" smooth="yes"/>
      <point x="335" y="491" type="line"/>
      <point x="337" y="486"/>
      <point x="340" y="479"/>
      <point x="342" y="472" type="curve"/>
      <point x="343" y="464"/>
      <point x="346" y="456"/>
    </contour>
    <contour>
      <point x="501" y="247" type="curve"/>
      <point x="458" y="255"/>
      <point x="401" y="262"/>
      <point x="369" y="262" type="curve"/>
      <point x="369" y="298" type="line" smooth="yes"/>
      <point x="369" y="408"/>
      <point x="435" y="531"/>
      <point x="521" y="531" type="curve" smooth="yes"/>
      <point x="573" y="531"/>
      <point x="600" y="491"/>
      <point x="600" y="431" type="curve" smooth="yes"/>
      <point x="600" y="380"/>
      <point x="560" y="308"/>
    </contour>
    <contour>
      <point x="497" y="279" type="curve"/>
      <point x="544" y="334"/>
      <point x="569" y="385"/>
      <point x="569" y="422" type="curve" smooth="yes"/>
      <point x="569" y="469"/>
      <point x="549" y="499"/>
      <point x="511" y="499" type="curve" smooth="yes"/>
      <point x="446" y="499"/>
      <point x="394" y="391"/>
      <point x="394" y="295" type="curve" smooth="yes"/>
      <point x="394" y="290" type="line"/>
      <point x="418" y="290"/>
      <point x="452" y="286"/>
    </contour>
  </outline>
</glyph>
<glyph name="queenBlackChess" format="2">
  <advance width="852"/>
  <unicode hex="265B"/>
  <note>
uni265B
</note>
  <outline>
    <contour>
      <point x="426" y="-34" type="curve" smooth="yes"/>
      <point x="488" y="-34"/>
      <point x="537" y="-29"/>
      <point x="573" y="-19" type="curve" smooth="yes"/>
      <point x="609" y="-9"/>
      <point x="627" y="6"/>
      <point x="627" y="24" type="curve"/>
      <point x="624" y="239" type="line"/>
      <point x="716" y="518" type="line"/>
      <point x="720" y="517"/>
      <point x="726" y="516"/>
      <point x="734" y="516" type="curve" smooth="yes"/>
      <point x="771" y="516"/>
      <point x="801" y="544"/>
      <point x="801" y="586" type="curve" smooth="yes"/>
      <point x="801" y="623"/>
      <point x="771" y="652"/>
      <point x="733" y="652" type="curve" smooth="yes"/>
      <point x="694" y="652"/>
      <point x="665" y="623"/>
      <point x="665" y="584" type="curve" smooth="yes"/>
      <point x="665" y="562"/>
      <point x="677" y="538"/>
      <point x="695" y="527" type="curve"/>
      <point x="564" y="306" type="line"/>
      <point x="593" y="598" type="line"/>
      <point x="595" y="598" type="line" smooth="yes"/>
      <point x="630" y="598"/>
      <point x="662" y="629"/>
      <point x="662" y="666" type="curve" smooth="yes"/>
      <point x="662" y="703"/>
      <point x="633" y="735"/>
      <point x="595" y="735" type="curve" smooth="yes"/>
      <point x="558" y="735"/>
      <point x="526" y="706"/>
      <point x="526" y="667" type="curve" smooth="yes"/>
      <point x="526" y="638"/>
      <point x="542" y="613"/>
      <point x="570" y="603" type="curve"/>
      <point x="476" y="318" type="line"/>
      <point x="438" y="632" type="line"/>
      <point x="469" y="637"/>
      <point x="494" y="664"/>
      <point x="494" y="699" type="curve" smooth="yes"/>
      <point x="494" y="738"/>
      <point x="463" y="767"/>
      <point x="426" y="767" type="curve" smooth="yes"/>
      <point x="388" y="767"/>
      <point x="358" y="737"/>
      <point x="358" y="699" type="curve" smooth="yes"/>
      <point x="358" y="664"/>
      <point x="383" y="637"/>
      <point x="414" y="632" type="curve"/>
      <point x="376" y="318" type="line"/>
      <point x="282" y="603" type="line"/>
      <point x="310" y="613"/>
      <point x="326" y="638"/>
      <point x="326" y="667" type="curve" smooth="yes"/>
      <point x="326" y="706"/>
      <point x="294" y="735"/>
      <point x="257" y="735" type="curve" smooth="yes"/>
      <point x="219" y="735"/>
      <point x="190" y="703"/>
      <point x="190" y="666" type="curve" smooth="yes"/>
      <point x="190" y="628"/>
      <point x="222" y="598"/>
      <point x="257" y="598" type="curve" smooth="yes"/>
      <point x="259" y="598" type="line"/>
      <point x="288" y="306" type="line"/>
      <point x="157" y="527" type="line"/>
      <point x="175" y="538"/>
      <point x="187" y="562"/>
      <point x="187" y="584" type="curve" smooth="yes"/>
      <point x="187" y="623"/>
      <point x="158" y="652"/>
      <point x="119" y="652" type="curve" smooth="yes"/>
      <point x="82" y="652"/>
      <point x="51" y="623"/>
      <point x="51" y="586" type="curve" smooth="yes"/>
      <point x="51" y="545"/>
      <point x="80" y="516"/>
      <point x="118" y="516" type="curve" smooth="yes"/>
      <point x="126" y="516"/>
      <point x="132" y="517"/>
      <point x="136" y="518" type="curve"/>
      <point x="228" y="239" type="line"/>
      <point x="225" y="24" type="line" smooth="yes"/>
      <point x="225" y="6"/>
      <point x="243" y="-8"/>
      <point x="279" y="-18" type="curve" smooth="yes"/>
      <point x="315" y="-28"/>
      <point x="364" y="-34"/>
    </contour>
    <contour>
      <point x="258" y="56" type="curve"/>
      <point x="258" y="72" type="line"/>
      <point x="282" y="82"/>
      <point x="370" y="92"/>
      <point x="426" y="92" type="curve" smooth="yes"/>
      <point x="484" y="92"/>
      <point x="571" y="82"/>
      <point x="595" y="72" type="curve"/>
      <point x="595" y="56" type="line"/>
      <point x="560" y="68"/>
      <point x="490" y="74"/>
      <point x="426" y="74" type="curve" smooth="yes"/>
      <point x="361" y="74"/>
      <point x="294" y="68"/>
    </contour>
    <contour>
      <point x="259" y="114" type="curve"/>
      <point x="259" y="132" type="line"/>
      <point x="283" y="142"/>
      <point x="371" y="152"/>
      <point x="426" y="152" type="curve" smooth="yes"/>
      <point x="482" y="152"/>
      <point x="571" y="141"/>
      <point x="594" y="132" type="curve"/>
      <point x="594" y="114" type="line"/>
      <point x="551" y="127"/>
      <point x="482" y="134"/>
      <point x="426" y="134" type="curve" smooth="yes"/>
      <point x="356" y="134"/>
      <point x="300" y="127"/>
    </contour>
    <contour>
      <point x="260" y="174" type="curve"/>
      <point x="260" y="192" type="line"/>
      <point x="283" y="201"/>
      <point x="369" y="212"/>
      <point x="426" y="212" type="curve" smooth="yes"/>
      <point x="480" y="212"/>
      <point x="569" y="202"/>
      <point x="593" y="192" type="curve"/>
      <point x="593" y="174" type="line"/>
      <point x="552" y="188"/>
      <point x="484" y="194"/>
      <point x="426" y="194" type="curve" smooth="yes"/>
      <point x="357" y="194"/>
      <point x="301" y="187"/>
    </contour>
    <contour>
      <point x="101" y="568" type="curve" smooth="yes"/>
      <point x="87" y="568"/>
      <point x="76" y="579"/>
      <point x="76" y="593" type="curve" smooth="yes"/>
      <point x="76" y="607"/>
      <point x="87" y="618"/>
      <point x="101" y="618" type="curve" smooth="yes"/>
      <point x="115" y="618"/>
      <point x="126" y="607"/>
      <point x="126" y="593" type="curve" smooth="yes"/>
      <point x="126" y="579"/>
      <point x="115" y="568"/>
    </contour>
    <contour>
      <point x="241" y="649" type="curve" smooth="yes"/>
      <point x="227" y="649"/>
      <point x="216" y="660"/>
      <point x="216" y="674" type="curve" smooth="yes"/>
      <point x="216" y="688"/>
      <point x="227" y="699"/>
      <point x="241" y="699" type="curve" smooth="yes"/>
      <point x="255" y="699"/>
      <point x="266" y="688"/>
      <point x="266" y="674" type="curve" smooth="yes"/>
      <point x="266" y="660"/>
      <point x="255" y="649"/>
    </contour>
    <contour>
      <point x="408" y="681" type="curve" smooth="yes"/>
      <point x="394" y="681"/>
      <point x="383" y="692"/>
      <point x="383" y="706" type="curve" smooth="yes"/>
      <point x="383" y="720"/>
      <point x="394" y="731"/>
      <point x="408" y="731" type="curve" smooth="yes"/>
      <point x="422" y="731"/>
      <point x="433" y="720"/>
      <point x="433" y="706" type="curve" smooth="yes"/>
      <point x="433" y="692"/>
      <point x="422" y="681"/>
    </contour>
    <contour>
      <point x="576" y="649" type="curve" smooth="yes"/>
      <point x="562" y="649"/>
      <point x="551" y="660"/>
      <point x="551" y="674" type="curve" smooth="yes"/>
      <point x="551" y="688"/>
      <point x="562" y="699"/>
      <point x="576" y="699" type="curve" smooth="yes"/>
      <point x="590" y="699"/>
      <point x="601" y="688"/>
      <point x="601" y="674" type="curve" smooth="yes"/>
      <point x="601" y="660"/>
      <point x="590" y="649"/>
    </contour>
    <contour>
      <point x="715" y="568" type="curve" smooth="yes"/>
      <point x="701" y="568"/>
      <point x="690" y="579"/>
      <point x="690" y="593" type="curve" smooth="yes"/>
      <point x="690" y="607"/>
      <point x="701" y="618"/>
      <point x="715" y="618" type="curve" smooth="yes"/>
      <point x="729" y="618"/>
      <point x="740" y="607"/>
      <point x="740" y="593" type="curve" smooth="yes"/>
      <point x="740" y="579"/>
      <point x="729" y="568"/>
    </contour>
  </outline>
</glyph>
<glyph name="rookBlackChess" format="2">
  <advance width="751"/>
  <unicode hex="265C"/>
  <note>
uni265C
</note>
  <outline>
    <contour>
      <point x="51" y="0" type="line"/>
      <point x="700" y="0" type="line"/>
      <point x="700" y="91" type="line"/>
      <point x="640" y="91" type="line"/>
      <point x="640" y="159" type="line"/>
      <point x="597" y="159" type="line"/>
      <point x="560" y="227" type="line"/>
      <point x="560" y="531" type="line"/>
      <point x="597" y="599" type="line"/>
      <point x="640" y="599" type="line"/>
      <point x="640" y="719" type="line"/>
      <point x="516" y="719" type="line"/>
      <point x="516" y="690" type="line"/>
      <point x="456" y="690" type="line"/>
      <point x="456" y="715" type="line"/>
      <point x="295" y="715" type="line"/>
      <point x="295" y="690" type="line"/>
      <point x="235" y="690" type="line"/>
      <point x="235" y="719" type="line"/>
      <point x="111" y="719" type="line"/>
      <point x="111" y="599" type="line"/>
      <point x="153" y="599" type="line"/>
      <point x="191" y="531" type="line"/>
      <point x="191" y="227" type="line"/>
      <point x="153" y="159" type="line"/>
      <point x="111" y="159" type="line"/>
      <point x="111" y="91" type="line"/>
      <point x="51" y="91" type="line"/>
    </contour>
    <contour>
      <point x="81" y="33" type="line"/>
      <point x="81" y="54" type="line"/>
      <point x="670" y="54" type="line"/>
      <point x="670" y="33" type="line"/>
    </contour>
    <contour>
      <point x="141" y="101" type="line"/>
      <point x="141" y="122" type="line"/>
      <point x="610" y="122" type="line"/>
      <point x="610" y="101" type="line"/>
    </contour>
    <contour>
      <point x="186" y="169" type="line"/>
      <point x="198" y="190" type="line"/>
      <point x="553" y="190" type="line"/>
      <point x="565" y="169" type="line"/>
    </contour>
    <contour>
      <point x="201" y="564" type="line"/>
      <point x="189" y="585" type="line"/>
      <point x="562" y="585" type="line"/>
      <point x="550" y="564" type="line"/>
    </contour>
    <contour>
      <point x="141" y="622" type="line"/>
      <point x="141" y="643" type="line"/>
      <point x="610" y="643" type="line"/>
      <point x="610" y="622" type="line"/>
    </contour>
  </outline>
</glyph>
<glyph name="bishopBlackChess" format="2">
  <advance width="796"/>
  <unicode hex="265D"/>
  <note>
uni265D
</note>
  <outline>
    <contour>
      <point x="51" y="-49" type="line"/>
      <point x="76" y="-49" type="line"/>
      <point x="81" y="-20"/>
      <point x="106" y="-6"/>
      <point x="152" y="-6" type="curve" smooth="yes"/>
      <point x="339" y="-6" type="line" smooth="yes"/>
      <point x="368" y="-6"/>
      <point x="388" y="3"/>
      <point x="398" y="21" type="curve"/>
      <point x="407" y="3"/>
      <point x="427" y="-6"/>
      <point x="457" y="-6" type="curve" smooth="yes"/>
      <point x="644" y="-6" type="line" smooth="yes"/>
      <point x="690" y="-6"/>
      <point x="716" y="-20"/>
      <point x="720" y="-49" type="curve"/>
      <point x="745" y="-49" type="line"/>
      <point x="745" y="48" type="line"/>
      <point x="724" y="67"/>
      <point x="683" y="81"/>
      <point x="636" y="81" type="curve" smooth="yes"/>
      <point x="495" y="81" type="line" smooth="yes"/>
      <point x="476" y="81"/>
      <point x="463" y="83"/>
      <point x="456" y="85" type="curve" smooth="yes"/>
      <point x="449" y="87"/>
      <point x="445" y="94"/>
      <point x="445" y="101" type="curve"/>
      <point x="445" y="104" type="line"/>
      <point x="481" y="106"/>
      <point x="510" y="112"/>
      <point x="531" y="120" type="curve" smooth="yes"/>
      <point x="551" y="128"/>
      <point x="561" y="139"/>
      <point x="561" y="153" type="curve" smooth="yes"/>
      <point x="561" y="157"/>
      <point x="559" y="161"/>
      <point x="558" y="165" type="curve"/>
      <point x="522" y="256" type="line"/>
      <point x="567" y="285"/>
      <point x="598" y="339"/>
      <point x="598" y="407" type="curve" smooth="yes"/>
      <point x="598" y="493"/>
      <point x="533" y="576"/>
      <point x="426" y="636" type="curve"/>
      <point x="443" y="646"/>
      <point x="454" y="664"/>
      <point x="454" y="685" type="curve" smooth="yes"/>
      <point x="454" y="715"/>
      <point x="430" y="741"/>
      <point x="398" y="741" type="curve" smooth="yes"/>
      <point x="367" y="741"/>
      <point x="342" y="716"/>
      <point x="342" y="685" type="curve" smooth="yes"/>
      <point x="342" y="664"/>
      <point x="353" y="646"/>
      <point x="370" y="636" type="curve"/>
      <point x="263" y="576"/>
      <point x="198" y="493"/>
      <point x="198" y="407" type="curve" smooth="yes"/>
      <point x="198" y="344"/>
      <point x="227" y="284"/>
      <point x="274" y="255" type="curve"/>
      <point x="239" y="165" type="line"/>
      <point x="237" y="161"/>
      <point x="236" y="157"/>
      <point x="236" y="153" type="curve" smooth="yes"/>
      <point x="236" y="126"/>
      <point x="274" y="109"/>
      <point x="351" y="104" type="curve"/>
      <point x="351" y="101" type="line"/>
      <point x="351" y="94"/>
      <point x="347" y="88"/>
      <point x="340" y="85" type="curve" smooth="yes"/>
      <point x="333" y="82"/>
      <point x="320" y="81"/>
      <point x="301" y="81" type="curve" smooth="yes"/>
      <point x="160" y="81" type="line" smooth="yes"/>
      <point x="113" y="81"/>
      <point x="72" y="67"/>
      <point x="51" y="48" type="curve"/>
    </contour>
    <contour>
      <point x="78" y="1" type="curve"/>
      <point x="79" y="23" type="line"/>
      <point x="91" y="39"/>
      <point x="120" y="47"/>
      <point x="163" y="47" type="curve" smooth="yes"/>
      <point x="315" y="47" type="line" smooth="yes"/>
      <point x="350" y="47"/>
      <point x="372" y="66"/>
      <point x="372" y="103" type="curve"/>
      <point x="379" y="103" type="line"/>
      <point x="378" y="78" type="line" smooth="yes"/>
      <point x="377" y="46"/>
      <point x="358" y="28"/>
      <point x="328" y="28" type="curve" smooth="yes"/>
      <point x="164" y="28" type="line" smooth="yes"/>
      <point x="123" y="28"/>
      <point x="91" y="17"/>
    </contour>
    <contour>
      <point x="398" y="136" type="curve" smooth="yes"/>
      <point x="361" y="136"/>
      <point x="335" y="138"/>
      <point x="318" y="141" type="curve" smooth="yes"/>
      <point x="301" y="144"/>
      <point x="292" y="148"/>
      <point x="292" y="153" type="curve" smooth="yes"/>
      <point x="292" y="158"/>
      <point x="301" y="162"/>
      <point x="320" y="166" type="curve" smooth="yes"/>
      <point x="339" y="170"/>
      <point x="365" y="171"/>
      <point x="398" y="171" type="curve" smooth="yes"/>
      <point x="430" y="171"/>
      <point x="456" y="169"/>
      <point x="475" y="166" type="curve" smooth="yes"/>
      <point x="494" y="163"/>
      <point x="504" y="158"/>
      <point x="504" y="153" type="curve" smooth="yes"/>
      <point x="504" y="148"/>
      <point x="495" y="145"/>
      <point x="478" y="141" type="curve" smooth="yes"/>
      <point x="460" y="137"/>
      <point x="434" y="136"/>
    </contour>
    <contour>
      <point x="301" y="193" type="curve"/>
      <point x="316" y="230" type="line"/>
      <point x="345" y="225"/>
      <point x="370" y="222"/>
      <point x="389" y="222" type="curve" smooth="yes"/>
      <point x="407" y="222" type="line" smooth="yes"/>
      <point x="426" y="222"/>
      <point x="451" y="225"/>
      <point x="480" y="230" type="curve"/>
      <point x="495" y="193" type="line"/>
      <point x="475" y="200"/>
      <point x="442" y="203"/>
      <point x="398" y="203" type="curve" smooth="yes"/>
      <point x="354" y="203"/>
      <point x="321" y="200"/>
    </contour>
    <contour>
      <point x="718" y="1" type="line"/>
      <point x="705" y="17"/>
      <point x="673" y="28"/>
      <point x="632" y="28" type="curve" smooth="yes"/>
      <point x="468" y="28" type="line" smooth="yes"/>
      <point x="438" y="28"/>
      <point x="419" y="47"/>
      <point x="418" y="78" type="curve" smooth="yes"/>
      <point x="417" y="103" type="line"/>
      <point x="424" y="103" type="line"/>
      <point x="424" y="66"/>
      <point x="446" y="47"/>
      <point x="481" y="47" type="curve" smooth="yes"/>
      <point x="633" y="47" type="line" smooth="yes"/>
      <point x="676" y="47"/>
      <point x="705" y="39"/>
      <point x="717" y="23" type="curve"/>
    </contour>
    <contour>
      <point x="381" y="292" type="line"/>
      <point x="381" y="470" type="line"/>
      <point x="301" y="470" type="line"/>
      <point x="301" y="502" type="line"/>
      <point x="381" y="502" type="line"/>
      <point x="381" y="582" type="line"/>
      <point x="415" y="582" type="line"/>
      <point x="415" y="502" type="line"/>
      <point x="495" y="502" type="line"/>
      <point x="495" y="470" type="line"/>
      <point x="415" y="470" type="line"/>
      <point x="415" y="292" type="line"/>
    </contour>
    <contour>
      <point x="398" y="656" type="curve" smooth="yes"/>
      <point x="382" y="656"/>
      <point x="369" y="669"/>
      <point x="369" y="685" type="curve" smooth="yes"/>
      <point x="369" y="700"/>
      <point x="382" y="713"/>
      <point x="398" y="713" type="curve" smooth="yes"/>
      <point x="413" y="713"/>
      <point x="426" y="700"/>
      <point x="426" y="685" type="curve" smooth="yes"/>
      <point x="426" y="669"/>
      <point x="413" y="656"/>
    </contour>
  </outline>
</glyph>
<glyph name="knightBlackChess" format="2">
  <advance width="783"/>
  <unicode hex="265E"/>
  <note>
uni265E
</note>
  <outline>
    <contour>
      <point x="227" y="0" type="curve"/>
      <point x="731" y="0" type="line"/>
      <point x="731" y="9" type="line" smooth="yes"/>
      <point x="731" y="114"/>
      <point x="722" y="212"/>
      <point x="703" y="304" type="curve" smooth="yes"/>
      <point x="665" y="488"/>
      <point x="551" y="612"/>
      <point x="428" y="647" type="curve"/>
      <point x="428" y="698"/>
      <point x="402" y="745"/>
      <point x="362" y="767" type="curve"/>
      <point x="327" y="767" type="line"/>
      <point x="329" y="764"/>
      <point x="329" y="757"/>
      <point x="329" y="748" type="curve" smooth="yes"/>
      <point x="329" y="706"/>
      <point x="326" y="680"/>
      <point x="321" y="669" type="curve"/>
      <point x="315" y="668" type="line"/>
      <point x="308" y="701"/>
      <point x="286" y="725"/>
      <point x="251" y="738" type="curve"/>
      <point x="227" y="738" type="line"/>
      <point x="238" y="695"/>
      <point x="238" y="651"/>
      <point x="226" y="614" type="curve"/>
      <point x="170" y="583"/>
      <point x="163" y="563"/>
      <point x="147" y="505" type="curve" smooth="yes"/>
      <point x="139" y="476"/>
      <point x="129" y="454"/>
      <point x="118" y="440" type="curve" smooth="yes"/>
      <point x="106" y="425"/>
      <point x="94" y="402"/>
      <point x="82" y="367" type="curve" smooth="yes"/>
      <point x="70" y="333"/>
      <point x="60" y="306"/>
      <point x="51" y="289" type="curve"/>
      <point x="100" y="211" type="line" smooth="yes"/>
      <point x="109" y="197"/>
      <point x="130" y="190"/>
      <point x="165" y="190" type="curve" smooth="yes"/>
      <point x="181" y="190"/>
      <point x="199" y="203"/>
      <point x="219" y="229" type="curve" smooth="yes"/>
      <point x="239" y="256"/>
      <point x="257" y="274"/>
      <point x="273" y="285" type="curve"/>
      <point x="304" y="288"/>
      <point x="326" y="291"/>
      <point x="339" y="295" type="curve" smooth="yes"/>
      <point x="366" y="303"/>
      <point x="385" y="328"/>
      <point x="387" y="339" type="curve"/>
      <point x="391" y="339" type="line"/>
      <point x="391" y="306" type="line"/>
      <point x="388" y="289"/>
      <point x="368" y="263"/>
      <point x="334" y="227" type="curve" smooth="yes"/>
      <point x="299" y="189"/>
      <point x="277" y="165"/>
      <point x="266" y="152" type="curve" smooth="yes"/>
      <point x="245" y="126"/>
      <point x="227" y="65"/>
    </contour>
    <contour>
      <point x="149" y="279" type="curve"/>
      <point x="141" y="280"/>
      <point x="127" y="290"/>
      <point x="122" y="301" type="curve"/>
      <point x="129" y="328"/>
      <point x="153" y="347"/>
      <point x="190" y="349" type="curve"/>
      <point x="194" y="344" type="line"/>
      <point x="167" y="325"/>
      <point x="153" y="297"/>
    </contour>
    <contour>
      <point x="249" y="494" type="curve" smooth="yes"/>
      <point x="233" y="494"/>
      <point x="223" y="496"/>
      <point x="218" y="500" type="curve"/>
      <point x="217" y="505" type="line"/>
      <point x="217" y="511" type="line" smooth="yes"/>
      <point x="217" y="525"/>
      <point x="232" y="534"/>
      <point x="254" y="534" type="curve" smooth="yes"/>
      <point x="262" y="534"/>
      <point x="271" y="533"/>
      <point x="279" y="530" type="curve" smooth="yes"/>
      <point x="307" y="522" type="line"/>
      <point x="307" y="513" type="line"/>
      <point x="299" y="514" type="line"/>
      <point x="289" y="514"/>
      <point x="281" y="510"/>
      <point x="274" y="504" type="curve" smooth="yes"/>
      <point x="267" y="498"/>
      <point x="258" y="494"/>
    </contour>
    <contour>
      <point x="597" y="67" type="line"/>
      <point x="602" y="104"/>
      <point x="604" y="148"/>
      <point x="604" y="198" type="curve" smooth="yes"/>
      <point x="604" y="401"/>
      <point x="562" y="477"/>
      <point x="479" y="548" type="curve"/>
      <point x="488" y="554" type="line"/>
      <point x="520" y="534"/>
      <point x="550" y="502"/>
      <point x="580" y="459" type="curve" smooth="yes"/>
      <point x="640" y="374"/>
      <point x="663" y="223"/>
      <point x="663" y="67" type="curve"/>
    </contour>
  </outline>
</glyph>
<glyph name="pawnBlackChess" format="2">
  <advance width="730"/>
  <unicode hex="265F"/>
  <note>
uni265F
</note>
  <outline>
    <contour>
      <point x="51" y="0" type="line"/>
      <point x="679" y="0" type="line"/>
      <point x="679" y="37" type="line" smooth="yes"/>
      <point x="679" y="192"/>
      <point x="603" y="319"/>
      <point x="479" y="360" type="curve"/>
      <point x="524" y="389"/>
      <point x="547" y="426"/>
      <point x="547" y="473" type="curve" smooth="yes"/>
      <point x="547" y="543"/>
      <point x="500" y="598"/>
      <point x="420" y="623" type="curve"/>
      <point x="447" y="632"/>
      <point x="466" y="657"/>
      <point x="466" y="688" type="curve" smooth="yes"/>
      <point x="466" y="729"/>
      <point x="426" y="755"/>
      <point x="365" y="755" type="curve" smooth="yes"/>
      <point x="303" y="755"/>
      <point x="264" y="729"/>
      <point x="264" y="688" type="curve" smooth="yes"/>
      <point x="264" y="657"/>
      <point x="282" y="633"/>
      <point x="310" y="623" type="curve"/>
      <point x="229" y="598"/>
      <point x="183" y="543"/>
      <point x="183" y="473" type="curve" smooth="yes"/>
      <point x="183" y="426"/>
      <point x="206" y="389"/>
      <point x="251" y="360" type="curve"/>
      <point x="129" y="319"/>
      <point x="51" y="193"/>
      <point x="51" y="37" type="curve" smooth="yes"/>
    </contour>
    <contour>
      <point x="103" y="62" type="line"/>
      <point x="103" y="86" type="line" smooth="yes"/>
      <point x="103" y="187"/>
      <point x="153" y="271"/>
      <point x="235" y="298" type="curve"/>
      <point x="176" y="255"/>
      <point x="141" y="189"/>
      <point x="137" y="76" type="curve" smooth="yes"/>
      <point x="137" y="62" type="line"/>
    </contour>
    <contour>
      <point x="271" y="396" type="curve"/>
      <point x="245" y="405"/>
      <point x="220" y="440"/>
      <point x="220" y="478" type="curve" smooth="yes"/>
      <point x="220" y="536"/>
      <point x="269" y="583"/>
      <point x="304" y="585" type="curve"/>
      <point x="263" y="559"/>
      <point x="245" y="525"/>
      <point x="245" y="479" type="curve" smooth="yes"/>
      <point x="245" y="442"/>
      <point x="253" y="421"/>
    </contour>
    <contour>
      <point x="310" y="644" type="curve"/>
      <point x="298" y="646"/>
      <point x="285" y="664"/>
      <point x="285" y="683" type="curve" smooth="yes"/>
      <point x="285" y="711"/>
      <point x="311" y="733"/>
      <point x="326" y="733" type="curve"/>
      <point x="307" y="721"/>
      <point x="297" y="705"/>
      <point x="297" y="684" type="curve" smooth="yes"/>
      <point x="297" y="665"/>
      <point x="301" y="651"/>
    </contour>
  </outline>
</glyph>
<glyph name="monogramForYang" format="2">
  <advance width="940"/>
  <unicode hex="268A"/>
  <note>
uni268A
</note>
  <outline>
    <contour>
      <point x="98" y="295" type="line"/>
      <point x="842" y="295" type="line"/>
      <point x="842" y="406" type="line"/>
      <point x="98" y="406" type="line"/>
    </contour>
  </outline>
</glyph>
<glyph name="monogramForYin" format="2">
  <advance width="940"/>
  <unicode hex="268B"/>
  <note>
uni268B
</note>
  <outline>
    <contour>
      <point x="546" y="295" type="line"/>
      <point x="842" y="295" type="line"/>
      <point x="842" y="406" type="line"/>
      <point x="546" y="406" type="line"/>
    </contour>
    <contour>
      <point x="98" y="295" type="line"/>
      <point x="394" y="295" type="line"/>
      <point x="394" y="406" type="line"/>
      <point x="98" y="406" type="line"/>
    </contour>
  </outline>
</glyph>
<glyph name="mediumWhiteCircle" format="2">
  <advance width="772"/>
  <unicode hex="26AA"/>
  <note>
uni26AA
</note>
  <outline>
    <contour>
      <point x="386" y="27" type="curve" smooth="yes"/>
      <point x="571" y="27"/>
      <point x="721" y="177"/>
      <point x="721" y="362" type="curve" smooth="yes"/>
      <point x="721" y="547"/>
      <point x="571" y="697"/>
      <point x="386" y="697" type="curve" smooth="yes"/>
      <point x="201" y="697"/>
      <point x="51" y="547"/>
      <point x="51" y="362" type="curve" smooth="yes"/>
      <point x="51" y="177"/>
      <point x="201" y="27"/>
    </contour>
    <contour>
      <point x="386" y="69" type="curve" smooth="yes"/>
      <point x="224" y="69"/>
      <point x="93" y="200"/>
      <point x="93" y="362" type="curve" smooth="yes"/>
      <point x="93" y="524"/>
      <point x="224" y="655"/>
      <point x="386" y="655" type="curve" smooth="yes"/>
      <point x="548" y="655"/>
      <point x="679" y="524"/>
      <point x="679" y="362" type="curve" smooth="yes"/>
      <point x="679" y="200"/>
      <point x="548" y="69"/>
    </contour>
  </outline>
</glyph>
<glyph name="mediumBlackCircle" format="2">
  <advance width="772"/>
  <unicode hex="26AB"/>
  <note>
uni26AB
</note>
  <outline>
    <contour>
      <point x="386" y="27" type="curve" smooth="yes"/>
      <point x="571" y="27"/>
      <point x="721" y="177"/>
      <point x="721" y="362" type="curve" smooth="yes"/>
      <point x="721" y="547"/>
      <point x="571" y="697"/>
      <point x="386" y="697" type="curve" smooth="yes"/>
      <point x="201" y="697"/>
      <point x="51" y="547"/>
      <point x="51" y="362" type="curve" smooth="yes"/>
      <point x="51" y="177"/>
      <point x="201" y="27"/>
    </contour>
  </outline>
</glyph>
<glyph name="heavyEightTeardropSpokedPropellerAsterisk" format="2">
  <advance width="859"/>
  <unicode hex="274B"/>
  <note>
uni274B
</note>
  <outline>
    <contour>
      <point x="423" y="-63" type="curve"/>
      <point x="437" y="-63" type="line"/>
      <point x="445" y="-50"/>
      <point x="482" y="-17"/>
      <point x="495" y="-17" type="curve"/>
      <point x="497" y="-17" type="line"/>
      <point x="453" y="231" type="line"/>
      <point x="472" y="239" type="line"/>
      <point x="617" y="33" type="line"/>
      <point x="617" y="37"/>
      <point x="651" y="45"/>
      <point x="669" y="45" type="curve" smooth="yes"/>
      <point x="676" y="45"/>
      <point x="684" y="44"/>
      <point x="691" y="42" type="curve"/>
      <point x="701" y="52" type="line"/>
      <point x="700" y="59"/>
      <point x="699" y="66"/>
      <point x="699" y="74" type="curve" smooth="yes"/>
      <point x="699" y="88"/>
      <point x="707" y="127"/>
      <point x="711" y="127" type="curve"/>
      <point x="505" y="272" type="line"/>
      <point x="513" y="292" type="line"/>
      <point x="762" y="247" type="line"/>
      <point x="762" y="250" type="line"/>
      <point x="762" y="262"/>
      <point x="793" y="299"/>
      <point x="808" y="308" type="curve"/>
      <point x="808" y="322" type="line"/>
      <point x="794" y="330"/>
      <point x="762" y="366"/>
      <point x="762" y="379" type="curve"/>
      <point x="762" y="382" type="line"/>
      <point x="513" y="338" type="line"/>
      <point x="506" y="358" type="line"/>
      <point x="712" y="502" type="line"/>
      <point x="706" y="502"/>
      <point x="700" y="543"/>
      <point x="700" y="559" type="curve" smooth="yes"/>
      <point x="700" y="567"/>
      <point x="701" y="573"/>
      <point x="702" y="577" type="curve"/>
      <point x="692" y="587" type="line"/>
      <point x="685" y="585"/>
      <point x="677" y="584"/>
      <point x="670" y="584" type="curve" smooth="yes"/>
      <point x="651" y="584"/>
      <point x="619" y="592"/>
      <point x="617" y="597" type="curve"/>
      <point x="473" y="390" type="line"/>
      <point x="453" y="399" type="line"/>
      <point x="497" y="647" type="line"/>
      <point x="494" y="646" type="line"/>
      <point x="482" y="646"/>
      <point x="443" y="681"/>
      <point x="437" y="693" type="curve"/>
      <point x="423" y="693" type="line"/>
      <point x="413" y="677"/>
      <point x="377" y="646"/>
      <point x="365" y="646" type="curve"/>
      <point x="363" y="647" type="line"/>
      <point x="407" y="399" type="line"/>
      <point x="386" y="390" type="line"/>
      <point x="242" y="597" type="line"/>
      <point x="241" y="592"/>
      <point x="204" y="584"/>
      <point x="189" y="584" type="curve" smooth="yes"/>
      <point x="182" y="584"/>
      <point x="174" y="585"/>
      <point x="167" y="587" type="curve"/>
      <point x="157" y="577" type="line"/>
      <point x="159" y="573"/>
      <point x="159" y="567"/>
      <point x="159" y="559" type="curve" smooth="yes"/>
      <point x="159" y="538"/>
      <point x="151" y="502"/>
      <point x="147" y="502" type="curve"/>
      <point x="353" y="358" type="line"/>
      <point x="345" y="337" type="line"/>
      <point x="97" y="382" type="line"/>
      <point x="98" y="379" type="line"/>
      <point x="97" y="366"/>
      <point x="67" y="332"/>
      <point x="51" y="321" type="curve"/>
      <point x="51" y="307" type="line"/>
      <point x="67" y="297"/>
      <point x="98" y="261"/>
      <point x="98" y="250" type="curve"/>
      <point x="97" y="247" type="line"/>
      <point x="345" y="292" type="line"/>
      <point x="354" y="272" type="line"/>
      <point x="148" y="127" type="line"/>
      <point x="151" y="127"/>
      <point x="160" y="93"/>
      <point x="160" y="74" type="curve" smooth="yes"/>
      <point x="160" y="66"/>
      <point x="160" y="59"/>
      <point x="158" y="52" type="curve"/>
      <point x="168" y="42" type="line"/>
      <point x="175" y="44"/>
      <point x="183" y="45"/>
      <point x="190" y="45" type="curve" smooth="yes"/>
      <point x="204" y="45"/>
      <point x="241" y="38"/>
      <point x="242" y="33" type="curve"/>
      <point x="387" y="239" type="line"/>
      <point x="407" y="231" type="line"/>
      <point x="363" y="-17" type="line"/>
      <point x="365" y="-17" type="line"/>
      <point x="376" y="-17"/>
      <point x="411" y="-45"/>
    </contour>
  </outline>
</glyph>
<glyph name="blackLargeSquare" format="2">
  <advance width="1000"/>
  <unicode hex="2B1B"/>
  <note>
uni2B1B
</note>
  <outline>
    <contour>
      <point x="112" y="-26" type="line"/>
      <point x="888" y="-26" type="line"/>
      <point x="888" y="750" type="line"/>
      <point x="112" y="750" type="line"/>
    </contour>
  </outline>
</glyph>
<glyph name="whiteLargeSquare" format="2">
  <advance width="1022"/>
  <unicode hex="2B1C"/>
  <note>
uni2B1C
</note>
  <outline>
    <contour>
      <point x="51" y="-98" type="line"/>
      <point x="971" y="-98" type="line"/>
      <point x="971" y="822" type="line"/>
      <point x="51" y="822" type="line"/>
    </contour>
    <contour>
      <point x="88" y="-61" type="line"/>
      <point x="88" y="785" type="line"/>
      <point x="934" y="785" type="line"/>
      <point x="934" y="-61" type="line"/>
    </contour>
  </outline>
</glyph>
<glyph name="blackSmallDiamond" format="2">
  <advance width="367"/>
  <unicode hex="2B29"/>
  <note>
uni2B29
</note>
  <outline>
    <contour>
      <point x="184" y="230" type="line"/>
      <point x="316" y="362" type="line"/>
      <point x="184" y="495" type="line"/>
      <point x="51" y="362" type="line"/>
    </contour>
  </outline>
</glyph>
<glyph name="blackLeftEquilateralArrowhead" format="2">
  <advance width="745"/>
  <unicode hex="2B9C"/>
  <outline>
    <contour>
      <point x="694" y="-35" type="line"/>
      <point x="520" y="342" type="line"/>
      <point x="694" y="718" type="line"/>
      <point x="51" y="342" type="line"/>
    </contour>
  </outline>
</glyph>
<glyph name="blackSquareCentred" format="2">
  <advance width="850"/>
  <unicode hex="2BC0"/>
  <outline>
    <contour>
      <point x="126" y="63" type="line"/>
      <point x="724" y="63" type="line"/>
      <point x="724" y="661" type="line"/>
      <point x="126" y="661" type="line"/>
    </contour>
  </outline>
</glyph>
<glyph name="blackDiamondCentred" format="2">
  <advance width="850"/>
  <unicode hex="2BC1"/>
  <outline>
    <contour>
      <point x="426" y="-61" type="line"/>
      <point x="848" y="362" type="line"/>
      <point x="426" y="785" type="line"/>
      <point x="3" y="362" type="line"/>
    </contour>
  </outline>
</glyph>
<glyph name="blackMediumLeftTriangleCentred" format="2">
  <advance width="850"/>
  <unicode hex="2BC7"/>
  <outline>
    <contour>
      <point x="709" y="28" type="line"/>
      <point x="709" y="670" type="line"/>
      <point x="141" y="349" type="line"/>
    </contour>
  </outline>
</glyph>
<glyph name="blackMediumRightTriangleCentred" format="2">
  <advance width="850"/>
  <unicode hex="2BC8"/>
  <outline>
    <contour>
      <point x="141" y="28" type="line"/>
      <point x="709" y="349" type="line"/>
      <point x="141" y="670" type="line"/>
    </contour>
  </outline>
</glyph>
<glyph name="onehalf-greek" format="2">
  <advance width="583"/>
  <unicode hex="10175"/>
  <note>
u10175
</note>
  <outline>
    <contour>
      <point x="0" y="0" type="line"/>
      <point x="559" y="0" type="line"/>
      <point x="559" y="79" type="line"/>
      <point x="164" y="79" type="line"/>
      <point x="472" y="451" type="line"/>
      <point x="373" y="451" type="line"/>
    </contour>
  </outline>
</glyph>
<glyph name="uncia-roman" format="2">
  <advance width="572"/>
  <unicode hex="10191"/>
  <note>
uni10191
</note>
  <outline>
    <contour>
      <point x="50" y="317" type="line"/>
      <point x="521" y="317" type="line"/>
      <point x="521" y="388" type="line"/>
      <point x="50" y="388" type="line"/>
    </contour>
  </outline>
</glyph>
<glyph name="sestertius-roman" format="2">
  <advance width="1249"/>
  <unicode hex="10198"/>
  <note>
uni10198
</note>
  <outline>
    <contour>
      <point x="947" y="-10" type="curve" smooth="yes"/>
      <point x="1107" y="-10"/>
      <point x="1202" y="67"/>
      <point x="1202" y="191" type="curve" smooth="yes"/>
      <point x="1202" y="257"/>
      <point x="1180" y="298"/>
      <point x="1128" y="333" type="curve"/>
      <point x="1249" y="333" type="line"/>
      <point x="1249" y="412" type="line"/>
      <point x="968" y="412" type="line"/>
      <point x="881" y="447"/>
      <point x="851" y="479"/>
      <point x="851" y="541" type="curve" smooth="yes"/>
      <point x="851" y="604"/>
      <point x="896" y="645"/>
      <point x="986" y="645" type="curve" smooth="yes"/>
      <point x="1040" y="645"/>
      <point x="1097" y="632"/>
      <point x="1157" y="607" type="curve"/>
      <point x="1185" y="684" type="line"/>
      <point x="1125" y="711"/>
      <point x="1059" y="724"/>
      <point x="988" y="724" type="curve" smooth="yes"/>
      <point x="848" y="724"/>
      <point x="760" y="653"/>
      <point x="760" y="542" type="curve" smooth="yes"/>
      <point x="760" y="482"/>
      <point x="776" y="439"/>
      <point x="810" y="412" type="curve"/>
      <point x="643" y="412" type="line"/>
      <point x="643" y="714" type="line"/>
      <point x="553" y="714" type="line"/>
      <point x="553" y="412" type="line"/>
      <point x="187" y="412" type="line"/>
      <point x="187" y="714" type="line"/>
      <point x="97" y="714" type="line"/>
      <point x="97" y="412" type="line"/>
      <point x="10" y="412" type="line"/>
      <point x="10" y="333" type="line"/>
      <point x="97" y="333" type="line"/>
      <point x="97" y="0" type="line"/>
      <point x="187" y="0" type="line"/>
      <point x="187" y="333" type="line"/>
      <point x="553" y="333" type="line"/>
      <point x="553" y="0" type="line"/>
      <point x="643" y="0" type="line"/>
      <point x="643" y="333" type="line"/>
      <point x="935" y="333" type="line"/>
      <point x="1063" y="290"/>
      <point x="1112" y="255"/>
      <point x="1112" y="183" type="curve" smooth="yes"/>
      <point x="1112" y="111"/>
      <point x="1057" y="68"/>
      <point x="951" y="68" type="curve" smooth="yes"/>
      <point x="881" y="68"/>
      <point x="814" y="82"/>
      <point x="751" y="110" type="curve"/>
      <point x="751" y="24" type="line"/>
      <point x="796" y="1"/>
      <point x="861" y="-10"/>
    </contour>
  </outline>
</glyph>
<glyph name="dupondius-roman" format="2">
  <advance width="740"/>
  <unicode hex="10199"/>
  <note>
uni10199
</note>
  <outline>
    <contour>
      <point x="97" y="0" type="line"/>
      <point x="187" y="0" type="line"/>
      <point x="187" y="333" type="line"/>
      <point x="553" y="333" type="line"/>
      <point x="553" y="0" type="line"/>
      <point x="643" y="0" type="line"/>
      <point x="643" y="333" type="line"/>
      <point x="730" y="333" type="line"/>
      <point x="730" y="412" type="line"/>
      <point x="643" y="412" type="line"/>
      <point x="643" y="714" type="line"/>
      <point x="553" y="714" type="line"/>
      <point x="553" y="412" type="line"/>
      <point x="187" y="412" type="line"/>
      <point x="187" y="714" type="line"/>
      <point x="97" y="714" type="line"/>
      <point x="97" y="412" type="line"/>
      <point x="10" y="412" type="line"/>
      <point x="10" y="333" type="line"/>
      <point x="97" y="333" type="line"/>
    </contour>
  </outline>
</glyph>
<glyph name="u1d32d" format="2">
  <advance width="940"/>
  <unicode hex="1D32D"/>
  <note>
uni1D32D
</note>
  <outline>
    <contour>
      <point x="102" y="0" type="line"/>
      <point x="838" y="0" type="line"/>
      <point x="838" y="102" type="line"/>
      <point x="102" y="102" type="line"/>
    </contour>
    <contour>
      <point x="102" y="204" type="line"/>
      <point x="396" y="204" type="line"/>
      <point x="396" y="306" type="line"/>
      <point x="102" y="306" type="line"/>
    </contour>
    <contour>
      <point x="102" y="408" type="line"/>
      <point x="396" y="408" type="line"/>
      <point x="396" y="510" type="line"/>
      <point x="102" y="510" type="line"/>
    </contour>
    <contour>
      <point x="102" y="612" type="line"/>
      <point x="396" y="612" type="line"/>
      <point x="396" y="714" type="line"/>
      <point x="102" y="714" type="line"/>
    </contour>
    <contour>
      <point x="544" y="204" type="line"/>
      <point x="838" y="204" type="line"/>
      <point x="838" y="306" type="line"/>
      <point x="544" y="306" type="line"/>
    </contour>
    <contour>
      <point x="544" y="408" type="line"/>
      <point x="838" y="408" type="line"/>
      <point x="838" y="510" type="line"/>
      <point x="544" y="510" type="line"/>
    </contour>
    <contour>
      <point x="544" y="612" type="line"/>
      <point x="838" y="612" type="line"/>
      <point x="838" y="714" type="line"/>
      <point x="544" y="714" type="line"/>
    </contour>
  </outline>
</glyph>
<glyph name="u1d34f" format="2">
  <advance width="940"/>
  <unicode hex="1D34F"/>
  <note>
uni1D34F
</note>
  <outline>
    <contour>
      <point x="102" y="204" type="line"/>
      <point x="838" y="204" type="line"/>
      <point x="838" y="306" type="line"/>
      <point x="102" y="306" type="line"/>
    </contour>
    <contour>
      <point x="102" y="-1" type="line"/>
      <point x="396" y="-1" type="line"/>
      <point x="396" y="101" type="line"/>
      <point x="102" y="101" type="line"/>
    </contour>
    <contour>
      <point x="102" y="408" type="line"/>
      <point x="249" y="408" type="line"/>
      <point x="249" y="510" type="line"/>
      <point x="102" y="510" type="line"/>
    </contour>
    <contour>
      <point x="544" y="0" type="line"/>
      <point x="838" y="0" type="line"/>
      <point x="838" y="102" type="line"/>
      <point x="544" y="102" type="line"/>
    </contour>
    <contour>
      <point x="102" y="612" type="line"/>
      <point x="249" y="612" type="line"/>
      <point x="249" y="714" type="line"/>
      <point x="102" y="714" type="line"/>
    </contour>
    <contour>
      <point x="396" y="408" type="line"/>
      <point x="544" y="408" type="line"/>
      <point x="544" y="510" type="line"/>
      <point x="396" y="510" type="line"/>
    </contour>
    <contour>
      <point x="396" y="612" type="line"/>
      <point x="544" y="612" type="line"/>
      <point x="544" y="714" type="line"/>
      <point x="396" y="714" type="line"/>
    </contour>
    <contour>
      <point x="691" y="408" type="line"/>
      <point x="838" y="408" type="line"/>
      <point x="838" y="510" type="line"/>
      <point x="691" y="510" type="line"/>
    </contour>
    <contour>
      <point x="691" y="612" type="line"/>
      <point x="838" y="612" type="line"/>
      <point x="838" y="714" type="line"/>
      <point x="691" y="714" type="line"/>
    </contour>
  </outline>
</glyph>
<glyph name="u1d369" format="2">
  <advance width="180"/>
  <unicode hex="1D369"/>
  <note>
u1D369
</note>
  <outline>
    <contour>
      <point x="51" y="0" type="line"/>
      <point x="129" y="0" type="line"/>
      <point x="129" y="718" type="line"/>
      <point x="51" y="718" type="line"/>
    </contour>
  </outline>
</glyph>
<glyph name="u1f0f3" format="2">
  <advance width="676"/>
  <unicode hex="1F0F3"/>
  <outline>
    <contour>
      <point x="85" y="0" type="curve" smooth="yes"/>
      <point x="591" y="0" type="line" smooth="yes"/>
      <point x="619" y="0"/>
      <point x="625" y="6"/>
      <point x="625" y="34" type="curve" smooth="yes"/>
      <point x="625" y="732" type="line" smooth="yes"/>
      <point x="625" y="760"/>
      <point x="619" y="766"/>
      <point x="591" y="766" type="curve" smooth="yes"/>
      <point x="85" y="766" type="line" smooth="yes"/>
      <point x="57" y="766"/>
      <point x="51" y="760"/>
      <point x="51" y="732" type="curve" smooth="yes"/>
      <point x="51" y="34" type="line" smooth="yes"/>
      <point x="51" y="6"/>
      <point x="57" y="0"/>
    </contour>
    <contour>
      <point x="91" y="14" type="line" smooth="yes"/>
      <point x="67" y="14"/>
      <point x="65" y="17"/>
      <point x="65" y="40" type="curve" smooth="yes"/>
      <point x="65" y="726" type="line" smooth="yes"/>
      <point x="65" y="750"/>
      <point x="67" y="752"/>
      <point x="91" y="752" type="curve" smooth="yes"/>
      <point x="585" y="752" type="line" smooth="yes"/>
      <point x="608" y="752"/>
      <point x="611" y="750"/>
      <point x="611" y="726" type="curve" smooth="yes"/>
      <point x="611" y="40" type="line" smooth="yes"/>
      <point x="611" y="17"/>
      <point x="608" y="14"/>
      <point x="585" y="14" type="curve" smooth="yes"/>
    </contour>
    <contour>
      <point x="165" y="110" type="line"/>
      <point x="511" y="110" type="line"/>
      <point x="511" y="656" type="line"/>
      <point x="165" y="656" type="line"/>
    </contour>
    <contour>
      <point x="179" y="124" type="line"/>
      <point x="179" y="642" type="line"/>
      <point x="497" y="642" type="line"/>
      <point x="497" y="124" type="line"/>
    </contour>
    <contour>
      <point x="331" y="227" type="curve" smooth="yes"/>
      <point x="345" y="227" type="line" smooth="yes"/>
      <point x="347" y="227"/>
      <point x="348" y="229"/>
      <point x="348" y="230" type="curve" smooth="yes"/>
      <point x="348" y="263" type="line"/>
      <point x="374" y="238" type="line" smooth="yes"/>
      <point x="375" y="237"/>
      <point x="375" y="236"/>
      <point x="376" y="236" type="curve" smooth="yes"/>
      <point x="377" y="236"/>
      <point x="377" y="237"/>
      <point x="378" y="238" type="curve" smooth="yes"/>
      <point x="388" y="248" type="line" smooth="yes"/>
      <point x="389" y="249"/>
      <point x="389" y="249"/>
      <point x="389" y="250" type="curve" smooth="yes"/>
      <point x="389" y="251"/>
      <point x="389" y="251"/>
      <point x="388" y="252" type="curve" smooth="yes"/>
      <point x="348" y="292" type="line"/>
      <point x="348" y="355" type="line"/>
      <point x="393" y="311" type="line"/>
      <point x="393" y="254" type="line" smooth="yes"/>
      <point x="393" y="252"/>
      <point x="394" y="250"/>
      <point x="396" y="250" type="curve" smooth="yes"/>
      <point x="410" y="250" type="line" smooth="yes"/>
      <point x="412" y="250"/>
      <point x="414" y="252"/>
      <point x="414" y="254" type="curve" smooth="yes"/>
      <point x="414" y="290" type="line"/>
      <point x="437" y="268" type="line" smooth="yes"/>
      <point x="438" y="267"/>
      <point x="438" y="267"/>
      <point x="439" y="267" type="curve" smooth="yes"/>
      <point x="440" y="267"/>
      <point x="440" y="267"/>
      <point x="441" y="268" type="curve" smooth="yes"/>
      <point x="451" y="278" type="line"/>
      <point x="452" y="278"/>
      <point x="452" y="278"/>
      <point x="452" y="279" type="curve" smooth="yes"/>
      <point x="452" y="280"/>
      <point x="452" y="281"/>
      <point x="451" y="282" type="curve" smooth="yes"/>
      <point x="429" y="305" type="line"/>
      <point x="464" y="305" type="line" smooth="yes"/>
      <point x="466" y="305"/>
      <point x="468" y="307"/>
      <point x="468" y="308" type="curve" smooth="yes"/>
      <point x="468" y="322" type="line" smooth="yes"/>
      <point x="468" y="324"/>
      <point x="466" y="326"/>
      <point x="464" y="326" type="curve" smooth="yes"/>
      <point x="407" y="326" type="line"/>
      <point x="363" y="370" type="line"/>
      <point x="426" y="370" type="line"/>
      <point x="465" y="331" type="line" smooth="yes"/>
      <point x="466" y="330"/>
      <point x="467" y="329"/>
      <point x="468" y="329" type="curve" smooth="yes"/>
      <point x="469" y="329"/>
      <point x="470" y="329"/>
      <point x="471" y="330" type="curve" smooth="yes"/>
      <point x="480" y="340" type="line"/>
      <point x="481" y="341"/>
      <point x="482" y="341"/>
      <point x="482" y="342" type="curve" smooth="yes"/>
      <point x="482" y="343"/>
      <point x="481" y="344"/>
      <point x="480" y="345" type="curve" smooth="yes"/>
      <point x="455" y="370" type="line"/>
      <point x="488" y="370" type="line" smooth="yes"/>
      <point x="489" y="370"/>
      <point x="491" y="372"/>
      <point x="491" y="374" type="curve" smooth="yes"/>
      <point x="491" y="387" type="line" smooth="yes"/>
      <point x="491" y="390"/>
      <point x="489" y="391"/>
      <point x="488" y="391" type="curve" smooth="yes"/>
      <point x="455" y="391" type="line"/>
      <point x="480" y="417" type="line"/>
      <point x="481" y="417"/>
      <point x="482" y="418"/>
      <point x="482" y="419" type="curve" smooth="yes"/>
      <point x="482" y="420"/>
      <point x="481" y="420"/>
      <point x="480" y="421" type="curve"/>
      <point x="471" y="431" type="line"/>
      <point x="470" y="432"/>
      <point x="470" y="432"/>
      <point x="468" y="432" type="curve" smooth="yes"/>
      <point x="467" y="432"/>
      <point x="467" y="432"/>
      <point x="466" y="431" type="curve" smooth="yes"/>
      <point x="426" y="391" type="line"/>
      <point x="363" y="391" type="line"/>
      <point x="407" y="436" type="line"/>
      <point x="464" y="436" type="line" smooth="yes"/>
      <point x="466" y="436"/>
      <point x="468" y="437"/>
      <point x="468" y="438" type="curve" smooth="yes"/>
      <point x="468" y="453" type="line" smooth="yes"/>
      <point x="468" y="455"/>
      <point x="467" y="456"/>
      <point x="464" y="456" type="curve" smooth="yes"/>
      <point x="429" y="456" type="line"/>
      <point x="451" y="479" type="line" smooth="yes"/>
      <point x="452" y="480"/>
      <point x="452" y="481"/>
      <point x="451" y="483" type="curve" smooth="yes"/>
      <point x="441" y="494" type="line" smooth="yes"/>
      <point x="440" y="495"/>
      <point x="440" y="495"/>
      <point x="439" y="495" type="curve" smooth="yes"/>
      <point x="438" y="495"/>
      <point x="438" y="495"/>
      <point x="436" y="493" type="curve" smooth="yes"/>
      <point x="414" y="471" type="line"/>
      <point x="414" y="507" type="line" smooth="yes"/>
      <point x="414" y="509"/>
      <point x="412" y="511"/>
      <point x="410" y="511" type="curve" smooth="yes"/>
      <point x="396" y="511" type="line" smooth="yes"/>
      <point x="394" y="511"/>
      <point x="393" y="509"/>
      <point x="393" y="507" type="curve" smooth="yes"/>
      <point x="393" y="450" type="line"/>
      <point x="348" y="406" type="line"/>
      <point x="348" y="469" type="line"/>
      <point x="388" y="509" type="line" smooth="yes"/>
      <point x="389" y="510"/>
      <point x="389" y="510"/>
      <point x="389" y="511" type="curve" smooth="yes"/>
      <point x="389" y="513"/>
      <point x="389" y="513"/>
      <point x="388" y="514" type="curve"/>
      <point x="378" y="523" type="line"/>
      <point x="377" y="524"/>
      <point x="377" y="525"/>
      <point x="376" y="525" type="curve" smooth="yes"/>
      <point x="375" y="525"/>
      <point x="375" y="524"/>
      <point x="374" y="523" type="curve" smooth="yes"/>
      <point x="348" y="498" type="line"/>
      <point x="348" y="531" type="line" smooth="yes"/>
      <point x="348" y="532"/>
      <point x="347" y="534"/>
      <point x="345" y="534" type="curve" smooth="yes"/>
      <point x="331" y="534" type="line" smooth="yes"/>
      <point x="329" y="534"/>
      <point x="327" y="532"/>
      <point x="327" y="531" type="curve" smooth="yes"/>
      <point x="327" y="498" type="line"/>
      <point x="302" y="523" type="line" smooth="yes"/>
      <point x="301" y="524"/>
      <point x="300" y="524"/>
      <point x="299" y="524" type="curve" smooth="yes"/>
      <point x="298" y="524"/>
      <point x="297" y="524"/>
      <point x="297" y="523" type="curve"/>
      <point x="287" y="514" type="line"/>
      <point x="286" y="513"/>
      <point x="286" y="513"/>
      <point x="286" y="511" type="curve" smooth="yes"/>
      <point x="286" y="510"/>
      <point x="286" y="510"/>
      <point x="287" y="509" type="curve" smooth="yes"/>
      <point x="327" y="469" type="line"/>
      <point x="327" y="406" type="line"/>
      <point x="283" y="450" type="line"/>
      <point x="283" y="507" type="line" smooth="yes"/>
      <point x="283" y="509"/>
      <point x="281" y="511"/>
      <point x="280" y="511" type="curve" smooth="yes"/>
      <point x="265" y="511" type="line" smooth="yes"/>
      <point x="264" y="511"/>
      <point x="262" y="509"/>
      <point x="262" y="507" type="curve" smooth="yes"/>
      <point x="262" y="471" type="line"/>
      <point x="239" y="494" type="line" smooth="yes"/>
      <point x="238" y="495"/>
      <point x="237" y="495"/>
      <point x="236" y="495" type="curve" smooth="yes"/>
      <point x="235" y="495"/>
      <point x="236" y="495"/>
      <point x="235" y="494" type="curve"/>
      <point x="225" y="483" type="line"/>
      <point x="224" y="482"/>
      <point x="224" y="483"/>
      <point x="224" y="482" type="curve" smooth="yes"/>
      <point x="224" y="481"/>
      <point x="224" y="480"/>
      <point x="225" y="479" type="curve" smooth="yes"/>
      <point x="247" y="456" type="line"/>
      <point x="211" y="456" type="line" smooth="yes"/>
      <point x="209" y="456"/>
      <point x="208" y="455"/>
      <point x="208" y="453" type="curve" smooth="yes"/>
      <point x="208" y="438" type="line" smooth="yes"/>
      <point x="208" y="437"/>
      <point x="209" y="436"/>
      <point x="211" y="436" type="curve" smooth="yes"/>
      <point x="268" y="436" type="line"/>
      <point x="313" y="391" type="line"/>
      <point x="250" y="391" type="line"/>
      <point x="209" y="431" type="line"/>
      <point x="209" y="432"/>
      <point x="208" y="432"/>
      <point x="207" y="432" type="curve" smooth="yes"/>
      <point x="206" y="432"/>
      <point x="206" y="432"/>
      <point x="205" y="431" type="curve" smooth="yes"/>
      <point x="195" y="421" type="line" smooth="yes"/>
      <point x="194" y="420"/>
      <point x="193" y="420"/>
      <point x="193" y="419" type="curve" smooth="yes"/>
      <point x="193" y="418"/>
      <point x="194" y="417"/>
      <point x="195" y="417" type="curve"/>
      <point x="221" y="391" type="line"/>
      <point x="188" y="391" type="line" smooth="yes"/>
      <point x="186" y="391"/>
      <point x="184" y="390"/>
      <point x="184" y="387" type="curve" smooth="yes"/>
      <point x="184" y="374" type="line" smooth="yes"/>
      <point x="184" y="372"/>
      <point x="186" y="370"/>
      <point x="188" y="370" type="curve" smooth="yes"/>
      <point x="221" y="370" type="line"/>
      <point x="195" y="345" type="line" smooth="yes"/>
      <point x="194" y="344"/>
      <point x="193" y="343"/>
      <point x="193" y="342" type="curve" smooth="yes"/>
      <point x="193" y="341"/>
      <point x="194" y="341"/>
      <point x="195" y="340" type="curve" smooth="yes"/>
      <point x="205" y="330" type="line" smooth="yes"/>
      <point x="206" y="329"/>
      <point x="206" y="329"/>
      <point x="207" y="329" type="curve" smooth="yes"/>
      <point x="208" y="329"/>
      <point x="209" y="329"/>
      <point x="209" y="330" type="curve"/>
      <point x="250" y="370" type="line"/>
      <point x="313" y="370" type="line"/>
      <point x="268" y="326" type="line"/>
      <point x="211" y="326" type="line" smooth="yes"/>
      <point x="209" y="326"/>
      <point x="208" y="324"/>
      <point x="208" y="322" type="curve" smooth="yes"/>
      <point x="208" y="308" type="line" smooth="yes"/>
      <point x="208" y="306"/>
      <point x="209" y="305"/>
      <point x="211" y="305" type="curve" smooth="yes"/>
      <point x="247" y="305" type="line"/>
      <point x="225" y="282" type="line" smooth="yes"/>
      <point x="224" y="281"/>
      <point x="224" y="280"/>
      <point x="224" y="279" type="curve" smooth="yes"/>
      <point x="224" y="278"/>
      <point x="224" y="279"/>
      <point x="225" y="278" type="curve" smooth="yes"/>
      <point x="235" y="268" type="line" smooth="yes"/>
      <point x="236" y="267"/>
      <point x="235" y="267"/>
      <point x="236" y="267" type="curve" smooth="yes"/>
      <point x="237" y="267"/>
      <point x="238" y="267"/>
      <point x="239" y="268" type="curve" smooth="yes"/>
      <point x="262" y="290" type="line"/>
      <point x="262" y="254" type="line" smooth="yes"/>
      <point x="262" y="252"/>
      <point x="264" y="250"/>
      <point x="265" y="250" type="curve" smooth="yes"/>
      <point x="280" y="250" type="line" smooth="yes"/>
      <point x="281" y="250"/>
      <point x="283" y="252"/>
      <point x="283" y="254" type="curve" smooth="yes"/>
      <point x="283" y="311" type="line"/>
      <point x="327" y="355" type="line"/>
      <point x="327" y="292" type="line"/>
      <point x="287" y="252" type="line" smooth="yes"/>
      <point x="286" y="251"/>
      <point x="286" y="251"/>
      <point x="286" y="250" type="curve" smooth="yes"/>
      <point x="286" y="249"/>
      <point x="286" y="249"/>
      <point x="287" y="248" type="curve" smooth="yes"/>
      <point x="297" y="238" type="line"/>
      <point x="297" y="237"/>
      <point x="298" y="236"/>
      <point x="299" y="236" type="curve" smooth="yes"/>
      <point x="300" y="236"/>
      <point x="301" y="237"/>
      <point x="302" y="238" type="curve" smooth="yes"/>
      <point x="327" y="263" type="line"/>
      <point x="327" y="230" type="line" smooth="yes"/>
      <point x="327" y="229"/>
      <point x="329" y="227"/>
    </contour>
  </outline>
</glyph>
<glyph name="controlKnobs" format="2">
  <advance width="1102"/>
  <unicode hex="1F39B"/>
  <outline>
    <contour>
      <point x="113" y="-158" type="curve" smooth="yes"/>
      <point x="988" y="-158" type="line" smooth="yes"/>
      <point x="1023" y="-158"/>
      <point x="1051" y="-130"/>
      <point x="1051" y="-96" type="curve" smooth="yes"/>
      <point x="1051" y="779" type="line" smooth="yes"/>
      <point x="1051" y="814"/>
      <point x="1023" y="842"/>
      <point x="988" y="842" type="curve" smooth="yes"/>
      <point x="113" y="842" type="line" smooth="yes"/>
      <point x="79" y="842"/>
      <point x="51" y="814"/>
      <point x="51" y="779" type="curve" smooth="yes"/>
      <point x="51" y="-96" type="line" smooth="yes"/>
      <point x="51" y="-130"/>
      <point x="79" y="-158"/>
    </contour>
    <contour>
      <point x="133" y="-3" type="curve" smooth="yes"/>
      <point x="129" y="-3"/>
      <point x="124" y="0"/>
      <point x="123" y="3" type="curve"/>
      <point x="121" y="8"/>
      <point x="118" y="13"/>
      <point x="116" y="18" type="curve"/>
      <point x="114" y="24"/>
      <point x="117" y="30"/>
      <point x="123" y="33" type="curve"/>
      <point x="128" y="35"/>
      <point x="134" y="32"/>
      <point x="137" y="26" type="curve" smooth="yes"/>
      <point x="143" y="13" type="line"/>
      <point x="145" y="8"/>
      <point x="143" y="1"/>
      <point x="138" y="-1" type="curve"/>
      <point x="136" y="-2"/>
      <point x="134" y="-3"/>
    </contour>
    <contour>
      <point x="113" y="72" type="line" smooth="yes"/>
      <point x="107" y="72"/>
      <point x="102" y="76"/>
      <point x="102" y="82" type="curve" smooth="yes"/>
      <point x="102" y="98" type="line" smooth="yes"/>
      <point x="102" y="104"/>
      <point x="106" y="109"/>
      <point x="112" y="109" type="curve" smooth="yes"/>
      <point x="119" y="109"/>
      <point x="124" y="104"/>
      <point x="124" y="98" type="curve" smooth="yes"/>
      <point x="124" y="83" type="line" smooth="yes"/>
      <point x="124" y="78"/>
      <point x="120" y="72"/>
      <point x="114" y="72" type="curve" smooth="yes"/>
    </contour>
    <contour>
      <point x="119" y="148" type="line"/>
      <point x="113" y="150"/>
      <point x="110" y="157"/>
      <point x="112" y="163" type="curve"/>
      <point x="118" y="178" type="line"/>
      <point x="121" y="184"/>
      <point x="127" y="186"/>
      <point x="133" y="184" type="curve"/>
      <point x="138" y="181"/>
      <point x="141" y="175"/>
      <point x="139" y="169" type="curve"/>
      <point x="133" y="155" type="line"/>
      <point x="132" y="151"/>
      <point x="127" y="148"/>
      <point x="123" y="148" type="curve" smooth="yes"/>
    </contour>
    <contour>
      <point x="161" y="215" type="curve" smooth="yes"/>
      <point x="159" y="215"/>
      <point x="156" y="216"/>
      <point x="154" y="217" type="curve"/>
      <point x="149" y="222"/>
      <point x="149" y="229"/>
      <point x="153" y="233" type="curve"/>
      <point x="164" y="245" type="line"/>
      <point x="168" y="249"/>
      <point x="176" y="249"/>
      <point x="180" y="245" type="curve"/>
      <point x="184" y="240"/>
      <point x="184" y="233"/>
      <point x="180" y="229" type="curve"/>
      <point x="176" y="226"/>
      <point x="173" y="222"/>
      <point x="169" y="218" type="curve" smooth="yes"/>
      <point x="167" y="216"/>
      <point x="165" y="215"/>
    </contour>
    <contour>
      <point x="310" y="-72" type="curve" smooth="yes"/>
      <point x="217" y="-72"/>
      <point x="142" y="3"/>
      <point x="142" y="96" type="curve" smooth="yes"/>
      <point x="142" y="188"/>
      <point x="217" y="264"/>
      <point x="310" y="264" type="curve" smooth="yes"/>
      <point x="403" y="264"/>
      <point x="478" y="188"/>
      <point x="478" y="96" type="curve" smooth="yes"/>
      <point x="478" y="3"/>
      <point x="403" y="-72"/>
    </contour>
    <contour>
      <point x="327" y="78" type="curve"/>
      <point x="433" y="131" type="line" smooth="yes"/>
      <point x="441" y="135"/>
      <point x="445" y="145"/>
      <point x="441" y="153" type="curve" smooth="yes"/>
      <point x="437" y="161"/>
      <point x="427" y="165"/>
      <point x="418" y="161" type="curve"/>
      <point x="312" y="107" type="line"/>
      <point x="304" y="104"/>
      <point x="300" y="94"/>
      <point x="304" y="85" type="curve"/>
      <point x="309" y="77"/>
      <point x="318" y="74"/>
    </contour>
    <contour>
      <point x="222" y="262" type="curve" smooth="yes"/>
      <point x="218" y="262"/>
      <point x="214" y="264"/>
      <point x="212" y="268" type="curve"/>
      <point x="209" y="273"/>
      <point x="212" y="280"/>
      <point x="217" y="283" type="curve"/>
      <point x="222" y="285"/>
      <point x="227" y="287"/>
      <point x="232" y="290" type="curve"/>
      <point x="238" y="292"/>
      <point x="245" y="289"/>
      <point x="247" y="283" type="curve" smooth="yes"/>
      <point x="249" y="277"/>
      <point x="246" y="271"/>
      <point x="241" y="269" type="curve" smooth="yes"/>
      <point x="227" y="263" type="line"/>
      <point x="226" y="262"/>
      <point x="224" y="262"/>
    </contour>
    <contour>
      <point x="491" y="6" type="curve"/>
      <point x="487" y="7" type="line"/>
      <point x="481" y="10"/>
      <point x="479" y="16"/>
      <point x="481" y="22" type="curve"/>
      <point x="483" y="26"/>
      <point x="485" y="31"/>
      <point x="486" y="36" type="curve"/>
      <point x="488" y="42"/>
      <point x="495" y="44"/>
      <point x="500" y="42" type="curve"/>
      <point x="506" y="41"/>
      <point x="509" y="34"/>
      <point x="507" y="28" type="curve"/>
      <point x="501" y="13" type="line"/>
      <point x="499" y="9"/>
      <point x="496" y="6"/>
    </contour>
    <contour>
      <point x="297" y="282" type="line" smooth="yes"/>
      <point x="291" y="282"/>
      <point x="286" y="286"/>
      <point x="286" y="292" type="curve" smooth="yes"/>
      <point x="286" y="298"/>
      <point x="290" y="303"/>
      <point x="296" y="304" type="curve"/>
      <point x="312" y="304" type="line" smooth="yes"/>
      <point x="318" y="304"/>
      <point x="323" y="299"/>
      <point x="323" y="293" type="curve" smooth="yes"/>
      <point x="323" y="287"/>
      <point x="318" y="282"/>
      <point x="312" y="282" type="curve" smooth="yes"/>
    </contour>
    <contour>
      <point x="507" y="82" type="curve" smooth="yes"/>
      <point x="501" y="82"/>
      <point x="496" y="87"/>
      <point x="496" y="93" type="curve" smooth="yes"/>
      <point x="496" y="108" type="line" smooth="yes"/>
      <point x="496" y="115"/>
      <point x="500" y="120"/>
      <point x="506" y="120" type="curve"/>
      <point x="512" y="121"/>
      <point x="519" y="116"/>
      <point x="519" y="109" type="curve" smooth="yes"/>
      <point x="519" y="93" type="line" smooth="yes"/>
      <point x="519" y="86"/>
      <point x="513" y="82"/>
    </contour>
    <contour>
      <point x="133" y="464" type="curve" smooth="yes"/>
      <point x="129" y="464"/>
      <point x="124" y="466"/>
      <point x="123" y="470" type="curve"/>
      <point x="121" y="475"/>
      <point x="118" y="480"/>
      <point x="116" y="485" type="curve"/>
      <point x="114" y="491"/>
      <point x="117" y="497"/>
      <point x="123" y="499" type="curve"/>
      <point x="128" y="501"/>
      <point x="134" y="499"/>
      <point x="137" y="493" type="curve"/>
      <point x="143" y="479" type="line" smooth="yes"/>
      <point x="145" y="474"/>
      <point x="143" y="468"/>
      <point x="138" y="465" type="curve"/>
      <point x="136" y="464"/>
      <point x="134" y="464"/>
    </contour>
    <contour>
      <point x="610" y="6" type="curve" smooth="yes"/>
      <point x="606" y="6"/>
      <point x="602" y="9"/>
      <point x="600" y="13" type="curve"/>
      <point x="594" y="28" type="line"/>
      <point x="592" y="34"/>
      <point x="595" y="41"/>
      <point x="601" y="42" type="curve"/>
      <point x="607" y="44"/>
      <point x="613" y="42"/>
      <point x="615" y="36" type="curve"/>
      <point x="621" y="22" type="line"/>
      <point x="623" y="16"/>
      <point x="620" y="10"/>
      <point x="615" y="7" type="curve"/>
      <point x="613" y="7"/>
      <point x="612" y="6"/>
    </contour>
    <contour>
      <point x="388" y="266" type="curve" smooth="yes"/>
      <point x="386" y="266"/>
      <point x="385" y="267"/>
      <point x="383" y="267" type="curve"/>
      <point x="379" y="269"/>
      <point x="374" y="271"/>
      <point x="370" y="272" type="curve"/>
      <point x="364" y="274"/>
      <point x="360" y="281"/>
      <point x="362" y="287" type="curve"/>
      <point x="365" y="292"/>
      <point x="371" y="295"/>
      <point x="376" y="293" type="curve"/>
      <point x="382" y="292"/>
      <point x="387" y="290"/>
      <point x="392" y="288" type="curve"/>
      <point x="397" y="285"/>
      <point x="400" y="279"/>
      <point x="398" y="273" type="curve"/>
      <point x="396" y="269"/>
      <point x="392" y="266"/>
    </contour>
    <contour>
      <point x="493" y="158" type="curve" smooth="yes"/>
      <point x="489" y="158"/>
      <point x="485" y="161"/>
      <point x="483" y="165" type="curve"/>
      <point x="477" y="179" type="line"/>
      <point x="474" y="184"/>
      <point x="477" y="191"/>
      <point x="482" y="193" type="curve"/>
      <point x="487" y="196"/>
      <point x="494" y="194"/>
      <point x="497" y="188" type="curve" smooth="yes"/>
      <point x="499" y="184"/>
      <point x="501" y="179"/>
      <point x="503" y="173" type="curve"/>
      <point x="506" y="168"/>
      <point x="503" y="161"/>
      <point x="498" y="159" type="curve"/>
      <point x="496" y="159"/>
      <point x="495" y="158"/>
    </contour>
    <contour>
      <point x="113" y="538" type="line" smooth="yes"/>
      <point x="107" y="538"/>
      <point x="102" y="542"/>
      <point x="102" y="548" type="curve" smooth="yes"/>
      <point x="102" y="549" type="line" smooth="yes"/>
      <point x="102" y="553"/>
      <point x="101" y="558"/>
      <point x="101" y="563" type="curve"/>
      <point x="102" y="565" type="line"/>
      <point x="102" y="571"/>
      <point x="106" y="576"/>
      <point x="112" y="576" type="curve" smooth="yes"/>
      <point x="119" y="576"/>
      <point x="124" y="571"/>
      <point x="124" y="564" type="curve" smooth="yes"/>
      <point x="124" y="550" type="line" smooth="yes"/>
      <point x="124" y="544"/>
      <point x="120" y="539"/>
      <point x="114" y="538" type="curve"/>
    </contour>
    <contour>
      <point x="451" y="223" type="curve" smooth="yes"/>
      <point x="448" y="223"/>
      <point x="445" y="224"/>
      <point x="443" y="226" type="curve" smooth="yes"/>
      <point x="433" y="236" type="line"/>
      <point x="428" y="240"/>
      <point x="427" y="247"/>
      <point x="432" y="252" type="curve" smooth="yes"/>
      <point x="436" y="256"/>
      <point x="442" y="257"/>
      <point x="447" y="253" type="curve"/>
      <point x="459" y="242" type="line"/>
      <point x="463" y="237"/>
      <point x="463" y="230"/>
      <point x="459" y="226" type="curve" smooth="yes"/>
      <point x="457" y="224"/>
      <point x="454" y="223"/>
    </contour>
    <contour>
      <point x="594" y="82" type="curve" smooth="yes"/>
      <point x="588" y="82"/>
      <point x="583" y="86"/>
      <point x="583" y="93" type="curve" smooth="yes"/>
      <point x="583" y="109" type="line" smooth="yes"/>
      <point x="584" y="116"/>
      <point x="589" y="121"/>
      <point x="595" y="120" type="curve"/>
      <point x="602" y="120"/>
      <point x="605" y="115"/>
      <point x="605" y="108" type="curve"/>
      <point x="605" y="93" type="line" smooth="yes"/>
      <point x="605" y="87"/>
      <point x="601" y="82"/>
    </contour>
    <contour>
      <point x="123" y="614" type="curve" smooth="yes"/>
      <point x="122" y="614"/>
      <point x="121" y="615"/>
      <point x="119" y="615" type="curve"/>
      <point x="113" y="617"/>
      <point x="110" y="624"/>
      <point x="112" y="629" type="curve" smooth="yes"/>
      <point x="118" y="645" type="line"/>
      <point x="121" y="650"/>
      <point x="127" y="653"/>
      <point x="133" y="650" type="curve"/>
      <point x="138" y="648"/>
      <point x="141" y="641"/>
      <point x="139" y="636" type="curve" smooth="yes"/>
      <point x="133" y="622" type="line"/>
      <point x="132" y="617"/>
      <point x="127" y="614"/>
    </contour>
    <contour>
      <point x="608" y="158" type="curve"/>
      <point x="604" y="159" type="line"/>
      <point x="599" y="161"/>
      <point x="596" y="168"/>
      <point x="598" y="173" type="curve"/>
      <point x="600" y="179"/>
      <point x="603" y="184"/>
      <point x="605" y="188" type="curve"/>
      <point x="607" y="194"/>
      <point x="614" y="196"/>
      <point x="620" y="193" type="curve"/>
      <point x="625" y="191"/>
      <point x="627" y="184"/>
      <point x="624" y="179" type="curve"/>
      <point x="623" y="174"/>
      <point x="621" y="170"/>
      <point x="619" y="165" type="curve"/>
      <point x="617" y="161"/>
      <point x="613" y="158"/>
    </contour>
    <contour>
      <point x="161" y="681" type="curve" smooth="yes"/>
      <point x="159" y="681"/>
      <point x="156" y="682"/>
      <point x="154" y="684" type="curve"/>
      <point x="149" y="688"/>
      <point x="149" y="695"/>
      <point x="153" y="700" type="curve"/>
      <point x="157" y="704"/>
      <point x="160" y="708"/>
      <point x="164" y="711" type="curve"/>
      <point x="168" y="716"/>
      <point x="176" y="716"/>
      <point x="180" y="711" type="curve"/>
      <point x="184" y="707"/>
      <point x="184" y="700"/>
      <point x="180" y="696" type="curve" smooth="yes"/>
      <point x="176" y="692"/>
      <point x="173" y="688"/>
      <point x="169" y="685" type="curve"/>
      <point x="167" y="683"/>
      <point x="165" y="681"/>
    </contour>
    <contour>
      <point x="310" y="396" type="curve" smooth="yes"/>
      <point x="217" y="396"/>
      <point x="142" y="472"/>
      <point x="142" y="564" type="curve" smooth="yes"/>
      <point x="142" y="657"/>
      <point x="217" y="732"/>
      <point x="310" y="732" type="curve" smooth="yes"/>
      <point x="403" y="732"/>
      <point x="478" y="657"/>
      <point x="478" y="564" type="curve" smooth="yes"/>
      <point x="478" y="472"/>
      <point x="403" y="396"/>
    </contour>
    <contour>
      <point x="791" y="-72" type="curve" smooth="yes"/>
      <point x="699" y="-72"/>
      <point x="624" y="3"/>
      <point x="624" y="96" type="curve" smooth="yes"/>
      <point x="624" y="188"/>
      <point x="699" y="264"/>
      <point x="791" y="264" type="curve" smooth="yes"/>
      <point x="884" y="264"/>
      <point x="959" y="188"/>
      <point x="959" y="96" type="curve" smooth="yes"/>
      <point x="959" y="3"/>
      <point x="884" y="-72"/>
    </contour>
    <contour>
      <point x="650" y="223" type="curve" smooth="yes"/>
      <point x="647" y="223"/>
      <point x="645" y="224"/>
      <point x="643" y="226" type="curve"/>
      <point x="638" y="230"/>
      <point x="638" y="237"/>
      <point x="643" y="242" type="curve"/>
      <point x="646" y="246"/>
      <point x="650" y="249"/>
      <point x="654" y="253" type="curve"/>
      <point x="659" y="257"/>
      <point x="666" y="256"/>
      <point x="670" y="252" type="curve"/>
      <point x="674" y="247"/>
      <point x="674" y="240"/>
      <point x="669" y="236" type="curve"/>
      <point x="666" y="233"/>
      <point x="662" y="229"/>
      <point x="658" y="226" type="curve"/>
      <point x="656" y="224"/>
      <point x="653" y="223"/>
    </contour>
    <contour>
      <point x="310" y="554" type="curve"/>
      <point x="317" y="549"/>
      <point x="328" y="551"/>
      <point x="333" y="559" type="curve" smooth="yes"/>
      <point x="399" y="657" type="line"/>
      <point x="405" y="665"/>
      <point x="402" y="675"/>
      <point x="395" y="681" type="curve"/>
      <point x="387" y="686"/>
      <point x="377" y="684"/>
      <point x="372" y="676" type="curve"/>
      <point x="305" y="577" type="line"/>
      <point x="300" y="569"/>
      <point x="302" y="559"/>
    </contour>
    <contour>
      <point x="222" y="728" type="curve" smooth="yes"/>
      <point x="218" y="728"/>
      <point x="214" y="730"/>
      <point x="212" y="734" type="curve" smooth="yes"/>
      <point x="209" y="740"/>
      <point x="212" y="747"/>
      <point x="217" y="749" type="curve" smooth="yes"/>
      <point x="222" y="751"/>
      <point x="227" y="754"/>
      <point x="232" y="756" type="curve"/>
      <point x="238" y="758"/>
      <point x="245" y="755"/>
      <point x="247" y="750" type="curve"/>
      <point x="249" y="744"/>
      <point x="246" y="738"/>
      <point x="241" y="735" type="curve"/>
      <point x="227" y="729" type="line"/>
      <point x="226" y="729"/>
      <point x="224" y="728"/>
    </contour>
    <contour>
      <point x="790" y="85" type="curve"/>
      <point x="797" y="80"/>
      <point x="808" y="81"/>
      <point x="813" y="88" type="curve" smooth="yes"/>
      <point x="885" y="184" type="line"/>
      <point x="891" y="191"/>
      <point x="889" y="201"/>
      <point x="882" y="207" type="curve"/>
      <point x="874" y="212"/>
      <point x="864" y="211"/>
      <point x="859" y="204" type="curve" smooth="yes"/>
      <point x="787" y="108" type="line"/>
      <point x="781" y="101"/>
      <point x="783" y="91"/>
    </contour>
    <contour>
      <point x="491" y="473" type="curve" smooth="yes"/>
      <point x="490" y="473"/>
      <point x="488" y="473"/>
      <point x="487" y="474" type="curve"/>
      <point x="481" y="477"/>
      <point x="479" y="483"/>
      <point x="481" y="488" type="curve" smooth="yes"/>
      <point x="483" y="493"/>
      <point x="485" y="498"/>
      <point x="486" y="502" type="curve"/>
      <point x="488" y="508"/>
      <point x="495" y="511"/>
      <point x="500" y="509" type="curve"/>
      <point x="506" y="507"/>
      <point x="509" y="501"/>
      <point x="507" y="495" type="curve"/>
      <point x="501" y="479" type="line"/>
      <point x="499" y="476"/>
      <point x="496" y="473"/>
    </contour>
    <contour>
      <point x="969" y="-3" type="curve" smooth="yes"/>
      <point x="967" y="-3"/>
      <point x="965" y="-2"/>
      <point x="964" y="-1" type="curve"/>
      <point x="958" y="1"/>
      <point x="956" y="8"/>
      <point x="959" y="13" type="curve"/>
      <point x="965" y="26" type="line"/>
      <point x="967" y="32"/>
      <point x="974" y="35"/>
      <point x="979" y="33" type="curve"/>
      <point x="985" y="30"/>
      <point x="988" y="24"/>
      <point x="985" y="18" type="curve"/>
      <point x="979" y="3" type="line"/>
      <point x="977" y="0"/>
      <point x="973" y="-3"/>
    </contour>
    <contour>
      <point x="714" y="266" type="line"/>
      <point x="709" y="266"/>
      <point x="706" y="269"/>
      <point x="704" y="273" type="curve" smooth="yes"/>
      <point x="701" y="279"/>
      <point x="704" y="285"/>
      <point x="709" y="288" type="curve"/>
      <point x="715" y="290"/>
      <point x="720" y="292"/>
      <point x="725" y="293" type="curve"/>
      <point x="731" y="295"/>
      <point x="737" y="292"/>
      <point x="739" y="287" type="curve"/>
      <point x="741" y="281"/>
      <point x="738" y="274"/>
      <point x="732" y="272" type="curve"/>
      <point x="728" y="271"/>
      <point x="723" y="269"/>
      <point x="718" y="267" type="curve"/>
    </contour>
    <contour>
      <point x="297" y="748" type="line" smooth="yes"/>
      <point x="291" y="748"/>
      <point x="286" y="752"/>
      <point x="286" y="758" type="curve" smooth="yes"/>
      <point x="286" y="765"/>
      <point x="290" y="770"/>
      <point x="296" y="771" type="curve"/>
      <point x="312" y="771" type="line" smooth="yes"/>
      <point x="318" y="771"/>
      <point x="323" y="766"/>
      <point x="323" y="760" type="curve" smooth="yes"/>
      <point x="323" y="753"/>
      <point x="318" y="748"/>
      <point x="312" y="749" type="curve"/>
      <point x="310" y="749" type="line" smooth="yes"/>
      <point x="306" y="749"/>
      <point x="302" y="749"/>
      <point x="298" y="748" type="curve"/>
    </contour>
    <contour>
      <point x="507" y="548" type="curve" smooth="yes"/>
      <point x="501" y="548"/>
      <point x="496" y="553"/>
      <point x="496" y="560" type="curve" smooth="yes"/>
      <point x="496" y="575" type="line" smooth="yes"/>
      <point x="496" y="581"/>
      <point x="500" y="586"/>
      <point x="506" y="587" type="curve"/>
      <point x="512" y="587"/>
      <point x="518" y="583"/>
      <point x="518" y="576" type="curve"/>
      <point x="519" y="571"/>
      <point x="519" y="566"/>
      <point x="519" y="562" type="curve" smooth="yes"/>
      <point x="519" y="559" type="line" smooth="yes"/>
      <point x="519" y="553"/>
      <point x="513" y="548"/>
    </contour>
    <contour>
      <point x="988" y="72" type="line" smooth="yes"/>
      <point x="982" y="72"/>
      <point x="978" y="78"/>
      <point x="978" y="83" type="curve"/>
      <point x="978" y="98" type="line" smooth="yes"/>
      <point x="978" y="104"/>
      <point x="983" y="109"/>
      <point x="989" y="109" type="curve" smooth="yes"/>
      <point x="995" y="109"/>
      <point x="1000" y="104"/>
      <point x="1000" y="98" type="curve" smooth="yes"/>
      <point x="1000" y="82" type="line"/>
      <point x="999" y="76"/>
      <point x="995" y="72"/>
      <point x="989" y="72" type="curve" smooth="yes"/>
    </contour>
    <contour>
      <point x="790" y="282" type="line" smooth="yes"/>
      <point x="783" y="282"/>
      <point x="778" y="287"/>
      <point x="778" y="293" type="curve" smooth="yes"/>
      <point x="778" y="299"/>
      <point x="783" y="304"/>
      <point x="789" y="304" type="curve" smooth="yes"/>
      <point x="806" y="304" type="line"/>
      <point x="812" y="303"/>
      <point x="816" y="298"/>
      <point x="816" y="292" type="curve"/>
      <point x="815" y="286"/>
      <point x="810" y="282"/>
      <point x="804" y="282" type="curve" smooth="yes"/>
    </contour>
    <contour>
      <point x="610" y="473" type="curve" smooth="yes"/>
      <point x="606" y="473"/>
      <point x="602" y="476"/>
      <point x="600" y="479" type="curve"/>
      <point x="594" y="495" type="line"/>
      <point x="592" y="501"/>
      <point x="595" y="507"/>
      <point x="601" y="509" type="curve" smooth="yes"/>
      <point x="607" y="511"/>
      <point x="613" y="508"/>
      <point x="615" y="502" type="curve"/>
      <point x="621" y="488" type="line" smooth="yes"/>
      <point x="623" y="483"/>
      <point x="620" y="477"/>
      <point x="615" y="474" type="curve"/>
      <point x="613" y="473"/>
      <point x="612" y="473"/>
    </contour>
    <contour>
      <point x="388" y="733" type="curve" smooth="yes"/>
      <point x="386" y="733"/>
      <point x="385" y="733"/>
      <point x="383" y="734" type="curve"/>
      <point x="379" y="735"/>
      <point x="374" y="737"/>
      <point x="370" y="739" type="curve"/>
      <point x="364" y="741"/>
      <point x="360" y="747"/>
      <point x="362" y="753" type="curve"/>
      <point x="365" y="759"/>
      <point x="371" y="762"/>
      <point x="376" y="760" type="curve" smooth="yes"/>
      <point x="392" y="754" type="line"/>
      <point x="397" y="751"/>
      <point x="400" y="745"/>
      <point x="398" y="739" type="curve"/>
      <point x="396" y="735"/>
      <point x="392" y="733"/>
    </contour>
    <contour>
      <point x="493" y="625" type="line" smooth="yes"/>
      <point x="489" y="625"/>
      <point x="485" y="627"/>
      <point x="483" y="632" type="curve"/>
      <point x="477" y="645" type="line"/>
      <point x="474" y="650"/>
      <point x="477" y="657"/>
      <point x="482" y="660" type="curve" smooth="yes"/>
      <point x="487" y="663"/>
      <point x="494" y="661"/>
      <point x="497" y="655" type="curve"/>
      <point x="503" y="640" type="line"/>
      <point x="506" y="634"/>
      <point x="503" y="628"/>
      <point x="498" y="625" type="curve"/>
    </contour>
    <contour>
      <point x="979" y="148" type="line" smooth="yes"/>
      <point x="974" y="148"/>
      <point x="970" y="151"/>
      <point x="968" y="155" type="curve"/>
      <point x="967" y="160"/>
      <point x="965" y="165"/>
      <point x="963" y="169" type="curve" smooth="yes"/>
      <point x="960" y="175"/>
      <point x="963" y="181"/>
      <point x="969" y="184" type="curve"/>
      <point x="975" y="186"/>
      <point x="981" y="184"/>
      <point x="983" y="178" type="curve"/>
      <point x="989" y="163" type="line"/>
      <point x="991" y="157"/>
      <point x="988" y="150"/>
      <point x="982" y="148" type="curve"/>
    </contour>
    <contour>
      <point x="879" y="262" type="curve" smooth="yes"/>
      <point x="877" y="262"/>
      <point x="876" y="262"/>
      <point x="874" y="263" type="curve" smooth="yes"/>
      <point x="861" y="269" type="line"/>
      <point x="855" y="271"/>
      <point x="853" y="277"/>
      <point x="855" y="283" type="curve" smooth="yes"/>
      <point x="857" y="289"/>
      <point x="864" y="292"/>
      <point x="869" y="290" type="curve"/>
      <point x="874" y="287"/>
      <point x="879" y="285"/>
      <point x="884" y="283" type="curve"/>
      <point x="890" y="280"/>
      <point x="892" y="273"/>
      <point x="889" y="268" type="curve"/>
      <point x="887" y="264"/>
      <point x="883" y="262"/>
    </contour>
    <contour>
      <point x="451" y="689" type="curve" smooth="yes"/>
      <point x="448" y="689"/>
      <point x="445" y="690"/>
      <point x="443" y="692" type="curve"/>
      <point x="440" y="696"/>
      <point x="436" y="699"/>
      <point x="433" y="703" type="curve"/>
      <point x="428" y="707"/>
      <point x="427" y="714"/>
      <point x="432" y="718" type="curve"/>
      <point x="436" y="723"/>
      <point x="442" y="723"/>
      <point x="447" y="719" type="curve" smooth="yes"/>
      <point x="451" y="716"/>
      <point x="455" y="712"/>
      <point x="459" y="708" type="curve" smooth="yes"/>
      <point x="463" y="704"/>
      <point x="463" y="697"/>
      <point x="459" y="692" type="curve"/>
      <point x="457" y="690"/>
      <point x="454" y="689"/>
    </contour>
    <contour>
      <point x="594" y="548" type="curve" smooth="yes"/>
      <point x="588" y="548"/>
      <point x="583" y="553"/>
      <point x="583" y="559" type="curve" smooth="yes"/>
      <point x="583" y="576" type="line"/>
      <point x="584" y="583"/>
      <point x="589" y="587"/>
      <point x="595" y="587" type="curve"/>
      <point x="600" y="586"/>
      <point x="605" y="584"/>
      <point x="605" y="574" type="curve"/>
      <point x="605" y="560" type="line" smooth="yes"/>
      <point x="605" y="553"/>
      <point x="601" y="548"/>
    </contour>
    <contour>
      <point x="940" y="215" type="curve" smooth="yes"/>
      <point x="937" y="215"/>
      <point x="934" y="216"/>
      <point x="932" y="218" type="curve"/>
      <point x="929" y="222"/>
      <point x="925" y="226"/>
      <point x="922" y="229" type="curve"/>
      <point x="917" y="233"/>
      <point x="917" y="240"/>
      <point x="922" y="245" type="curve" smooth="yes"/>
      <point x="926" y="249"/>
      <point x="933" y="249"/>
      <point x="937" y="245" type="curve" smooth="yes"/>
      <point x="949" y="233" type="line" smooth="yes"/>
      <point x="953" y="229"/>
      <point x="952" y="222"/>
      <point x="948" y="217" type="curve"/>
      <point x="945" y="216"/>
      <point x="943" y="215"/>
    </contour>
    <contour>
      <point x="604" y="625" type="line"/>
      <point x="599" y="628"/>
      <point x="596" y="634"/>
      <point x="598" y="640" type="curve"/>
      <point x="600" y="645"/>
      <point x="603" y="650"/>
      <point x="605" y="655" type="curve"/>
      <point x="607" y="661"/>
      <point x="614" y="663"/>
      <point x="620" y="660" type="curve"/>
      <point x="625" y="657"/>
      <point x="627" y="650"/>
      <point x="624" y="645" type="curve"/>
      <point x="623" y="641"/>
      <point x="621" y="636"/>
      <point x="619" y="632" type="curve"/>
      <point x="617" y="627"/>
      <point x="613" y="625"/>
      <point x="608" y="625" type="curve" smooth="yes"/>
    </contour>
    <contour>
      <point x="791" y="396" type="curve" smooth="yes"/>
      <point x="699" y="396"/>
      <point x="624" y="472"/>
      <point x="624" y="564" type="curve" smooth="yes"/>
      <point x="624" y="657"/>
      <point x="699" y="732"/>
      <point x="791" y="732" type="curve" smooth="yes"/>
      <point x="884" y="732"/>
      <point x="959" y="657"/>
      <point x="959" y="564" type="curve" smooth="yes"/>
      <point x="959" y="472"/>
      <point x="884" y="396"/>
    </contour>
    <contour>
      <point x="650" y="689" type="curve" smooth="yes"/>
      <point x="647" y="689"/>
      <point x="645" y="690"/>
      <point x="643" y="692" type="curve" smooth="yes"/>
      <point x="638" y="697"/>
      <point x="638" y="704"/>
      <point x="643" y="708" type="curve"/>
      <point x="646" y="712"/>
      <point x="650" y="716"/>
      <point x="654" y="719" type="curve" smooth="yes"/>
      <point x="659" y="723"/>
      <point x="666" y="723"/>
      <point x="670" y="718" type="curve"/>
      <point x="674" y="714"/>
      <point x="674" y="707"/>
      <point x="669" y="703" type="curve"/>
      <point x="666" y="699"/>
      <point x="662" y="696"/>
      <point x="658" y="692" type="curve" smooth="yes"/>
      <point x="656" y="690"/>
      <point x="653" y="689"/>
    </contour>
    <contour>
      <point x="791" y="554" type="curve"/>
      <point x="799" y="559"/>
      <point x="801" y="570"/>
      <point x="796" y="577" type="curve" smooth="yes"/>
      <point x="728" y="675" type="line"/>
      <point x="723" y="683"/>
      <point x="712" y="685"/>
      <point x="705" y="679" type="curve"/>
      <point x="697" y="674"/>
      <point x="695" y="664"/>
      <point x="701" y="656" type="curve"/>
      <point x="769" y="558" type="line" smooth="yes"/>
      <point x="774" y="551"/>
      <point x="784" y="549"/>
    </contour>
    <contour>
      <point x="969" y="464" type="curve" smooth="yes"/>
      <point x="967" y="464"/>
      <point x="965" y="464"/>
      <point x="964" y="465" type="curve"/>
      <point x="958" y="468"/>
      <point x="956" y="474"/>
      <point x="959" y="479" type="curve"/>
      <point x="965" y="493" type="line"/>
      <point x="967" y="499"/>
      <point x="974" y="501"/>
      <point x="979" y="499" type="curve"/>
      <point x="985" y="497"/>
      <point x="988" y="491"/>
      <point x="985" y="485" type="curve"/>
      <point x="979" y="470" type="line"/>
      <point x="977" y="466"/>
      <point x="973" y="464"/>
    </contour>
    <contour>
      <point x="714" y="733" type="curve" smooth="yes"/>
      <point x="709" y="733"/>
      <point x="706" y="735"/>
      <point x="704" y="739" type="curve" smooth="yes"/>
      <point x="701" y="745"/>
      <point x="704" y="751"/>
      <point x="709" y="754" type="curve"/>
      <point x="725" y="760" type="line"/>
      <point x="731" y="762"/>
      <point x="737" y="759"/>
      <point x="739" y="753" type="curve" smooth="yes"/>
      <point x="741" y="747"/>
      <point x="738" y="741"/>
      <point x="732" y="739" type="curve"/>
      <point x="728" y="737"/>
      <point x="723" y="735"/>
      <point x="718" y="734" type="curve"/>
      <point x="717" y="733"/>
      <point x="715" y="733"/>
    </contour>
    <contour>
      <point x="988" y="538" type="line"/>
      <point x="982" y="539"/>
      <point x="978" y="544"/>
      <point x="978" y="550" type="curve"/>
      <point x="978" y="564" type="line" smooth="yes"/>
      <point x="978" y="571"/>
      <point x="983" y="576"/>
      <point x="989" y="576" type="curve" smooth="yes"/>
      <point x="995" y="576"/>
      <point x="1000" y="571"/>
      <point x="1000" y="565" type="curve" smooth="yes"/>
      <point x="1000" y="548" type="line"/>
      <point x="999" y="542"/>
      <point x="995" y="538"/>
      <point x="989" y="538" type="curve" smooth="yes"/>
    </contour>
    <contour>
      <point x="804" y="748" type="curve"/>
      <point x="800" y="749"/>
      <point x="795" y="749"/>
      <point x="791" y="749" type="curve" smooth="yes"/>
      <point x="790" y="749" type="line"/>
      <point x="783" y="748"/>
      <point x="778" y="753"/>
      <point x="778" y="760" type="curve" smooth="yes"/>
      <point x="778" y="766"/>
      <point x="783" y="771"/>
      <point x="789" y="771" type="curve" smooth="yes"/>
      <point x="806" y="771" type="line"/>
      <point x="812" y="770"/>
      <point x="816" y="765"/>
      <point x="816" y="758" type="curve"/>
      <point x="815" y="752"/>
      <point x="810" y="748"/>
    </contour>
    <contour>
      <point x="979" y="614" type="curve" smooth="yes"/>
      <point x="974" y="614"/>
      <point x="970" y="617"/>
      <point x="968" y="622" type="curve"/>
      <point x="967" y="626"/>
      <point x="965" y="631"/>
      <point x="963" y="636" type="curve"/>
      <point x="960" y="641"/>
      <point x="963" y="648"/>
      <point x="969" y="650" type="curve"/>
      <point x="975" y="653"/>
      <point x="981" y="650"/>
      <point x="983" y="645" type="curve" smooth="yes"/>
      <point x="989" y="629" type="line" smooth="yes"/>
      <point x="991" y="624"/>
      <point x="988" y="617"/>
      <point x="982" y="615" type="curve"/>
      <point x="981" y="615"/>
      <point x="980" y="614"/>
    </contour>
    <contour>
      <point x="879" y="728" type="curve" smooth="yes"/>
      <point x="877" y="728"/>
      <point x="876" y="729"/>
      <point x="874" y="729" type="curve"/>
      <point x="861" y="735" type="line" smooth="yes"/>
      <point x="855" y="738"/>
      <point x="853" y="744"/>
      <point x="855" y="750" type="curve"/>
      <point x="857" y="755"/>
      <point x="864" y="758"/>
      <point x="869" y="756" type="curve" smooth="yes"/>
      <point x="874" y="754"/>
      <point x="879" y="751"/>
      <point x="884" y="749" type="curve"/>
      <point x="890" y="747"/>
      <point x="892" y="740"/>
      <point x="889" y="734" type="curve" smooth="yes"/>
      <point x="887" y="730"/>
      <point x="883" y="728"/>
    </contour>
    <contour>
      <point x="940" y="681" type="curve" smooth="yes"/>
      <point x="937" y="681"/>
      <point x="934" y="683"/>
      <point x="932" y="685" type="curve" smooth="yes"/>
      <point x="929" y="688"/>
      <point x="925" y="692"/>
      <point x="922" y="696" type="curve"/>
      <point x="917" y="700"/>
      <point x="917" y="707"/>
      <point x="922" y="711" type="curve"/>
      <point x="926" y="716"/>
      <point x="933" y="716"/>
      <point x="937" y="711" type="curve"/>
      <point x="941" y="708"/>
      <point x="945" y="704"/>
      <point x="949" y="700" type="curve"/>
      <point x="953" y="695"/>
      <point x="952" y="688"/>
      <point x="948" y="684" type="curve"/>
      <point x="945" y="682"/>
      <point x="943" y="681"/>
    </contour>
  </outline>
</glyph>
<glyph name="filmFrames" format="2">
  <advance width="1102"/>
  <unicode hex="1F39E"/>
  <outline>
    <contour>
      <point x="51" y="25" type="line"/>
      <point x="1051" y="25" type="line"/>
      <point x="1051" y="72" type="line"/>
      <point x="1051" y="68"/>
      <point x="1047" y="64"/>
      <point x="1043" y="64" type="curve" smooth="yes"/>
      <point x="996" y="64" type="line" smooth="yes"/>
      <point x="992" y="64"/>
      <point x="988" y="68"/>
      <point x="988" y="72" type="curve" smooth="yes"/>
      <point x="988" y="119" type="line" smooth="yes"/>
      <point x="988" y="124"/>
      <point x="992" y="127"/>
      <point x="996" y="127" type="curve" smooth="yes"/>
      <point x="1043" y="127" type="line" smooth="yes"/>
      <point x="1047" y="127"/>
      <point x="1051" y="124"/>
      <point x="1051" y="119" type="curve"/>
      <point x="1051" y="166" type="line"/>
      <point x="926" y="166" type="line" smooth="yes"/>
      <point x="917" y="166"/>
      <point x="910" y="173"/>
      <point x="910" y="182" type="curve" smooth="yes"/>
      <point x="910" y="541" type="line" smooth="yes"/>
      <point x="910" y="550"/>
      <point x="917" y="557"/>
      <point x="926" y="557" type="curve" smooth="yes"/>
      <point x="1051" y="557" type="line"/>
      <point x="1051" y="604" type="line"/>
      <point x="1051" y="600"/>
      <point x="1047" y="596"/>
      <point x="1043" y="596" type="curve" smooth="yes"/>
      <point x="996" y="596" type="line" smooth="yes"/>
      <point x="992" y="596"/>
      <point x="988" y="600"/>
      <point x="988" y="604" type="curve" smooth="yes"/>
      <point x="988" y="651" type="line" smooth="yes"/>
      <point x="988" y="655"/>
      <point x="992" y="659"/>
      <point x="996" y="659" type="curve" smooth="yes"/>
      <point x="1043" y="659" type="line" smooth="yes"/>
      <point x="1047" y="659"/>
      <point x="1051" y="655"/>
      <point x="1051" y="651" type="curve"/>
      <point x="1051" y="697" type="line"/>
      <point x="51" y="697" type="line"/>
      <point x="51" y="651" type="line"/>
      <point x="51" y="655"/>
      <point x="54" y="659"/>
      <point x="59" y="659" type="curve" smooth="yes"/>
      <point x="105" y="659" type="line" smooth="yes"/>
      <point x="110" y="659"/>
      <point x="113" y="655"/>
      <point x="113" y="651" type="curve" smooth="yes"/>
      <point x="113" y="604" type="line" smooth="yes"/>
      <point x="113" y="600"/>
      <point x="110" y="596"/>
      <point x="105" y="596" type="curve" smooth="yes"/>
      <point x="59" y="596" type="line" smooth="yes"/>
      <point x="54" y="596"/>
      <point x="51" y="600"/>
      <point x="51" y="604" type="curve"/>
      <point x="51" y="557" type="line"/>
      <point x="176" y="557" type="line" smooth="yes"/>
      <point x="185" y="557"/>
      <point x="191" y="550"/>
      <point x="191" y="541" type="curve" smooth="yes"/>
      <point x="191" y="182" type="line" smooth="yes"/>
      <point x="191" y="173"/>
      <point x="185" y="166"/>
      <point x="176" y="166" type="curve" smooth="yes"/>
      <point x="51" y="166" type="line"/>
      <point x="51" y="119" type="line"/>
      <point x="51" y="124"/>
      <point x="54" y="127"/>
      <point x="59" y="127" type="curve" smooth="yes"/>
      <point x="105" y="127" type="line" smooth="yes"/>
      <point x="110" y="127"/>
      <point x="113" y="124"/>
      <point x="113" y="119" type="curve" smooth="yes"/>
      <point x="113" y="72" type="line" smooth="yes"/>
      <point x="113" y="68"/>
      <point x="110" y="64"/>
      <point x="105" y="64" type="curve" smooth="yes"/>
      <point x="59" y="64" type="line" smooth="yes"/>
      <point x="54" y="64"/>
      <point x="51" y="68"/>
      <point x="51" y="72" type="curve"/>
    </contour>
    <contour>
      <point x="192" y="64" type="line" smooth="yes"/>
      <point x="188" y="64"/>
      <point x="185" y="68"/>
      <point x="185" y="72" type="curve" smooth="yes"/>
      <point x="185" y="119" type="line" smooth="yes"/>
      <point x="185" y="124"/>
      <point x="188" y="127"/>
      <point x="192" y="127" type="curve" smooth="yes"/>
      <point x="239" y="127" type="line" smooth="yes"/>
      <point x="244" y="127"/>
      <point x="247" y="124"/>
      <point x="247" y="119" type="curve" smooth="yes"/>
      <point x="247" y="72" type="line" smooth="yes"/>
      <point x="247" y="68"/>
      <point x="244" y="64"/>
      <point x="239" y="64" type="curve" smooth="yes"/>
    </contour>
    <contour>
      <point x="327" y="64" type="line" smooth="yes"/>
      <point x="322" y="64"/>
      <point x="319" y="68"/>
      <point x="319" y="72" type="curve" smooth="yes"/>
      <point x="319" y="119" type="line" smooth="yes"/>
      <point x="319" y="124"/>
      <point x="322" y="127"/>
      <point x="327" y="127" type="curve" smooth="yes"/>
      <point x="374" y="127" type="line" smooth="yes"/>
      <point x="377" y="127"/>
      <point x="381" y="124"/>
      <point x="381" y="119" type="curve" smooth="yes"/>
      <point x="381" y="72" type="line" smooth="yes"/>
      <point x="381" y="68"/>
      <point x="377" y="64"/>
      <point x="374" y="64" type="curve" smooth="yes"/>
    </contour>
    <contour>
      <point x="460" y="64" type="line" smooth="yes"/>
      <point x="456" y="64"/>
      <point x="453" y="68"/>
      <point x="453" y="72" type="curve" smooth="yes"/>
      <point x="453" y="119" type="line" smooth="yes"/>
      <point x="453" y="124"/>
      <point x="456" y="127"/>
      <point x="460" y="127" type="curve" smooth="yes"/>
      <point x="507" y="127" type="line" smooth="yes"/>
      <point x="512" y="127"/>
      <point x="515" y="124"/>
      <point x="515" y="119" type="curve" smooth="yes"/>
      <point x="515" y="72" type="line" smooth="yes"/>
      <point x="515" y="68"/>
      <point x="512" y="64"/>
      <point x="507" y="64" type="curve" smooth="yes"/>
    </contour>
    <contour>
      <point x="594" y="64" type="line" smooth="yes"/>
      <point x="590" y="64"/>
      <point x="586" y="68"/>
      <point x="586" y="72" type="curve" smooth="yes"/>
      <point x="586" y="119" type="line" smooth="yes"/>
      <point x="586" y="124"/>
      <point x="590" y="127"/>
      <point x="594" y="127" type="curve" smooth="yes"/>
      <point x="641" y="127" type="line" smooth="yes"/>
      <point x="645" y="127"/>
      <point x="649" y="124"/>
      <point x="649" y="119" type="curve" smooth="yes"/>
      <point x="649" y="72" type="line" smooth="yes"/>
      <point x="649" y="68"/>
      <point x="645" y="64"/>
      <point x="641" y="64" type="curve" smooth="yes"/>
    </contour>
    <contour>
      <point x="192" y="596" type="line" smooth="yes"/>
      <point x="188" y="596"/>
      <point x="185" y="600"/>
      <point x="185" y="604" type="curve" smooth="yes"/>
      <point x="185" y="651" type="line" smooth="yes"/>
      <point x="185" y="655"/>
      <point x="188" y="659"/>
      <point x="192" y="659" type="curve" smooth="yes"/>
      <point x="239" y="659" type="line" smooth="yes"/>
      <point x="244" y="659"/>
      <point x="247" y="655"/>
      <point x="247" y="651" type="curve" smooth="yes"/>
      <point x="247" y="604" type="line" smooth="yes"/>
      <point x="247" y="600"/>
      <point x="244" y="596"/>
      <point x="239" y="596" type="curve" smooth="yes"/>
    </contour>
    <contour>
      <point x="728" y="64" type="line" smooth="yes"/>
      <point x="724" y="64"/>
      <point x="720" y="68"/>
      <point x="720" y="72" type="curve" smooth="yes"/>
      <point x="720" y="119" type="line" smooth="yes"/>
      <point x="720" y="124"/>
      <point x="724" y="127"/>
      <point x="728" y="127" type="curve" smooth="yes"/>
      <point x="775" y="127" type="line" smooth="yes"/>
      <point x="779" y="127"/>
      <point x="783" y="124"/>
      <point x="783" y="119" type="curve" smooth="yes"/>
      <point x="783" y="72" type="line" smooth="yes"/>
      <point x="783" y="68"/>
      <point x="779" y="64"/>
      <point x="775" y="64" type="curve" smooth="yes"/>
    </contour>
    <contour>
      <point x="269" y="166" type="line" smooth="yes"/>
      <point x="261" y="166"/>
      <point x="254" y="173"/>
      <point x="254" y="181" type="curve" smooth="yes"/>
      <point x="254" y="542" type="line" smooth="yes"/>
      <point x="254" y="550"/>
      <point x="261" y="557"/>
      <point x="269" y="557" type="curve" smooth="yes"/>
      <point x="833" y="557" type="line" smooth="yes"/>
      <point x="841" y="557"/>
      <point x="847" y="550"/>
      <point x="847" y="542" type="curve" smooth="yes"/>
      <point x="847" y="181" type="line" smooth="yes"/>
      <point x="847" y="173"/>
      <point x="841" y="166"/>
      <point x="833" y="166" type="curve" smooth="yes"/>
    </contour>
    <contour>
      <point x="327" y="596" type="line" smooth="yes"/>
      <point x="322" y="596"/>
      <point x="319" y="600"/>
      <point x="319" y="604" type="curve" smooth="yes"/>
      <point x="319" y="651" type="line" smooth="yes"/>
      <point x="319" y="655"/>
      <point x="322" y="659"/>
      <point x="327" y="659" type="curve" smooth="yes"/>
      <point x="374" y="659" type="line" smooth="yes"/>
      <point x="377" y="659"/>
      <point x="381" y="655"/>
      <point x="381" y="651" type="curve" smooth="yes"/>
      <point x="381" y="604" type="line" smooth="yes"/>
      <point x="381" y="600"/>
      <point x="377" y="596"/>
      <point x="374" y="596" type="curve" smooth="yes"/>
    </contour>
    <contour>
      <point x="862" y="64" type="line" smooth="yes"/>
      <point x="858" y="64"/>
      <point x="854" y="68"/>
      <point x="854" y="72" type="curve" smooth="yes"/>
      <point x="854" y="119" type="line" smooth="yes"/>
      <point x="854" y="124"/>
      <point x="858" y="127"/>
      <point x="862" y="127" type="curve" smooth="yes"/>
      <point x="909" y="127" type="line" smooth="yes"/>
      <point x="914" y="127"/>
      <point x="917" y="124"/>
      <point x="917" y="119" type="curve" smooth="yes"/>
      <point x="917" y="72" type="line" smooth="yes"/>
      <point x="917" y="68"/>
      <point x="914" y="64"/>
      <point x="909" y="64" type="curve" smooth="yes"/>
    </contour>
    <contour>
      <point x="460" y="596" type="line" smooth="yes"/>
      <point x="456" y="596"/>
      <point x="453" y="600"/>
      <point x="453" y="604" type="curve" smooth="yes"/>
      <point x="453" y="651" type="line" smooth="yes"/>
      <point x="453" y="655"/>
      <point x="456" y="659"/>
      <point x="460" y="659" type="curve" smooth="yes"/>
      <point x="507" y="659" type="line" smooth="yes"/>
      <point x="512" y="659"/>
      <point x="515" y="655"/>
      <point x="515" y="651" type="curve" smooth="yes"/>
      <point x="515" y="604" type="line" smooth="yes"/>
      <point x="515" y="600"/>
      <point x="512" y="596"/>
      <point x="507" y="596" type="curve" smooth="yes"/>
    </contour>
    <contour>
      <point x="594" y="596" type="line" smooth="yes"/>
      <point x="590" y="596"/>
      <point x="586" y="600"/>
      <point x="586" y="604" type="curve" smooth="yes"/>
      <point x="586" y="651" type="line" smooth="yes"/>
      <point x="586" y="655"/>
      <point x="590" y="659"/>
      <point x="594" y="659" type="curve" smooth="yes"/>
      <point x="641" y="659" type="line" smooth="yes"/>
      <point x="645" y="659"/>
      <point x="649" y="655"/>
      <point x="649" y="651" type="curve" smooth="yes"/>
      <point x="649" y="604" type="line" smooth="yes"/>
      <point x="649" y="600"/>
      <point x="645" y="596"/>
      <point x="641" y="596" type="curve" smooth="yes"/>
    </contour>
    <contour>
      <point x="728" y="596" type="line" smooth="yes"/>
      <point x="724" y="596"/>
      <point x="720" y="600"/>
      <point x="720" y="604" type="curve" smooth="yes"/>
      <point x="720" y="651" type="line" smooth="yes"/>
      <point x="720" y="655"/>
      <point x="724" y="659"/>
      <point x="728" y="659" type="curve" smooth="yes"/>
      <point x="775" y="659" type="line" smooth="yes"/>
      <point x="779" y="659"/>
      <point x="783" y="655"/>
      <point x="783" y="651" type="curve" smooth="yes"/>
      <point x="783" y="604" type="line" smooth="yes"/>
      <point x="783" y="600"/>
      <point x="779" y="596"/>
      <point x="775" y="596" type="curve" smooth="yes"/>
    </contour>
    <contour>
      <point x="862" y="596" type="line" smooth="yes"/>
      <point x="858" y="596"/>
      <point x="854" y="600"/>
      <point x="854" y="604" type="curve" smooth="yes"/>
      <point x="854" y="651" type="line" smooth="yes"/>
      <point x="854" y="655"/>
      <point x="858" y="659"/>
      <point x="862" y="659" type="curve" smooth="yes"/>
      <point x="909" y="659" type="line" smooth="yes"/>
      <point x="914" y="659"/>
      <point x="917" y="655"/>
      <point x="917" y="651" type="curve" smooth="yes"/>
      <point x="917" y="604" type="line" smooth="yes"/>
      <point x="917" y="600"/>
      <point x="914" y="596"/>
      <point x="909" y="596" type="curve" smooth="yes"/>
    </contour>
  </outline>
</glyph>
<glyph name="admissionTickets" format="2">
  <advance width="1099"/>
  <unicode hex="1F39F"/>
  <outline>
    <contour>
      <point x="122" y="46" type="line"/>
      <point x="978" y="46" type="line"/>
      <point x="978" y="85"/>
      <point x="1009" y="117"/>
      <point x="1048" y="117" type="curve"/>
      <point x="1048" y="183" type="line"/>
      <point x="1020" y="193"/>
      <point x="1001" y="219"/>
      <point x="1001" y="250" type="curve" smooth="yes"/>
      <point x="1001" y="280"/>
      <point x="1020" y="306"/>
      <point x="1048" y="316" type="curve"/>
      <point x="1048" y="386" type="line"/>
      <point x="1020" y="396"/>
      <point x="1001" y="422"/>
      <point x="1001" y="453" type="curve" smooth="yes"/>
      <point x="1001" y="483"/>
      <point x="1020" y="509"/>
      <point x="1048" y="519" type="curve"/>
      <point x="1048" y="585" type="line"/>
      <point x="1010" y="585"/>
      <point x="978" y="617"/>
      <point x="978" y="656" type="curve"/>
      <point x="122" y="656" type="line"/>
      <point x="122" y="653" type="line" smooth="yes"/>
      <point x="121" y="616"/>
      <point x="89" y="585"/>
      <point x="51" y="585" type="curve"/>
      <point x="51" y="519" type="line"/>
      <point x="79" y="509"/>
      <point x="99" y="483"/>
      <point x="99" y="453" type="curve" smooth="yes"/>
      <point x="99" y="422"/>
      <point x="79" y="396"/>
      <point x="51" y="386" type="curve"/>
      <point x="51" y="316" type="line"/>
      <point x="79" y="306"/>
      <point x="99" y="280"/>
      <point x="99" y="250" type="curve" smooth="yes"/>
      <point x="99" y="219"/>
      <point x="79" y="193"/>
      <point x="51" y="183" type="curve"/>
      <point x="51" y="117" type="line"/>
      <point x="89" y="117"/>
      <point x="121" y="86"/>
      <point x="122" y="49" type="curve" smooth="yes"/>
    </contour>
    <contour>
      <point x="209" y="133" type="curve" smooth="yes"/>
      <point x="365" y="133" type="line"/>
      <point x="365" y="563" type="line"/>
      <point x="209" y="563" type="line" smooth="yes"/>
      <point x="207" y="563"/>
      <point x="206" y="562"/>
      <point x="206" y="561" type="curve" smooth="yes"/>
      <point x="206" y="137" type="line" smooth="yes"/>
      <point x="206" y="135"/>
      <point x="207" y="133"/>
    </contour>
    <contour>
      <point x="209" y="95" type="line" smooth="yes"/>
      <point x="186" y="95"/>
      <point x="167" y="114"/>
      <point x="167" y="137" type="curve" smooth="yes"/>
      <point x="167" y="561" type="line" smooth="yes"/>
      <point x="167" y="583"/>
      <point x="186" y="602"/>
      <point x="209" y="602" type="curve" smooth="yes"/>
      <point x="891" y="602" type="line" smooth="yes"/>
      <point x="914" y="602"/>
      <point x="932" y="583"/>
      <point x="932" y="561" type="curve" smooth="yes"/>
      <point x="932" y="137" type="line" smooth="yes"/>
      <point x="932" y="114"/>
      <point x="914" y="95"/>
      <point x="891" y="95" type="curve" smooth="yes"/>
    </contour>
    <contour>
      <point x="403" y="133" type="line"/>
      <point x="692" y="133" type="line"/>
      <point x="692" y="563" type="line"/>
      <point x="403" y="563" type="line"/>
    </contour>
    <contour>
      <point x="731" y="133" type="line"/>
      <point x="891" y="133" type="line" smooth="yes"/>
      <point x="892" y="133"/>
      <point x="894" y="135"/>
      <point x="894" y="137" type="curve" smooth="yes"/>
      <point x="894" y="561" type="line" smooth="yes"/>
      <point x="894" y="562"/>
      <point x="892" y="563"/>
      <point x="891" y="563" type="curve" smooth="yes"/>
      <point x="731" y="563" type="line"/>
    </contour>
  </outline>
</glyph>
<glyph name="weightLifter" format="2">
  <advance width="1005"/>
  <unicode hex="1F3CB"/>
  <outline>
    <contour>
      <point x="143" y="667" type="curve" smooth="yes"/>
      <point x="155" y="667" type="line" smooth="yes"/>
      <point x="161" y="667"/>
      <point x="167" y="669"/>
      <point x="172" y="672" type="curve"/>
      <point x="176" y="676" type="line"/>
      <point x="181" y="682"/>
      <point x="185" y="689"/>
      <point x="185" y="697" type="curve" smooth="yes"/>
      <point x="185" y="772" type="line"/>
      <point x="821" y="772" type="line"/>
      <point x="821" y="697" type="line" smooth="yes"/>
      <point x="821" y="689"/>
      <point x="824" y="682"/>
      <point x="829" y="676" type="curve"/>
      <point x="831" y="674"/>
      <point x="833" y="673"/>
      <point x="836" y="671" type="curve"/>
      <point x="840" y="669"/>
      <point x="846" y="667"/>
      <point x="851" y="667" type="curve" smooth="yes"/>
      <point x="863" y="667" type="line" smooth="yes"/>
      <point x="868" y="667"/>
      <point x="874" y="669"/>
      <point x="879" y="672" type="curve"/>
      <point x="884" y="676"/>
      <point x="888" y="680"/>
      <point x="890" y="686" type="curve"/>
      <point x="892" y="689"/>
      <point x="892" y="693"/>
      <point x="892" y="697" type="curve" smooth="yes"/>
      <point x="892" y="772" type="line"/>
      <point x="909" y="772" type="line"/>
      <point x="909" y="719" type="line" smooth="yes"/>
      <point x="909" y="708"/>
      <point x="917" y="700"/>
      <point x="928" y="700" type="curve" smooth="yes"/>
      <point x="935" y="700" type="line" smooth="yes"/>
      <point x="946" y="700"/>
      <point x="954" y="708"/>
      <point x="954" y="719" type="curve" smooth="yes"/>
      <point x="954" y="850" type="line" smooth="yes"/>
      <point x="954" y="860"/>
      <point x="946" y="869"/>
      <point x="935" y="869" type="curve" smooth="yes"/>
      <point x="928" y="869" type="line" smooth="yes"/>
      <point x="917" y="869"/>
      <point x="909" y="860"/>
      <point x="909" y="850" type="curve" smooth="yes"/>
      <point x="909" y="797" type="line"/>
      <point x="892" y="797" type="line"/>
      <point x="892" y="871" type="line" smooth="yes"/>
      <point x="892" y="888"/>
      <point x="879" y="901"/>
      <point x="863" y="901" type="curve" smooth="yes"/>
      <point x="851" y="901" type="line" smooth="yes"/>
      <point x="834" y="901"/>
      <point x="821" y="888"/>
      <point x="821" y="871" type="curve" smooth="yes"/>
      <point x="821" y="797" type="line"/>
      <point x="185" y="797" type="line"/>
      <point x="185" y="871" type="line" smooth="yes"/>
      <point x="185" y="888"/>
      <point x="172" y="901"/>
      <point x="155" y="901" type="curve" smooth="yes"/>
      <point x="143" y="901" type="line" smooth="yes"/>
      <point x="127" y="901"/>
      <point x="113" y="888"/>
      <point x="113" y="871" type="curve" smooth="yes"/>
      <point x="113" y="797" type="line"/>
      <point x="97" y="797" type="line"/>
      <point x="97" y="850" type="line" smooth="yes"/>
      <point x="97" y="860"/>
      <point x="89" y="869"/>
      <point x="78" y="869" type="curve" smooth="yes"/>
      <point x="71" y="869" type="line" smooth="yes"/>
      <point x="60" y="869"/>
      <point x="51" y="860"/>
      <point x="51" y="850" type="curve" smooth="yes"/>
      <point x="51" y="719" type="line" smooth="yes"/>
      <point x="51" y="708"/>
      <point x="60" y="700"/>
      <point x="71" y="700" type="curve" smooth="yes"/>
      <point x="78" y="700" type="line" smooth="yes"/>
      <point x="82" y="700"/>
      <point x="86" y="701"/>
      <point x="89" y="703" type="curve"/>
      <point x="94" y="707"/>
      <point x="97" y="712"/>
      <point x="97" y="719" type="curve" smooth="yes"/>
      <point x="97" y="772" type="line"/>
      <point x="113" y="772" type="line"/>
      <point x="113" y="697" type="line" smooth="yes"/>
      <point x="113" y="689"/>
      <point x="117" y="682"/>
      <point x="122" y="676" type="curve"/>
      <point x="126" y="672" type="line"/>
      <point x="131" y="669"/>
      <point x="137" y="667"/>
    </contour>
    <contour>
      <point x="286" y="-94" type="line"/>
      <point x="388" y="-94" type="line"/>
      <point x="388" y="-40" type="line"/>
      <point x="389" y="13" type="line" smooth="yes"/>
      <point x="389" y="18"/>
      <point x="393" y="52"/>
      <point x="393" y="86" type="curve" smooth="yes"/>
      <point x="393" y="95"/>
      <point x="393" y="103"/>
      <point x="392" y="111" type="curve"/>
      <point x="391" y="123"/>
      <point x="389" y="132"/>
      <point x="387" y="141" type="curve"/>
      <point x="400" y="148"/>
      <point x="444" y="180"/>
      <point x="457" y="191" type="curve" smooth="yes"/>
      <point x="466" y="199"/>
      <point x="480" y="213"/>
      <point x="485" y="217" type="curve"/>
      <point x="491" y="223"/>
      <point x="499" y="223"/>
      <point x="503" y="223" type="curve" smooth="yes"/>
      <point x="507" y="223"/>
      <point x="514" y="223"/>
      <point x="521" y="217" type="curve" smooth="yes"/>
      <point x="526" y="213"/>
      <point x="539" y="200"/>
      <point x="548" y="193" type="curve" smooth="yes"/>
      <point x="588" y="162"/>
      <point x="604" y="149"/>
      <point x="619" y="141" type="curve"/>
      <point x="617" y="132"/>
      <point x="615" y="123"/>
      <point x="614" y="111" type="curve" smooth="yes"/>
      <point x="613" y="102"/>
      <point x="613" y="93"/>
      <point x="613" y="83" type="curve" smooth="yes"/>
      <point x="613" y="50"/>
      <point x="617" y="18"/>
      <point x="617" y="13" type="curve" smooth="yes"/>
      <point x="618" y="-40" type="line"/>
      <point x="618" y="-94" type="line"/>
      <point x="720" y="-94" type="line"/>
      <point x="720" y="-77" type="line" smooth="yes"/>
      <point x="720" y="-56"/>
      <point x="702" y="-40"/>
      <point x="682" y="-40" type="curve" smooth="yes"/>
      <point x="671" y="-40" type="line"/>
      <point x="684" y="13" type="line" smooth="yes"/>
      <point x="700" y="79"/>
      <point x="712" y="118"/>
      <point x="712" y="163" type="curve" smooth="yes"/>
      <point x="712" y="167" type="line"/>
      <point x="704" y="197"/>
      <point x="696" y="212"/>
      <point x="664" y="251" type="curve"/>
      <point x="642" y="280"/>
      <point x="614" y="304"/>
      <point x="581" y="331" type="curve"/>
      <point x="425" y="331" type="line"/>
      <point x="392" y="304"/>
      <point x="364" y="280"/>
      <point x="342" y="251" type="curve"/>
      <point x="319" y="226"/>
      <point x="294" y="187"/>
      <point x="294" y="167" type="curve" smooth="yes"/>
      <point x="294" y="163" type="line" smooth="yes"/>
      <point x="294" y="118"/>
      <point x="306" y="79"/>
      <point x="322" y="13" type="curve" smooth="yes"/>
      <point x="335" y="-40" type="line"/>
      <point x="324" y="-40" type="line" smooth="yes"/>
      <point x="303" y="-40"/>
      <point x="286" y="-56"/>
      <point x="286" y="-77" type="curve" smooth="yes"/>
    </contour>
    <contour>
      <point x="414" y="304" type="curve"/>
      <point x="592" y="304" type="line"/>
      <point x="598" y="336"/>
      <point x="605" y="373"/>
      <point x="605" y="399" type="curve" smooth="yes"/>
      <point x="605" y="405"/>
      <point x="604" y="410"/>
      <point x="604" y="414" type="curve"/>
      <point x="617" y="437"/>
      <point x="625" y="457"/>
      <point x="625" y="506" type="curve"/>
      <point x="572" y="543" type="line"/>
      <point x="569" y="548"/>
      <point x="551" y="551"/>
      <point x="537" y="551" type="curve" smooth="yes"/>
      <point x="469" y="551" type="line" smooth="yes"/>
      <point x="447" y="551"/>
      <point x="455" y="551"/>
      <point x="384" y="530" type="curve"/>
      <point x="384" y="490" type="line" smooth="yes"/>
      <point x="384" y="462"/>
      <point x="392" y="437"/>
      <point x="401" y="414" type="curve"/>
      <point x="401" y="401"/>
      <point x="403" y="363"/>
      <point x="405" y="350" type="curve" smooth="yes"/>
      <point x="407" y="336"/>
      <point x="411" y="320"/>
    </contour>
    <contour>
      <point x="395" y="488" type="curve"/>
      <point x="452" y="532" type="line"/>
      <point x="436" y="560"/>
      <point x="427" y="573"/>
      <point x="409" y="598" type="curve"/>
      <point x="392" y="624"/>
      <point x="372" y="642"/>
      <point x="344" y="655" type="curve"/>
      <point x="331" y="695"/>
      <point x="314" y="720"/>
      <point x="288" y="746" type="curve"/>
      <point x="290" y="750"/>
      <point x="291" y="754"/>
      <point x="291" y="772" type="curve" smooth="yes"/>
      <point x="291" y="787"/>
      <point x="285" y="810"/>
      <point x="258" y="810" type="curve" smooth="yes"/>
      <point x="228" y="810"/>
      <point x="223" y="794"/>
      <point x="223" y="772" type="curve" smooth="yes"/>
      <point x="223" y="745"/>
      <point x="231" y="734"/>
      <point x="242" y="729" type="curve"/>
      <point x="250" y="688"/>
      <point x="268" y="653"/>
      <point x="293" y="626" type="curve"/>
      <point x="303" y="595"/>
      <point x="318" y="568"/>
      <point x="337" y="545" type="curve"/>
      <point x="357" y="518"/>
      <point x="379" y="496"/>
    </contour>
    <contour>
      <point x="470" y="535" type="line"/>
      <point x="536" y="535" type="line"/>
      <point x="536" y="574" type="line"/>
      <point x="470" y="574" type="line"/>
    </contour>
    <contour>
      <point x="503" y="551" type="curve"/>
      <point x="533" y="552"/>
      <point x="566" y="565"/>
      <point x="574" y="611" type="curve"/>
      <point x="582" y="612"/>
      <point x="589" y="618"/>
      <point x="589" y="628" type="curve" smooth="yes"/>
      <point x="589" y="633"/>
      <point x="587" y="637"/>
      <point x="585" y="640" type="curve"/>
      <point x="585" y="683" type="line" smooth="yes"/>
      <point x="585" y="708"/>
      <point x="567" y="747"/>
      <point x="505" y="747" type="curve" smooth="yes"/>
      <point x="501" y="747" type="line" smooth="yes"/>
      <point x="439" y="747"/>
      <point x="421" y="708"/>
      <point x="421" y="683" type="curve" smooth="yes"/>
      <point x="421" y="640" type="line"/>
      <point x="419" y="637"/>
      <point x="417" y="633"/>
      <point x="417" y="628" type="curve" smooth="yes"/>
      <point x="417" y="618"/>
      <point x="424" y="612"/>
      <point x="432" y="611" type="curve"/>
      <point x="440" y="565"/>
      <point x="473" y="552"/>
    </contour>
    <contour>
      <point x="613" y="490" type="line"/>
      <point x="631" y="499"/>
      <point x="655" y="525"/>
      <point x="670" y="544" type="curve" smooth="yes"/>
      <point x="685" y="564"/>
      <point x="703" y="595"/>
      <point x="713" y="626" type="curve"/>
      <point x="738" y="653"/>
      <point x="756" y="688"/>
      <point x="764" y="729" type="curve"/>
      <point x="775" y="734"/>
      <point x="783" y="745"/>
      <point x="783" y="768" type="curve" smooth="yes"/>
      <point x="783" y="786"/>
      <point x="779" y="810"/>
      <point x="750" y="810" type="curve" smooth="yes"/>
      <point x="726" y="810"/>
      <point x="715" y="799"/>
      <point x="715" y="775" type="curve" smooth="yes"/>
      <point x="715" y="757"/>
      <point x="716" y="750"/>
      <point x="718" y="746" type="curve"/>
      <point x="692" y="720"/>
      <point x="675" y="695"/>
      <point x="662" y="655" type="curve"/>
      <point x="634" y="642"/>
      <point x="614" y="624"/>
      <point x="598" y="598" type="curve"/>
      <point x="579" y="573"/>
      <point x="570" y="560"/>
      <point x="554" y="532" type="curve"/>
    </contour>
  </outline>
</glyph>
<glyph name="ear" format="2">
  <advance width="800"/>
  <unicode hex="1F442"/>
  <outline>
    <contour>
      <point x="318" y="-176" type="curve" smooth="yes"/>
      <point x="458" y="-176"/>
      <point x="567" y="-68"/>
      <point x="600" y="79" type="curve" smooth="yes"/>
      <point x="616" y="151"/>
      <point x="625" y="193"/>
      <point x="689" y="342" type="curve" smooth="yes"/>
      <point x="713" y="398"/>
      <point x="749" y="479"/>
      <point x="749" y="586" type="curve" smooth="yes"/>
      <point x="749" y="599"/>
      <point x="748" y="613"/>
      <point x="747" y="628" type="curve" smooth="yes"/>
      <point x="737" y="783"/>
      <point x="601" y="879"/>
      <point x="483" y="887" type="curve" smooth="yes"/>
      <point x="469" y="888"/>
      <point x="455" y="888"/>
      <point x="443" y="888" type="curve" smooth="yes"/>
      <point x="273" y="888"/>
      <point x="195" y="797"/>
      <point x="165" y="767" type="curve" smooth="yes"/>
      <point x="107" y="708"/>
      <point x="51" y="537"/>
      <point x="51" y="503" type="curve" smooth="yes"/>
      <point x="51" y="485"/>
      <point x="65" y="470"/>
      <point x="85" y="470" type="curve" smooth="yes"/>
      <point x="99" y="470"/>
      <point x="114" y="481"/>
      <point x="117" y="497" type="curve"/>
      <point x="118" y="499"/>
      <point x="149" y="647"/>
      <point x="216" y="723" type="curve" smooth="yes"/>
      <point x="254" y="766"/>
      <point x="318" y="821"/>
      <point x="440" y="821" type="curve" smooth="yes"/>
      <point x="452" y="821"/>
      <point x="464" y="821"/>
      <point x="477" y="819" type="curve" smooth="yes"/>
      <point x="586" y="802"/>
      <point x="682" y="720"/>
      <point x="682" y="586" type="curve" smooth="yes"/>
      <point x="682" y="479"/>
      <point x="639" y="407"/>
      <point x="617" y="347" type="curve" smooth="yes"/>
      <point x="568" y="213"/>
      <point x="551" y="171"/>
      <point x="534" y="93" type="curve" smooth="yes"/>
      <point x="509" y="-24"/>
      <point x="424" y="-109"/>
      <point x="319" y="-109" type="curve" smooth="yes"/>
      <point x="206" y="-109"/>
      <point x="150" y="-12"/>
      <point x="150" y="-8" type="curve"/>
      <point x="144" y="4"/>
      <point x="132" y="11"/>
      <point x="119" y="11" type="curve" smooth="yes"/>
      <point x="100" y="11"/>
      <point x="87" y="-5"/>
      <point x="87" y="-23" type="curve" smooth="yes"/>
      <point x="87" y="-27"/>
      <point x="87" y="-33"/>
      <point x="90" y="-38" type="curve"/>
      <point x="94" y="-45"/>
      <point x="161" y="-176"/>
    </contour>
    <contour>
      <point x="306" y="24" type="curve" smooth="yes"/>
      <point x="349" y="24"/>
      <point x="397" y="45"/>
      <point x="429" y="79" type="curve"/>
      <point x="432" y="83"/>
      <point x="434" y="88"/>
      <point x="434" y="94" type="curve" smooth="yes"/>
      <point x="434" y="106"/>
      <point x="425" y="118"/>
      <point x="413" y="118" type="curve" smooth="yes"/>
      <point x="405" y="118"/>
      <point x="397" y="110"/>
      <point x="384" y="103" type="curve"/>
      <point x="371" y="99"/>
      <point x="359" y="97"/>
      <point x="347" y="97" type="curve" smooth="yes"/>
      <point x="313" y="97"/>
      <point x="286" y="113"/>
      <point x="286" y="163" type="curve" smooth="yes"/>
      <point x="286" y="199"/>
      <point x="303" y="226"/>
      <point x="324" y="255" type="curve" smooth="yes"/>
      <point x="345" y="284"/>
      <point x="350" y="312"/>
      <point x="350" y="331" type="curve" smooth="yes"/>
      <point x="350" y="358"/>
      <point x="336" y="376"/>
      <point x="336" y="391" type="curve" smooth="yes"/>
      <point x="336" y="401"/>
      <point x="342" y="407"/>
      <point x="357" y="407" type="curve" smooth="yes"/>
      <point x="371" y="407"/>
      <point x="381" y="401"/>
      <point x="390" y="390" type="curve" smooth="yes"/>
      <point x="398" y="381"/>
      <point x="400" y="361"/>
      <point x="415" y="361" type="curve" smooth="yes"/>
      <point x="427" y="361"/>
      <point x="434" y="375"/>
      <point x="434" y="385" type="curve" smooth="yes"/>
      <point x="434" y="417"/>
      <point x="409" y="439"/>
      <point x="388" y="458" type="curve" smooth="yes"/>
      <point x="375" y="470"/>
      <point x="360" y="472"/>
      <point x="347" y="480" type="curve"/>
      <point x="333" y="488"/>
      <point x="328" y="503"/>
      <point x="328" y="519" type="curve" smooth="yes"/>
      <point x="328" y="584"/>
      <point x="382" y="648"/>
      <point x="448" y="648" type="curve" smooth="yes"/>
      <point x="507" y="648"/>
      <point x="552" y="582"/>
      <point x="557" y="526" type="curve" smooth="yes"/>
      <point x="558" y="515"/>
      <point x="568" y="509"/>
      <point x="577" y="509" type="curve" smooth="yes"/>
      <point x="586" y="509"/>
      <point x="594" y="515"/>
      <point x="594" y="526" type="curve" smooth="yes"/>
      <point x="594" y="577"/>
      <point x="582" y="634"/>
      <point x="546" y="673" type="curve" smooth="yes"/>
      <point x="517" y="704"/>
      <point x="479" y="716"/>
      <point x="442" y="716" type="curve" smooth="yes"/>
      <point x="389" y="716"/>
      <point x="334" y="690"/>
      <point x="297" y="649" type="curve" smooth="yes"/>
      <point x="257" y="604"/>
      <point x="219" y="538"/>
      <point x="219" y="474" type="curve" smooth="yes"/>
      <point x="219" y="435"/>
      <point x="229" y="421"/>
      <point x="243" y="391" type="curve" smooth="yes"/>
      <point x="249" y="378"/>
      <point x="252" y="364"/>
      <point x="252" y="351" type="curve" smooth="yes"/>
      <point x="252" y="316"/>
      <point x="236" y="281"/>
      <point x="219" y="253" type="curve" smooth="yes"/>
      <point x="204" y="229"/>
      <point x="197" y="188"/>
      <point x="197" y="152" type="curve" smooth="yes"/>
      <point x="197" y="133"/>
      <point x="199" y="116"/>
      <point x="203" y="103" type="curve" smooth="yes"/>
      <point x="220" y="48"/>
      <point x="260" y="24"/>
    </contour>
  </outline>
</glyph>
<glyph name="okHandSign" format="2">
  <advance width="952"/>
  <unicode hex="1F44C"/>
  <outline>
    <contour>
      <point x="492" y="-43" type="curve" smooth="yes"/>
      <point x="579" y="-43"/>
      <point x="636" y="-24"/>
      <point x="662" y="13" type="curve"/>
      <point x="662" y="44" type="line" smooth="yes"/>
      <point x="662" y="78"/>
      <point x="684" y="96"/>
      <point x="717" y="114" type="curve" smooth="yes"/>
      <point x="746" y="130"/>
      <point x="783" y="150"/>
      <point x="803" y="163" type="curve" smooth="yes"/>
      <point x="819" y="173"/>
      <point x="831" y="185"/>
      <point x="840" y="200" type="curve" smooth="yes"/>
      <point x="854" y="224"/>
      <point x="862" y="256"/>
      <point x="879" y="304" type="curve" smooth="yes"/>
      <point x="891" y="338"/>
      <point x="901" y="372"/>
      <point x="901" y="393" type="curve" smooth="yes"/>
      <point x="901" y="396"/>
      <point x="900" y="399"/>
      <point x="900" y="401" type="curve" smooth="yes"/>
      <point x="900" y="436"/>
      <point x="833" y="447"/>
      <point x="786" y="504" type="curve" smooth="yes"/>
      <point x="776" y="516"/>
      <point x="757" y="521"/>
      <point x="734" y="506" type="curve"/>
      <point x="687" y="453" type="line"/>
      <point x="687" y="420"/>
      <point x="699" y="394"/>
      <point x="716" y="383" type="curve"/>
      <point x="704" y="377"/>
      <point x="693" y="368"/>
      <point x="684" y="360" type="curve"/>
      <point x="670" y="363"/>
      <point x="654" y="365"/>
      <point x="639" y="365" type="curve" smooth="yes"/>
      <point x="579" y="365"/>
      <point x="520" y="337"/>
      <point x="485" y="290" type="curve"/>
      <point x="514" y="268" type="line"/>
      <point x="553" y="307"/>
      <point x="589" y="329"/>
      <point x="638" y="329" type="curve" smooth="yes"/>
      <point x="662" y="329"/>
      <point x="684" y="325"/>
      <point x="700" y="318" type="curve"/>
      <point x="707" y="338"/>
      <point x="747" y="361"/>
      <point x="764" y="360" type="curve"/>
      <point x="769" y="382" type="line"/>
      <point x="745" y="393"/>
      <point x="723" y="423"/>
      <point x="723" y="445" type="curve" smooth="yes"/>
      <point x="723" y="466"/>
      <point x="739" y="482"/>
      <point x="756" y="482" type="curve" smooth="yes"/>
      <point x="757" y="482"/>
      <point x="759" y="481"/>
      <point x="760" y="480" type="curve"/>
      <point x="810" y="423"/>
      <point x="862" y="408"/>
      <point x="865" y="394" type="curve" smooth="yes"/>
      <point x="868" y="378"/>
      <point x="843" y="317"/>
      <point x="821" y="247" type="curve" smooth="yes"/>
      <point x="810" y="212"/>
      <point x="805" y="204"/>
      <point x="773" y="185" type="curve" smooth="yes"/>
      <point x="746" y="169"/>
      <point x="721" y="158"/>
      <point x="702" y="147" type="curve" smooth="yes"/>
      <point x="661" y="123"/>
      <point x="626" y="94"/>
      <point x="626" y="39" type="curve" smooth="yes"/>
      <point x="626" y="26" type="line"/>
      <point x="604" y="4"/>
      <point x="560" y="-7"/>
      <point x="492" y="-7" type="curve" smooth="yes"/>
      <point x="435" y="-7"/>
      <point x="384" y="4"/>
      <point x="357" y="22" type="curve"/>
      <point x="357" y="61"/>
      <point x="353" y="92"/>
      <point x="318" y="142" type="curve" smooth="yes"/>
      <point x="285" y="189"/>
      <point x="261" y="231"/>
      <point x="247" y="282" type="curve" smooth="yes"/>
      <point x="224" y="365" type="line" smooth="yes"/>
      <point x="216" y="395"/>
      <point x="190" y="427"/>
      <point x="180" y="443" type="curve" smooth="yes"/>
      <point x="145" y="499"/>
      <point x="101" y="564"/>
      <point x="95" y="577" type="curve" smooth="yes"/>
      <point x="88" y="592"/>
      <point x="84" y="598"/>
      <point x="84" y="605" type="curve" smooth="yes"/>
      <point x="84" y="617"/>
      <point x="92" y="623"/>
      <point x="101" y="623" type="curve" smooth="yes"/>
      <point x="113" y="623"/>
      <point x="127" y="612"/>
      <point x="146" y="582" type="curve" smooth="yes"/>
      <point x="166" y="551"/>
      <point x="206" y="499"/>
      <point x="224" y="472" type="curve" smooth="yes"/>
      <point x="246" y="439"/>
      <point x="262" y="428"/>
      <point x="275" y="428" type="curve" smooth="yes"/>
      <point x="293" y="428"/>
      <point x="319" y="447"/>
      <point x="319" y="467" type="curve" smooth="yes"/>
      <point x="319" y="489"/>
      <point x="297" y="530"/>
      <point x="276" y="587" type="curve" smooth="yes"/>
      <point x="262" y="626"/>
      <point x="228" y="713"/>
      <point x="219" y="757" type="curve" smooth="yes"/>
      <point x="213" y="786"/>
      <point x="211" y="803"/>
      <point x="211" y="815" type="curve" smooth="yes"/>
      <point x="211" y="829"/>
      <point x="218" y="839"/>
      <point x="237" y="839" type="curve" smooth="yes"/>
      <point x="252" y="839"/>
      <point x="265" y="821"/>
      <point x="274" y="787" type="curve" smooth="yes"/>
      <point x="280" y="765"/>
      <point x="307" y="694"/>
      <point x="327" y="638" type="curve" smooth="yes"/>
      <point x="343" y="592"/>
      <point x="367" y="540"/>
      <point x="377" y="519" type="curve" smooth="yes"/>
      <point x="385" y="503"/>
      <point x="394" y="495"/>
      <point x="407" y="495" type="curve" smooth="yes"/>
      <point x="428" y="495"/>
      <point x="453" y="506"/>
      <point x="453" y="536" type="curve" smooth="yes"/>
      <point x="453" y="560"/>
      <point x="448" y="583"/>
      <point x="421" y="757" type="curve" smooth="yes"/>
      <point x="414" y="802"/>
      <point x="404" y="831"/>
      <point x="401" y="861" type="curve" smooth="yes"/>
      <point x="399" y="880"/>
      <point x="397" y="894"/>
      <point x="397" y="906" type="curve" smooth="yes"/>
      <point x="397" y="929"/>
      <point x="408" y="941"/>
      <point x="425" y="941" type="curve" smooth="yes"/>
      <point x="444" y="941"/>
      <point x="453" y="931"/>
      <point x="464" y="881" type="curve" smooth="yes"/>
      <point x="472" y="846"/>
      <point x="490" y="756"/>
      <point x="501" y="697" type="curve" smooth="yes"/>
      <point x="507" y="664"/>
      <point x="513" y="631"/>
      <point x="519" y="598" type="curve" smooth="yes"/>
      <point x="529" y="543"/>
      <point x="544" y="538"/>
      <point x="563" y="538" type="curve" smooth="yes"/>
      <point x="589" y="538"/>
      <point x="611" y="574"/>
      <point x="611" y="608" type="curve"/>
      <point x="632" y="635" type="line"/>
      <point x="645" y="708"/>
      <point x="652" y="720"/>
      <point x="677" y="720" type="curve" smooth="yes"/>
      <point x="719" y="720"/>
      <point x="748" y="690"/>
      <point x="748" y="645" type="curve" smooth="yes"/>
      <point x="748" y="616"/>
      <point x="739" y="600"/>
      <point x="731" y="580" type="curve" smooth="yes"/>
      <point x="721" y="554"/>
      <point x="716" y="532"/>
      <point x="715" y="515" type="curve" smooth="yes"/>
      <point x="714" y="501"/>
      <point x="712" y="474"/>
      <point x="689" y="474" type="curve" smooth="yes"/>
      <point x="656" y="474"/>
      <point x="637" y="493"/>
      <point x="637" y="522" type="curve" smooth="yes"/>
      <point x="637" y="560"/>
      <point x="640" y="574"/>
      <point x="640" y="600" type="curve" smooth="yes"/>
      <point x="640" y="608"/>
      <point x="640" y="616"/>
      <point x="639" y="625" type="curve" smooth="yes"/>
      <point x="638" y="634"/>
      <point x="638" y="644"/>
      <point x="640" y="663" type="curve" smooth="yes"/>
      <point x="641" y="674"/>
      <point x="645" y="695"/>
      <point x="649" y="704" type="curve"/>
      <point x="619" y="706" type="line"/>
      <point x="612" y="682"/>
      <point x="610" y="629"/>
      <point x="606" y="590" type="curve" smooth="yes"/>
      <point x="604" y="568"/>
      <point x="602" y="547"/>
      <point x="602" y="522" type="curve" smooth="yes"/>
      <point x="602" y="481"/>
      <point x="624" y="443"/>
      <point x="701" y="443" type="curve"/>
      <point x="745" y="501" type="line"/>
      <point x="748" y="539"/>
      <point x="756" y="558"/>
      <point x="764" y="577" type="curve" smooth="yes"/>
      <point x="772" y="597"/>
      <point x="781" y="613"/>
      <point x="781" y="648" type="curve" smooth="yes"/>
      <point x="781" y="706"/>
      <point x="737" y="756"/>
      <point x="673" y="756" type="curve" smooth="yes"/>
      <point x="638" y="756"/>
      <point x="619" y="738"/>
      <point x="606" y="689" type="curve" smooth="yes"/>
      <point x="590" y="627"/>
      <point x="582" y="574"/>
      <point x="566" y="574" type="curve" smooth="yes"/>
      <point x="560" y="574"/>
      <point x="555" y="582"/>
      <point x="553" y="594" type="curve" smooth="yes"/>
      <point x="549" y="619"/>
      <point x="543" y="646"/>
      <point x="533" y="705" type="curve" smooth="yes"/>
      <point x="523" y="766"/>
      <point x="515" y="802"/>
      <point x="496" y="904" type="curve" smooth="yes"/>
      <point x="486" y="959"/>
      <point x="461" y="976"/>
      <point x="423" y="976" type="curve" smooth="yes"/>
      <point x="388" y="976"/>
      <point x="360" y="951"/>
      <point x="360" y="906" type="curve" smooth="yes"/>
      <point x="360" y="891"/>
      <point x="363" y="874"/>
      <point x="366" y="856" type="curve" smooth="yes"/>
      <point x="372" y="821"/>
      <point x="379" y="787"/>
      <point x="388" y="735" type="curve" smooth="yes"/>
      <point x="398" y="675"/>
      <point x="420" y="587"/>
      <point x="420" y="537" type="curve" smooth="yes"/>
      <point x="420" y="531"/>
      <point x="417" y="527"/>
      <point x="413" y="527" type="curve" smooth="yes"/>
      <point x="409" y="527"/>
      <point x="406" y="530"/>
      <point x="402" y="539" type="curve" smooth="yes"/>
      <point x="395" y="554"/>
      <point x="381" y="588"/>
      <point x="359" y="653" type="curve" smooth="yes"/>
      <point x="337" y="719"/>
      <point x="315" y="775"/>
      <point x="308" y="798" type="curve" smooth="yes"/>
      <point x="294" y="843"/>
      <point x="271" y="872"/>
      <point x="239" y="872" type="curve" smooth="yes"/>
      <point x="195" y="872"/>
      <point x="177" y="847"/>
      <point x="177" y="809" type="curve" smooth="yes"/>
      <point x="177" y="791"/>
      <point x="180" y="772"/>
      <point x="184" y="752" type="curve" smooth="yes"/>
      <point x="190" y="721"/>
      <point x="226" y="627"/>
      <point x="245" y="574" type="curve" smooth="yes"/>
      <point x="250" y="560"/>
      <point x="269" y="511"/>
      <point x="282" y="482" type="curve" smooth="yes"/>
      <point x="285" y="475"/>
      <point x="286" y="470"/>
      <point x="286" y="467" type="curve" smooth="yes"/>
      <point x="286" y="464"/>
      <point x="282" y="460"/>
      <point x="279" y="460" type="curve" smooth="yes"/>
      <point x="276" y="460"/>
      <point x="265" y="472"/>
      <point x="246" y="500" type="curve" smooth="yes"/>
      <point x="225" y="531"/>
      <point x="196" y="572"/>
      <point x="176" y="602" type="curve" smooth="yes"/>
      <point x="151" y="640"/>
      <point x="128" y="659"/>
      <point x="103" y="659" type="curve" smooth="yes"/>
      <point x="75" y="659"/>
      <point x="51" y="635"/>
      <point x="51" y="604" type="curve" smooth="yes"/>
      <point x="51" y="584"/>
      <point x="57" y="567"/>
      <point x="68" y="548" type="curve" smooth="yes"/>
      <point x="88" y="513"/>
      <point x="124" y="463"/>
      <point x="150" y="421" type="curve" smooth="yes"/>
      <point x="160" y="405"/>
      <point x="182" y="379"/>
      <point x="189" y="355" type="curve" smooth="yes"/>
      <point x="211" y="275" type="line" smooth="yes"/>
      <point x="232" y="197"/>
      <point x="252" y="162"/>
      <point x="297" y="114" type="curve" smooth="yes"/>
      <point x="320" y="89"/>
      <point x="318" y="61"/>
      <point x="318" y="7" type="curve"/>
      <point x="347" y="-24"/>
      <point x="416" y="-43"/>
    </contour>
    <contour>
      <point x="492" y="-169" type="curve" smooth="yes"/>
      <point x="602" y="-169"/>
      <point x="696" y="-145"/>
      <point x="696" y="-86" type="curve" smooth="yes"/>
      <point x="696" y="-11" type="line" smooth="yes"/>
      <point x="696" y="4"/>
      <point x="687" y="9"/>
      <point x="676" y="9" type="curve" smooth="yes"/>
      <point x="669" y="9" type="line"/>
      <point x="676" y="5"/>
      <point x="679" y="1"/>
      <point x="679" y="-6" type="curve" smooth="yes"/>
      <point x="679" y="-42"/>
      <point x="611" y="-77"/>
      <point x="492" y="-77" type="curve" smooth="yes"/>
      <point x="371" y="-77"/>
      <point x="303" y="-42"/>
      <point x="303" y="-6" type="curve" smooth="yes"/>
      <point x="303" y="1"/>
      <point x="306" y="5"/>
      <point x="313" y="9" type="curve"/>
      <point x="306" y="9" type="line" smooth="yes"/>
      <point x="295" y="9"/>
      <point x="286" y="4"/>
      <point x="286" y="-11" type="curve" smooth="yes"/>
      <point x="286" y="-86" type="line" smooth="yes"/>
      <point x="286" y="-145"/>
      <point x="380" y="-169"/>
    </contour>
    <contour>
      <point x="654" y="346" type="curve"/>
      <point x="689" y="352" type="line"/>
      <point x="679" y="362"/>
      <point x="672" y="383"/>
      <point x="672" y="405" type="curve" smooth="yes"/>
      <point x="672" y="428"/>
      <point x="675" y="438"/>
      <point x="682" y="451" type="curve"/>
      <point x="651" y="460" type="line"/>
      <point x="642" y="440"/>
      <point x="640" y="420"/>
      <point x="640" y="402" type="curve" smooth="yes"/>
      <point x="640" y="381"/>
      <point x="645" y="365"/>
    </contour>
  </outline>
</glyph>
